<svg xmlns="http://www.w3.org/2000/svg" width="16.121" height="16.121" viewBox="0 0 16.121 16.121"><defs><style>.a{fill:none;stroke:#649ae9;stroke-linecap:round;stroke-linejoin:round;stroke-width:1.5px;}</style></defs><g transform="translate(-0.439 -0.439)"><path class="a" d="M12.28,14.871A6.408,6.408,0,0,1,8.5,16.182c-4.455,0-7-5.091-7-5.091a11.741,11.741,0,0,1,3.22-3.78M7.164,6.153A5.8,5.8,0,0,1,8.5,6c4.455,0,7,5.091,7,5.091a11.773,11.773,0,0,1-1.375,2.03M9.849,12.44a1.909,1.909,0,1,1-2.7-2.7" transform="translate(0 -2.591)"/><path class="a" d="M1.5,1.5l14,14" transform="translate(0 0)"/></g></svg>