<svg xmlns="http://www.w3.org/2000/svg" xmlns:xlink="http://www.w3.org/1999/xlink" width="100.385" height="75" viewBox="0 0 100.385 75"><defs><style>.a,.b{opacity:0.5;}.b,.c,.d,.e{fill:#649ae9;}.d{opacity:0.2;}.e{opacity:0.3;}.f,.h{opacity:0.1;}.g{fill:#3f3d56;}.i{opacity:0.6;}.j{opacity:0.8;}.k{fill:url(#a);}.l{fill:#a0616a;}.m{fill:#8e5362;}.n{fill:#2f2e41;}.o{fill:#f86d70;}.p{fill:#ffc1c7;}</style><linearGradient id="a" x1="0.5" y1="1" x2="0.5" gradientUnits="objectBoundingBox"><stop offset="0" stop-color="gray" stop-opacity="0.251"/><stop offset="0.54" stop-color="gray" stop-opacity="0.122"/><stop offset="1" stop-color="gray" stop-opacity="0.102"/></linearGradient></defs><g class="a" transform="translate(0 0.004)"><path class="b" d="M274.478,69.956A.293.293,0,0,0,274,70.3c.055.082.115.162.171.238a9.407,9.407,0,0,1,1.353,3.175,1.483,1.483,0,0,1,.062.832,5.231,5.231,0,0,0-.142-2.185,13.519,13.519,0,0,0-.774-2.059A1.874,1.874,0,0,0,274.478,69.956Z" transform="translate(-253.894 -67.481)"/><path class="c" d="M227.612,92.3a.365.365,0,0,0-.061.727c.121.01.244.013.361.016a11.214,11.214,0,0,1,4.062,1.109,1.726,1.726,0,0,1,.832.58,6.116,6.116,0,0,0-2.167-1.534,15.965,15.965,0,0,0-2.555-.825A2.234,2.234,0,0,0,227.612,92.3Z" transform="translate(-211.498 -87.866)"/><path class="d" d="M230.856,111c-.294.011-.227.428.068.431.077,0,.154,0,.227-.006a8.328,8.328,0,0,1,2.708.484,1.383,1.383,0,0,1,.609.306,4.882,4.882,0,0,0-1.582-.813,12.262,12.262,0,0,0-1.723-.379A1.561,1.561,0,0,0,230.856,111Z" transform="translate(-214.613 -104.835)"/><path class="b" d="M296.473,157.582c.083.282.471.114.4-.173-.018-.075-.042-.149-.063-.219a8.333,8.333,0,0,1-.2-2.743,1.4,1.4,0,0,1,.146-.666,4.872,4.872,0,0,0-.394,1.735,12.042,12.042,0,0,0,.06,1.763A1.556,1.556,0,0,0,296.473,157.582Z" transform="translate(-274.225 -143.665)"/><path class="d" d="M237.133,66.885c-.177-.031-.19.226-.014.266.046.01.092.018.137.025a5.084,5.084,0,0,1,1.557.633.841.841,0,0,1,.324.261,2.979,2.979,0,0,0-.842-.687,7.291,7.291,0,0,0-.981-.445A.931.931,0,0,0,237.133,66.885Z" transform="translate(-220.356 -64.801)"/><path class="c" d="M207.029,132.032c-.448.231-.069.864.391.654.12-.055.238-.117.35-.176a13.54,13.54,0,0,1,4.529-1.173,2.22,2.22,0,0,1,1.148.059,7.768,7.768,0,0,0-3-.179,19.733,19.733,0,0,0-2.926.629,2.652,2.652,0,0,0-.5.186Z" transform="translate(-192.979 -123.129)"/><path class="b" d="M221.841,144.44c-.322.3.185.655.519.37.092-.075.173-.154.253-.23a13.509,13.509,0,0,1,3.57-2.181,8.294,8.294,0,0,1,1.97-.291,15.053,15.053,0,0,0-3.594.739,19.9,19.9,0,0,0-2.344,1.316A2.46,2.46,0,0,0,221.841,144.44Z" transform="translate(-206.511 -133.071)"/><path class="c" d="M247.617,155.8c-.092.43.52.436.635.006.03-.112.054-.226.077-.334a13.58,13.58,0,0,1,1.7-3.824,8.327,8.327,0,0,1,1.455-1.36,14.764,14.764,0,0,0-2.536,2.653,19.966,19.966,0,0,0-1.181,2.415A2.538,2.538,0,0,0,247.617,155.8Z" transform="translate(-229.989 -140.498)"/><path class="c" d="M291.007,44.519c-.22-.447-.847-.079-.647.379.052.12.11.238.166.349a13.531,13.531,0,0,1,1.081,4.5,2.211,2.211,0,0,1-.076,1.138,7.792,7.792,0,0,0,.223-2.967,19.567,19.567,0,0,0-.572-2.908A2.621,2.621,0,0,0,291.007,44.519Z" transform="translate(-268.754 -44.32)"/><path class="c" d="M254.739,50.765a.083.083,0,0,0,.038.012c.025,0,.042-.025.052-.047.055-.119.023-.277.108-.37a1.3,1.3,0,0,1,.2.336l.322-.092a.475.475,0,0,1-.061.37.48.48,0,0,1,.152.1.165.165,0,0,1,.04.17.816.816,0,0,1-.227.022,1.513,1.513,0,0,1-.024.423.077.077,0,0,1-.028.054c-.023.015-.055,0-.079-.013a.74.74,0,0,1-.264-.277l-.12.286a.129.129,0,0,1-.053.072.086.086,0,0,1-.1-.035.241.241,0,0,1-.035-.108l-.045-.272a.065.065,0,0,0-.015-.039.069.069,0,0,0-.047-.014h-.341c-.019-.061.041-.116.1-.142s.127-.044.156-.1c.059-.116-.092-.277-.029-.374C254.516,50.6,254.64,50.716,254.739,50.765Z" transform="translate(-235.981 -49.805)"/><path class="b" d="M315.673,69.956a.293.293,0,0,1,.477.341c-.055.082-.115.162-.171.238a9.389,9.389,0,0,0-1.353,3.175,1.476,1.476,0,0,0-.063.832,5.234,5.234,0,0,1,.143-2.185,13.572,13.572,0,0,1,.774-2.064A1.869,1.869,0,0,1,315.673,69.956Z" transform="translate(-290.701 -67.481)"/><path class="c" d="M324.512,92.3a.365.365,0,0,1,.061.727c-.121.01-.243.013-.36.016a11.209,11.209,0,0,0-4.062,1.109,1.726,1.726,0,0,0-.832.58,6.1,6.1,0,0,1,2.167-1.534,16.074,16.074,0,0,1,2.551-.825A2.235,2.235,0,0,1,324.512,92.3Z" transform="translate(-295.072 -87.866)"/><path class="b" d="M338.633,111c.293.011.227.428-.068.431-.077,0-.154,0-.228-.006a8.322,8.322,0,0,0-2.707.484,1.383,1.383,0,0,0-.609.306,4.883,4.883,0,0,1,1.582-.813,12.232,12.232,0,0,1,1.723-.379A1.56,1.56,0,0,1,338.633,111Z" transform="translate(-309.321 -104.835)"/><path class="d" d="M348.653,66.885c.177-.031.19.226.015.266-.046.01-.092.018-.138.025a5.079,5.079,0,0,0-1.556.633.841.841,0,0,0-.324.261,2.966,2.966,0,0,1,.842-.687,7.279,7.279,0,0,1,.98-.445A.968.968,0,0,1,348.653,66.885Z" transform="translate(-319.876 -64.801)"/><path class="d" d="M315.431,178.009c-.04.176-.283.092-.25-.092.008-.047.018-.092.029-.137a5.087,5.087,0,0,0,.017-1.68.851.851,0,0,0-.116-.4,2.975,2.975,0,0,1,.309,1.045,7.36,7.36,0,0,1,.032,1.077A.969.969,0,0,1,315.431,178.009Z" transform="translate(-291.251 -163.559)"/><path class="b" d="M340.681,160.992c.138.234-.2.217-.349-.017-.04-.061-.075-.122-.11-.185a12.634,12.634,0,0,0-1.7-2.1,2.36,2.36,0,0,0-.529-.456,8.329,8.329,0,0,1,1.387,1.183c.413.433.778.883,1.136,1.333A2.179,2.179,0,0,1,340.681,160.992Z" transform="translate(-312.016 -147.704)"/><path class="d" d="M234,160.992c-.138.234.2.217.35-.017.039-.061.075-.122.109-.185a12.6,12.6,0,0,1,1.7-2.1,2.357,2.357,0,0,1,.528-.456,8.4,8.4,0,0,0-1.387,1.183c-.413.433-.778.883-1.135,1.333A2.192,2.192,0,0,0,234,160.992Z" transform="translate(-217.613 -147.704)"/><path class="d" d="M282.6,178.009c.04.176.282.092.251-.092-.008-.047-.019-.092-.03-.137a5.087,5.087,0,0,1-.016-1.68.859.859,0,0,1,.115-.4,2.974,2.974,0,0,0-.309,1.045,7.369,7.369,0,0,0-.033,1.077A.971.971,0,0,0,282.6,178.009Z" transform="translate(-261.718 -163.559)"/><path class="d" d="M333.324,85.884c.177-.031.19.226.014.265-.046.01-.092.018-.137.026a5.1,5.1,0,0,0-1.557.632.858.858,0,0,0-.324.261,2.975,2.975,0,0,1,.842-.686,7.41,7.41,0,0,1,.981-.446A.924.924,0,0,1,333.324,85.884Z" transform="translate(-305.963 -82.043)"/><path class="d" d="M321.276,48.4c.152-.092.261.14.113.241-.04.027-.079.052-.118.075a5.085,5.085,0,0,0-1.206,1.168.86.86,0,0,0-.2.363,2.988,2.988,0,0,1,.525-.951,7.326,7.326,0,0,1,.74-.779A1.007,1.007,0,0,1,321.276,48.4Z" transform="translate(-295.562 -48.008)"/><path class="c" d="M334.809,132.032c.448.231.069.864-.391.654-.12-.055-.238-.117-.35-.176a13.546,13.546,0,0,0-4.529-1.173,2.22,2.22,0,0,0-1.148.059,7.767,7.767,0,0,1,3-.179,19.734,19.734,0,0,1,2.926.629A2.68,2.68,0,0,1,334.809,132.032Z" transform="translate(-303.304 -123.129)"/><path class="b" d="M322,144.4c.322.3-.185.655-.519.37-.092-.075-.173-.154-.253-.23a13.51,13.51,0,0,0-3.573-2.185,8.3,8.3,0,0,0-1.971-.291,15.05,15.05,0,0,1,3.595.739,19.9,19.9,0,0,1,2.344,1.316A2.458,2.458,0,0,1,322,144.4Z" transform="translate(-291.769 -133.035)"/><path class="c" d="M312.081,156.791c.04.438-.571.37-.63-.073-.016-.115-.025-.23-.035-.34a13.7,13.7,0,0,0-1.2-4.007,8.313,8.313,0,0,0-1.274-1.531,14.756,14.756,0,0,1,2.183,2.95,19.953,19.953,0,0,1,.87,2.544A2.5,2.5,0,0,1,312.081,156.791Z" transform="translate(-285.652 -140.997)"/><path class="c" d="M338.428,50.765a.079.079,0,0,1-.038.012c-.024,0-.041-.025-.051-.047-.055-.119-.024-.277-.108-.37a1.3,1.3,0,0,0-.2.336L337.7,50.6a.479.479,0,0,0,.061.37.491.491,0,0,0-.152.1.167.167,0,0,0-.039.17.816.816,0,0,0,.227.022,1.48,1.48,0,0,0,.024.423.077.077,0,0,0,.028.054c.023.015.055,0,.079-.013a.757.757,0,0,0,.264-.277l.12.286a.121.121,0,0,0,.053.072.086.086,0,0,0,.1-.035.253.253,0,0,0,.035-.108l.045-.272a.065.065,0,0,1,.015-.039.069.069,0,0,1,.047-.014h.341c.019-.061-.041-.116-.1-.142s-.128-.044-.156-.1c-.059-.116.092-.277.029-.374C338.651,50.6,338.53,50.716,338.428,50.765Z" transform="translate(-311.631 -49.805)"/><path class="d" d="M348.932,194.166a.081.081,0,0,1-.038.011c-.025,0-.042-.025-.052-.047-.055-.118-.023-.273-.107-.37a1.28,1.28,0,0,0-.205.343l-.322-.1a.265.265,0,0,1-.091.472.168.168,0,0,0-.04.17.816.816,0,0,0,.227.023,1.507,1.507,0,0,0,.024.422.084.084,0,0,0,.028.055c.024.015.055,0,.079-.014a.733.733,0,0,0,.264-.277l.12.286a.128.128,0,0,0,.054.071.084.084,0,0,0,.1-.034.259.259,0,0,0,.036-.108l.044-.273a.065.065,0,0,1,.015-.039.07.07,0,0,1,.048-.013c.113,0,.226,0,.34,0,.019-.06-.041-.116-.1-.142s-.127-.044-.156-.1c-.059-.115.092-.277.029-.37C349.155,194,349.031,194.117,348.932,194.166Z" transform="translate(-321.164 -179.95)"/><path class="c" d="M378.439,98.025a.072.072,0,0,1-.038.011c-.025,0-.042-.024-.052-.046-.055-.119-.023-.277-.108-.37a1.308,1.308,0,0,0-.2.344l-.322-.1a.476.476,0,0,0,.061.37.494.494,0,0,0-.152.1.167.167,0,0,0-.04.171.816.816,0,0,0,.227.022,1.515,1.515,0,0,0,.024.423.077.077,0,0,0,.028.054c.023.015.055,0,.079-.013a.739.739,0,0,0,.264-.277l.12.286a.129.129,0,0,0,.053.072.087.087,0,0,0,.1-.035.242.242,0,0,0,.035-.108l.045-.277a.065.065,0,0,1,.015-.038.07.07,0,0,1,.047-.014h.341c.019-.06-.041-.116-.1-.141s-.127-.044-.156-.1c-.059-.116.092-.277.029-.37C378.661,97.863,378.539,97.978,378.439,98.025Z" transform="translate(-347.943 -92.697)"/><path class="c" d="M257.115,206.93a.109.109,0,0,1-.053.016c-.034,0-.057-.034-.072-.065-.076-.166-.032-.382-.15-.521a1.779,1.779,0,0,0-.285.479l-.451-.142a.669.669,0,0,0,.085.514.683.683,0,0,0-.212.144.234.234,0,0,0-.055.237,1.145,1.145,0,0,0,.317.032,2.1,2.1,0,0,0,.033.589.106.106,0,0,0,.039.075c.032.021.076,0,.109-.018a1.042,1.042,0,0,0,.37-.392l.167.4a.185.185,0,0,0,.074.1.118.118,0,0,0,.14-.048.347.347,0,0,0,.05-.152l.062-.379a.1.1,0,0,1,.021-.054.092.092,0,0,1,.067-.019c.158,0,.316-.006.474,0,.028-.084-.056-.162-.138-.2s-.177-.062-.217-.141c-.083-.16.13-.383.04-.521C257.427,206.7,257.254,206.862,257.115,206.93Z" transform="translate(-237.525 -191.385)"/><path class="c" d="M208.047,99.29a.11.11,0,0,1-.054.016c-.033,0-.057-.034-.071-.065-.077-.166-.032-.382-.15-.521a1.782,1.782,0,0,0-.286.479l-.448-.14a.665.665,0,0,0,.084.514.679.679,0,0,0-.211.144.234.234,0,0,0-.055.237,1.146,1.146,0,0,0,.317.032,2.065,2.065,0,0,0,.034.589.083.083,0,0,0,.148.057,1.043,1.043,0,0,0,.37-.392l.166.4a.176.176,0,0,0,.075.1.119.119,0,0,0,.14-.048.341.341,0,0,0,.049-.152l.063-.379a.07.07,0,0,1,.087-.072c.158,0,.316-.006.475-.006.027-.084-.057-.162-.138-.2s-.177-.062-.218-.141c-.082-.16.131-.383.041-.521C208.357,99.062,208.184,99.222,208.047,99.29Z" transform="translate(-192.993 -93.695)"/><path class="d" d="M362.522,168.573a.054.054,0,0,1-.028.008c-.019,0-.031-.018-.039-.034-.041-.092-.017-.2-.079-.277a.969.969,0,0,0-.152.254l-.238-.074a.361.361,0,0,0,.045.277.346.346,0,0,0-.112.076.124.124,0,0,0-.03.126.609.609,0,0,0,.168.018,1.11,1.11,0,0,0,.018.312.055.055,0,0,0,.02.04.057.057,0,0,0,.058-.009.565.565,0,0,0,.2-.208l.092.212a.093.093,0,0,0,.039.053.064.064,0,0,0,.075-.025.185.185,0,0,0,.026-.08l.033-.2a.052.052,0,0,1,.011-.029.045.045,0,0,1,.035-.01h.252c.014-.044-.031-.086-.074-.1a.213.213,0,0,1-.116-.075c-.043-.085.07-.2.022-.277S362.595,168.536,362.522,168.573Z" transform="translate(-333.701 -156.816)"/><path class="d" d="M295.842,207.064a.074.074,0,0,1-.028.008.052.052,0,0,1-.038-.035c-.041-.088-.018-.2-.08-.277a.956.956,0,0,0-.152.254l-.238-.074a.354.354,0,0,0,.044.273.388.388,0,0,0-.112.077.124.124,0,0,0-.03.126.574.574,0,0,0,.168.017,1.111,1.111,0,0,0,.018.313.057.057,0,0,0,.02.04c.018.011.041,0,.058-.009a.564.564,0,0,0,.2-.208l.092.212a.092.092,0,0,0,.039.053.065.065,0,0,0,.075-.026.185.185,0,0,0,.026-.08l.033-.2a.049.049,0,0,1,.011-.028.048.048,0,0,1,.035-.01h.252c.014-.044-.031-.086-.073-.105s-.092-.032-.116-.075c-.044-.085.069-.2.021-.277S295.915,207.027,295.842,207.064Z" transform="translate(-273.185 -191.748)"/><path class="b" d="M231.317,72.324a.069.069,0,0,1-.028.008.052.052,0,0,1-.038-.035c-.041-.092-.018-.2-.079-.277a.908.908,0,0,0-.152.254l-.239-.074a.35.35,0,0,0,.045.277.381.381,0,0,0-.113.077.123.123,0,0,0-.029.126.569.569,0,0,0,.168.017,1.108,1.108,0,0,0,.018.313.057.057,0,0,0,.02.04c.018.011.041,0,.058-.009a.555.555,0,0,0,.2-.208l.092.212a.092.092,0,0,0,.04.053.064.064,0,0,0,.074-.026.185.185,0,0,0,.026-.08l.033-.2a.047.047,0,0,1,.011-.028.048.048,0,0,1,.035-.01h.252c.015-.044-.03-.086-.073-.105s-.092-.032-.116-.075c-.044-.085.069-.2.021-.277S231.391,72.287,231.317,72.324Z" transform="translate(-214.625 -69.463)"/><path class="b" d="M265.66,148.253a.054.054,0,0,1-.029.008c-.018,0-.03-.018-.038-.034-.041-.088-.018-.2-.079-.277a.932.932,0,0,0-.152.254l-.238-.074a.358.358,0,0,0,.045.277.37.37,0,0,0-.112.077.123.123,0,0,0-.03.126.572.572,0,0,0,.168.017,1.111,1.111,0,0,0,.018.313.062.062,0,0,0,.02.04c.018.011.041,0,.058-.01a.547.547,0,0,0,.2-.207l.092.212a.1.1,0,0,0,.04.053.063.063,0,0,0,.074-.026.185.185,0,0,0,.027-.08l.033-.2a.042.042,0,0,1,.011-.028.045.045,0,0,1,.035-.01h.251c.015-.044-.03-.086-.073-.105s-.092-.033-.116-.075c-.043-.085.07-.2.021-.277S265.733,148.217,265.66,148.253Z" transform="translate(-245.793 -138.374)"/><path class="b" d="M240.73,118.653a.051.051,0,0,1-.028.008c-.018,0-.031-.018-.038-.034-.041-.088-.018-.2-.08-.277a.955.955,0,0,0-.152.254l-.238-.074a.354.354,0,0,0,.044.277.388.388,0,0,0-.112.077.123.123,0,0,0-.03.126.576.576,0,0,0,.168.017,1.109,1.109,0,0,0,.018.313.057.057,0,0,0,.02.04c.018.011.041,0,.058-.01a.548.548,0,0,0,.2-.207l.092.212a.092.092,0,0,0,.039.053.065.065,0,0,0,.075-.026.185.185,0,0,0,.026-.08l.033-.2a.047.047,0,0,1,.011-.028.048.048,0,0,1,.035-.01h.252c.014-.044-.03-.086-.073-.105s-.092-.033-.116-.075c-.044-.085.069-.2.021-.277S240.8,118.617,240.73,118.653Z" transform="translate(-223.167 -111.51)"/><path class="b" d="M347.79,125.623a.053.053,0,0,1-.028.008c-.018,0-.03-.018-.039-.034-.04-.088-.017-.2-.079-.277a.953.953,0,0,0-.152.254l-.238-.074a.354.354,0,0,0,.044.273.349.349,0,0,0-.112.077.123.123,0,0,0-.03.126.608.608,0,0,0,.168.017,1.112,1.112,0,0,0,.018.313.058.058,0,0,0,.02.04c.018.011.041,0,.058-.01a.562.562,0,0,0,.2-.207l.092.211a.093.093,0,0,0,.039.054.065.065,0,0,0,.075-.026.185.185,0,0,0,.026-.08l.033-.2a.052.052,0,0,1,.011-.029.049.049,0,0,1,.035-.009h.252c.014-.044-.03-.086-.073-.105s-.092-.033-.116-.075c-.044-.085.069-.2.021-.277S347.864,125.587,347.79,125.623Z" transform="translate(-320.331 -117.836)"/><path class="d" d="M295.841,119.8a.051.051,0,0,1-.028.008c-.019,0-.03-.018-.038-.034-.041-.092-.018-.2-.08-.277a.985.985,0,0,0-.152.254l-.238-.074a.356.356,0,0,0,.044.277.37.37,0,0,0-.112.076.125.125,0,0,0-.03.127.647.647,0,0,0,.168.017,1.108,1.108,0,0,0,.019.312.054.054,0,0,0,.02.04c.018.012.041,0,.058-.009a.555.555,0,0,0,.2-.208l.092.212a.092.092,0,0,0,.039.053.063.063,0,0,0,.075-.025.185.185,0,0,0,.026-.08l.033-.2a.052.052,0,0,1,.011-.029.058.058,0,0,1,.035-.01h.252c.014-.044-.03-.086-.073-.1a.216.216,0,0,1-.116-.075c-.044-.085.069-.2.021-.277S295.915,119.767,295.841,119.8Z" transform="translate(-273.184 -112.554)"/><path class="e" d="M279.541,126.893a.054.054,0,0,1-.028.008c-.019,0-.031-.018-.039-.034-.041-.092-.017-.2-.079-.277a.983.983,0,0,0-.152.254l-.238-.073a.358.358,0,0,0,.045.273.362.362,0,0,0-.112.076.125.125,0,0,0-.03.127.646.646,0,0,0,.168.017,1.113,1.113,0,0,0,.019.313.057.057,0,0,0,.02.04c.018.011.041,0,.058-.01a.555.555,0,0,0,.2-.208l.092.212a.092.092,0,0,0,.039.054.065.065,0,0,0,.075-.026.185.185,0,0,0,.026-.08l.033-.2a.052.052,0,0,1,.011-.029.055.055,0,0,1,.035-.01h.252c.014-.045-.031-.087-.073-.105a.217.217,0,0,1-.116-.075c-.044-.085.069-.2.021-.277S279.615,126.857,279.541,126.893Z" transform="translate(-258.39 -118.989)"/><path class="d" d="M264.351,84.023a.054.054,0,0,1-.029.008c-.018,0-.03-.018-.038-.034-.041-.092-.018-.2-.079-.277a.941.941,0,0,0-.152.253l-.238-.073a.35.35,0,0,0,.045.277.377.377,0,0,0-.113.076.127.127,0,0,0-.029.127.606.606,0,0,0,.168.017,1.113,1.113,0,0,0,.018.313.057.057,0,0,0,.02.04c.018.011.041,0,.058-.01a.543.543,0,0,0,.2-.208l.092.212a.1.1,0,0,0,.04.054.063.063,0,0,0,.075-.034.184.184,0,0,0,.027-.08l.032-.2a.052.052,0,0,1,.011-.029.058.058,0,0,1,.035-.01h.252c.015-.045-.03-.087-.073-.105a.213.213,0,0,1-.116-.075c-.043-.085.069-.2.021-.277S264.424,83.983,264.351,84.023Z" transform="translate(-244.605 -80.081)"/><path class="e" d="M294.282,140.014a.064.064,0,0,1-.029.008c-.018,0-.031-.018-.038-.035-.041-.088-.018-.2-.079-.277a.945.945,0,0,0-.152.254l-.239-.074a.352.352,0,0,0,.045.277.362.362,0,0,0-.113.076.126.126,0,0,0-.029.126.6.6,0,0,0,.168.018,1.111,1.111,0,0,0,.018.312.062.062,0,0,0,.02.04.057.057,0,0,0,.058-.009.554.554,0,0,0,.2-.208l.092.212a.093.093,0,0,0,.04.053.064.064,0,0,0,.074-.025.185.185,0,0,0,.027-.08l.033-.2a.038.038,0,0,1,.046-.039h.251c.015-.044-.03-.086-.073-.1a.213.213,0,0,1-.116-.075c-.043-.085.069-.2.021-.277S294.355,139.973,294.282,140.014Z" transform="translate(-271.769 -130.896)"/><g class="f" transform="translate(64.17 22.945)"><ellipse class="g" cx="1.663" cy="2.177" rx="1.663" ry="2.177" transform="translate(6.34 44.892)"/><path class="g" d="M822.739,666.558a2.618,2.618,0,0,0,.348-1.33,1.725,1.725,0,1,0-3.328,0,2.627,2.627,0,0,0,.35,1.33,2.722,2.722,0,0,0,0,2.661,2.72,2.72,0,0,0,0,2.66,2.631,2.631,0,0,0-.347,1.331,1.724,1.724,0,1,0,3.328,0,2.623,2.623,0,0,0-.35-1.328,2.719,2.719,0,0,0,0-2.66A2.722,2.722,0,0,0,822.739,666.558Z" transform="translate(-813.423 -628.806)"/><ellipse class="g" cx="1.663" cy="2.177" rx="1.663" ry="2.177" transform="translate(6.34 31.587)"/><ellipse class="g" cx="1.663" cy="2.177" rx="1.663" ry="2.177" transform="translate(6.34 28.926)"/><path class="c" d="M765.437,305.479a7.873,7.873,0,0,0,.619-.912l-4.37-.717,4.726.035a7.982,7.982,0,0,0,.152-6.312l-6.341,3.29,5.847-4.3a7.967,7.967,0,1,0-13.157,8.916,7.992,7.992,0,0,0-.909,1.452l5.673,2.947-6.048-2.034a7.97,7.97,0,0,0,1.284,7.481,7.966,7.966,0,1,0,12.523,0,7.967,7.967,0,0,0,0-9.85Z" transform="translate(-751.208 -292.586)"/><path class="h" d="M751.219,484.2a7.932,7.932,0,0,0,1.7,4.925,7.966,7.966,0,1,0,12.523,0C766.514,487.771,751.219,483.3,751.219,484.2Z" transform="translate(-751.218 -466.38)"/></g><g class="f" transform="translate(7.249 22.945)"><ellipse class="g" cx="1.663" cy="2.177" rx="1.663" ry="2.177" transform="translate(6.267 44.892)"/><path class="g" d="M206.189,666.558a2.626,2.626,0,0,0,.348-1.33,1.724,1.724,0,1,0-3.328,0,2.617,2.617,0,0,0,.35,1.33,2.722,2.722,0,0,0,0,2.661,2.719,2.719,0,0,0,0,2.66,2.623,2.623,0,0,0-.348,1.331,1.724,1.724,0,1,0,3.328,0,2.632,2.632,0,0,0-.348-1.331,2.719,2.719,0,0,0,0-2.66,2.722,2.722,0,0,0,0-2.661Z" transform="translate(-196.943 -628.806)"/><ellipse class="g" cx="1.663" cy="2.177" rx="1.663" ry="2.177" transform="translate(6.267 31.587)"/><ellipse class="g" cx="1.663" cy="2.177" rx="1.663" ry="2.177" transform="translate(6.267 28.926)"/><path class="c" d="M137.123,305.479a7.867,7.867,0,0,1-.619-.912l4.37-.717-4.726.035a7.982,7.982,0,0,1-.153-6.312l6.341,3.29-5.848-4.3a7.967,7.967,0,1,1,13.157,8.916,7.994,7.994,0,0,1,.909,1.452l-5.673,2.947,6.048-2.034a7.97,7.97,0,0,1-1.284,7.481,7.966,7.966,0,1,1-12.523,0,7.967,7.967,0,0,1,0-9.85Z" transform="translate(-135.419 -292.586)"/><path class="h" d="M151.351,484.2a7.932,7.932,0,0,1-1.7,4.925,7.966,7.966,0,1,1-12.523,0C136.056,487.771,151.351,483.3,151.351,484.2Z" transform="translate(-135.419 -466.38)"/></g><g class="f" transform="translate(33.972 22.95)"><ellipse class="g" cx="1.663" cy="2.177" rx="1.663" ry="2.177" transform="translate(6.267 44.887)"/><path class="g" d="M495.28,666.558a2.626,2.626,0,0,0,.347-1.33,1.725,1.725,0,1,0-3.328,0,2.618,2.618,0,0,0,.349,1.33,2.722,2.722,0,0,0,0,2.661,2.719,2.719,0,0,0,0,2.66,2.622,2.622,0,0,0-.348,1.331,1.724,1.724,0,1,0,3.328,0,2.631,2.631,0,0,0-.347-1.331,2.725,2.725,0,0,0,0-2.66,2.727,2.727,0,0,0,0-2.661Z" transform="translate(-486.034 -628.81)"/><ellipse class="g" cx="1.663" cy="2.177" rx="1.663" ry="2.177" transform="translate(6.267 31.582)"/><ellipse class="g" cx="1.663" cy="2.177" rx="1.663" ry="2.177" transform="translate(6.267 28.922)"/><path class="c" d="M426.227,305.523a7.867,7.867,0,0,1-.619-.912l4.369-.717-4.725.035a7.982,7.982,0,0,1-.153-6.312l6.341,3.29-5.848-4.3a7.967,7.967,0,1,1,13.158,8.916,7.938,7.938,0,0,1,.908,1.452l-5.676,2.947,6.048-2.034a7.97,7.97,0,0,1-1.284,7.481,7.966,7.966,0,1,1-12.523,0,7.967,7.967,0,0,1,0-9.85Z" transform="translate(-424.519 -292.634)"/><path class="h" d="M440.451,484.2a7.933,7.933,0,0,1-1.7,4.925,7.966,7.966,0,1,1-12.523,0C425.156,487.771,440.451,483.3,440.451,484.2Z" transform="translate(-424.519 -466.385)"/></g><g class="i" transform="translate(44.145 11.37)"><path class="b" d="M577.232,183.584a.185.185,0,0,0-.3.214c.034.052.072.1.108.15a5.945,5.945,0,0,1,.852,2,.949.949,0,0,1,.039.528,3.291,3.291,0,0,0-.092-1.377,8.584,8.584,0,0,0-.487-1.3A1.152,1.152,0,0,0,577.232,183.584Z" transform="translate(-572.99 -182.022)"/><path class="c" d="M547.649,197.589a.23.23,0,0,0-.039.458c.077.006.154.008.227.01a7.046,7.046,0,0,1,2.558.7,1.093,1.093,0,0,1,.527.37,3.842,3.842,0,0,0-1.364-.967,10.1,10.1,0,0,0-1.61-.52A1.376,1.376,0,0,0,547.649,197.589Z" transform="translate(-546.224 -194.794)"/><path class="d" d="M549.707,209.388c-.185.006-.143.27.043.271h.143a5.235,5.235,0,0,1,1.706.305.868.868,0,0,1,.383.193,3.078,3.078,0,0,0-1-.512,7.611,7.611,0,0,0-1.083-.242A1.045,1.045,0,0,0,549.707,209.388Z" transform="translate(-548.2 -205.503)"/><path class="b" d="M591.019,238.705c.053.177.3.072.252-.109-.012-.047-.026-.092-.04-.138a5.272,5.272,0,0,1-.128-1.729.876.876,0,0,1,.092-.42,3.09,3.09,0,0,0-.251,1.093,7.676,7.676,0,0,0,.038,1.109A1.06,1.06,0,0,0,591.019,238.705Z" transform="translate(-585.729 -229.936)"/><path class="d" d="M553.663,181.574c-.112-.019-.12.143-.009.167l.086.017a3.209,3.209,0,0,1,.981.4.531.531,0,0,1,.2.164,1.871,1.871,0,0,0-.531-.432,4.686,4.686,0,0,0-.617-.277A.7.7,0,0,0,553.663,181.574Z" transform="translate(-551.819 -180.259)"/><path class="c" d="M534.7,222.588c-.282.145-.043.544.247.412.076-.035.15-.074.22-.11a8.518,8.518,0,0,1,2.851-.739,1.4,1.4,0,0,1,.724.037,4.9,4.9,0,0,0-1.888-.113,12.326,12.326,0,0,0-1.842.4A1.643,1.643,0,0,0,534.7,222.588Z" transform="translate(-534.575 -216.977)"/><path class="b" d="M544.028,230.393c-.2.185.114.412.326.231.055-.048.109-.1.159-.145a8.561,8.561,0,0,1,2.249-1.375A5.539,5.539,0,0,1,548,228.92a9.55,9.55,0,0,0-2.265.462,12.557,12.557,0,0,0-1.479.832A1.576,1.576,0,0,0,544.028,230.393Z" transform="translate(-543.095 -223.229)"/><path class="c" d="M560.26,237.555c-.059.271.328.277.4,0,.018-.07.034-.141.049-.21a8.5,8.5,0,0,1,1.069-2.409,5.066,5.066,0,0,1,.917-.856,9.341,9.341,0,0,0-1.6,1.67,12.6,12.6,0,0,0-.74,1.521A1.657,1.657,0,0,0,560.26,237.555Z" transform="translate(-557.88 -227.913)"/><path class="c" d="M587.6,167.486c-.139-.282-.533-.05-.408.239.032.075.069.149.1.22a8.523,8.523,0,0,1,.681,2.835,1.39,1.39,0,0,1-.048.716,4.9,4.9,0,0,0,.14-1.869,12.382,12.382,0,0,0-.36-1.832,1.647,1.647,0,0,0-.11-.31Z" transform="translate(-582.305 -167.358)"/><path class="c" d="M564.689,171.4a.042.042,0,0,0,.023.006.041.041,0,0,0,.032-.029c.035-.076.015-.173.068-.236a.807.807,0,0,1,.128.216l.2-.063a.3.3,0,0,1-.039.232.314.314,0,0,1,.092.065.106.106,0,0,1,.024.107.493.493,0,0,1-.143.015.921.921,0,0,1-.015.266.051.051,0,0,1-.018.034A.048.048,0,0,1,565,172a.471.471,0,0,1-.167-.177l-.075.179a.081.081,0,0,1-.034.045.054.054,0,0,1-.063-.021.165.165,0,0,1-.022-.068l-.029-.172a.04.04,0,0,0-.009-.024.042.042,0,0,0-.03-.008h-.214c-.013-.038.025-.073.062-.092s.08-.029.1-.064c.038-.073-.059-.174-.018-.236S564.629,171.366,564.689,171.4Z" transform="translate(-561.6 -170.79)"/><path class="b" d="M603.163,183.5a.185.185,0,0,1,.3.214c-.035.052-.072.1-.108.15a5.924,5.924,0,0,0-.852,2,.949.949,0,0,0-.04.528,3.291,3.291,0,0,1,.092-1.377,8.481,8.481,0,0,1,.487-1.3A1.147,1.147,0,0,1,603.163,183.5Z" transform="translate(-596.158 -181.935)"/><path class="c" d="M608.683,197.589a.23.23,0,0,1,.038.458c-.076.006-.154.008-.227.01a7.051,7.051,0,0,0-2.559.7,1.094,1.094,0,0,0-.526.37,3.841,3.841,0,0,1,1.364-.967,10.122,10.122,0,0,1,1.609-.52A1.4,1.4,0,0,1,608.683,197.589Z" transform="translate(-598.862 -194.794)"/><path class="b" d="M617.647,209.39c.185.006.142.27-.044.271h-.143a5.234,5.234,0,0,0-1.706.305.864.864,0,0,0-.384.193,3.069,3.069,0,0,1,1-.512,7.612,7.612,0,0,1,1.085-.238A1.049,1.049,0,0,1,617.647,209.39Z" transform="translate(-607.902 -205.505)"/><path class="d" d="M623.912,181.574c.112-.019.12.143.009.167l-.087.017a3.2,3.2,0,0,0-.98.4.531.531,0,0,0-.2.164,1.866,1.866,0,0,1,.53-.432,4.762,4.762,0,0,1,.618-.277A.672.672,0,0,1,623.912,181.574Z" transform="translate(-614.509 -180.259)"/><path class="d" d="M603.022,251.6c-.025.11-.177.055-.157-.056a.385.385,0,0,1,.018-.086,3.223,3.223,0,0,0,.01-1.058.534.534,0,0,0-.073-.251,1.863,1.863,0,0,1,.194.655,4.752,4.752,0,0,1,.021.678A.576.576,0,0,1,603.022,251.6Z" transform="translate(-596.512 -242.497)"/><path class="b" d="M618.894,240.878c.087.147-.127.137-.22-.01-.025-.039-.047-.078-.069-.115a7.919,7.919,0,0,0-1.073-1.326,1.487,1.487,0,0,0-.332-.288,5.3,5.3,0,0,1,.872.745c.261.277.49.555.715.839A1.384,1.384,0,0,1,618.894,240.878Z" transform="translate(-609.563 -232.505)"/><path class="d" d="M551.69,240.878c-.087.147.127.137.221-.01.024-.039.047-.078.068-.115a7.916,7.916,0,0,1,1.073-1.326,1.491,1.491,0,0,1,.333-.287,5.3,5.3,0,0,0-.873.745c-.26.277-.49.555-.715.839A1.382,1.382,0,0,0,551.69,240.878Z" transform="translate(-550.09 -232.505)"/><path class="d" d="M582.31,251.6c.025.11.177.055.158-.056-.005-.03-.012-.058-.018-.086a3.2,3.2,0,0,1-.01-1.058.523.523,0,0,1,.072-.251,1.865,1.865,0,0,0-.194.655,4.621,4.621,0,0,0-.02.678A.643.643,0,0,0,582.31,251.6Z" transform="translate(-577.882 -242.497)"/><path class="d" d="M614.273,193.544c.111-.019.119.142.008.167-.029.006-.058.011-.086.016a3.189,3.189,0,0,0-.981.4.539.539,0,0,0-.2.164,1.876,1.876,0,0,1,.531-.433,4.694,4.694,0,0,1,.617-.277.606.606,0,0,1,.115-.036Z" transform="translate(-605.76 -191.122)"/><path class="d" d="M606.671,169.931c.092-.06.164.087.071.152l-.074.047a3.24,3.24,0,0,0-.761.739.523.523,0,0,0-.128.229,1.877,1.877,0,0,1,.33-.6,4.708,4.708,0,0,1,.468-.491A.585.585,0,0,1,606.671,169.931Z" transform="translate(-599.198 -169.681)"/><path class="c" d="M615.211,222.589c.282.145.043.544-.247.412-.076-.035-.15-.074-.221-.11a8.506,8.506,0,0,0-2.85-.739,1.4,1.4,0,0,0-.724.037,4.9,4.9,0,0,1,1.887-.113,12.32,12.32,0,0,1,1.843.4A1.7,1.7,0,0,1,615.211,222.589Z" transform="translate(-604.09 -216.978)"/><path class="b" d="M607.126,230.393c.2.185-.114.412-.326.231-.055-.048-.109-.1-.16-.145a8.546,8.546,0,0,0-2.249-1.375,5.57,5.57,0,0,0-1.241-.185,9.543,9.543,0,0,1,2.264.462,12.508,12.508,0,0,1,1.479.832A1.576,1.576,0,0,1,607.126,230.393Z" transform="translate(-596.811 -223.229)"/><path class="c" d="M600.86,238.2c.025.277-.36.232-.4-.045-.009-.073-.016-.145-.022-.214a8.545,8.545,0,0,0-.759-2.524,5.246,5.246,0,0,0-.8-.964,9.318,9.318,0,0,1,1.375,1.858,12.586,12.586,0,0,1,.547,1.6A1.567,1.567,0,0,1,600.86,238.2Z" transform="translate(-592.936 -228.248)"/><path class="c" d="M617.5,171.4a.044.044,0,0,1-.024.006.043.043,0,0,1-.032-.029c-.034-.076-.015-.173-.068-.236a.813.813,0,0,0-.129.216l-.2-.063a.3.3,0,0,0,.039.232.316.316,0,0,0-.092.065.106.106,0,0,0-.025.107.5.5,0,0,0,.143.015.955.955,0,0,0,.016.266.051.051,0,0,0,.018.034.048.048,0,0,0,.049-.008.471.471,0,0,0,.167-.177l.075.179a.084.084,0,0,0,.033.045.055.055,0,0,0,.064-.021.168.168,0,0,0,.022-.068l.029-.172a.039.039,0,0,1,.009-.024.041.041,0,0,1,.03-.008h.214c.013-.038-.026-.073-.062-.092s-.08-.029-.1-.064c-.037-.073.06-.174.018-.236S617.565,171.366,617.5,171.4Z" transform="translate(-609.348 -170.79)"/><path class="d" d="M624.112,261.728a.058.058,0,0,1-.024.007c-.016,0-.026-.016-.032-.03-.034-.075-.015-.173-.067-.236a.785.785,0,0,0-.129.216l-.2-.063a.3.3,0,0,0,.038.232.309.309,0,0,0-.092.066.105.105,0,0,0-.025.107.533.533,0,0,0,.143.014.955.955,0,0,0,.015.266.052.052,0,0,0,.018.034c.015.009.034,0,.05-.008a.47.47,0,0,0,.166-.177l.076.179a.077.077,0,0,0,.033.045.054.054,0,0,0,.063-.021.164.164,0,0,0,.023-.068l.028-.172a.055.055,0,0,1,.009-.024.043.043,0,0,1,.031-.008h.214c.012-.038-.026-.073-.062-.092s-.081-.029-.1-.064c-.037-.073.059-.173.018-.236S624.175,261.7,624.112,261.728Z" transform="translate(-615.345 -252.771)"/><path class="c" d="M642.692,201.178a.059.059,0,0,1-.024.007c-.016,0-.026-.016-.032-.03-.035-.075-.015-.173-.068-.236a.809.809,0,0,0-.128.216l-.2-.063a.3.3,0,0,0,.039.232.3.3,0,0,0-.093.066.105.105,0,0,0-.025.107.531.531,0,0,0,.143.014.943.943,0,0,0,.015.266.052.052,0,0,0,.018.034.048.048,0,0,0,.049-.008.471.471,0,0,0,.167-.177l.076.179a.077.077,0,0,0,.033.045.054.054,0,0,0,.063-.021.148.148,0,0,0,.022-.068l.029-.172a.039.039,0,0,1,.009-.024.042.042,0,0,1,.03-.008h.215c.012-.038-.026-.073-.063-.092s-.079-.029-.1-.064c-.038-.073.059-.174.019-.236S642.755,201.146,642.692,201.178Z" transform="translate(-632.208 -197.818)"/><path class="c" d="M566.277,269.79a.071.071,0,0,1-.033.01c-.021,0-.036-.022-.045-.042-.048-.1-.02-.239-.092-.328a1.133,1.133,0,0,0-.179.3l-.283-.087a.42.42,0,0,0,.054.324.426.426,0,0,0-.133.092.147.147,0,0,0-.035.149.693.693,0,0,0,.2.02,1.347,1.347,0,0,0,.021.37.07.07,0,0,0,.025.048c.02.013.047,0,.068-.012a.668.668,0,0,0,.233-.246l.1.251a.11.11,0,0,0,.047.063.075.075,0,0,0,.092-.031.211.211,0,0,0,.031-.092l.039-.238a.046.046,0,0,1,.056-.046h.3c.018-.053-.036-.1-.087-.125s-.111-.039-.137-.092c-.052-.1.082-.241.025-.328C566.473,269.645,566.364,269.746,566.277,269.79Z" transform="translate(-562.661 -259.995)"/><path class="c" d="M535.361,201.99a.069.069,0,0,1-.033.009c-.021,0-.036-.021-.045-.041-.048-.1-.02-.24-.092-.328a1.131,1.131,0,0,0-.179.3l-.283-.088a.42.42,0,0,0,.054.324.461.461,0,0,0-.133.092.147.147,0,0,0-.034.15.719.719,0,0,0,.2.02,1.349,1.349,0,0,0,.021.37.068.068,0,0,0,.025.047c.02.014.047,0,.068-.011a.663.663,0,0,0,.233-.247l.1.251a.12.12,0,0,0,.047.063.077.077,0,0,0,.088-.031.215.215,0,0,0,.031-.092l.039-.239a.06.06,0,0,1,.014-.033.055.055,0,0,1,.042-.012h.3c.018-.054-.035-.1-.087-.125s-.111-.04-.137-.092c-.052-.1.082-.241.026-.328S535.449,201.946,535.361,201.99Z" transform="translate(-534.604 -198.462)"/><path class="d" d="M632.675,245.63a.03.03,0,0,1-.018.006.032.032,0,0,1-.024-.021c-.025-.056-.01-.128-.05-.175a.611.611,0,0,0-.092.16l-.151-.046a.224.224,0,0,0,.029.172.221.221,0,0,0-.07.048.078.078,0,0,0-.018.079.367.367,0,0,0,.105.01.677.677,0,0,0,.012.2.037.037,0,0,0,.013.025.035.035,0,0,0,.036-.007.345.345,0,0,0,.124-.131l.055.134a.061.061,0,0,0,.025.033.041.041,0,0,0,.047-.017.129.129,0,0,0,.015-.053l.02-.128a.025.025,0,0,1,.03-.024h.158c.009-.028-.018-.054-.045-.066s-.06-.021-.073-.047c-.028-.054.044-.128.013-.175S632.722,245.608,632.675,245.63Z" transform="translate(-623.245 -238.222)"/><path class="d" d="M590.675,269.88a.039.039,0,0,1-.018.006.032.032,0,0,1-.024-.022c-.025-.055-.01-.127-.05-.174a.6.6,0,0,0-.093.16l-.151-.046a.226.226,0,0,0,.029.172.223.223,0,0,0-.07.048.078.078,0,0,0-.018.08.37.37,0,0,0,.105.01.673.673,0,0,0,.012.2.04.04,0,0,0,.012.026c.011.007.026,0,.037-.007a.345.345,0,0,0,.124-.131l.055.134a.061.061,0,0,0,.025.033.042.042,0,0,0,.047-.017.115.115,0,0,0,.016-.05l.021-.128a.025.025,0,0,1,.009-.019.025.025,0,0,1,.02-.005h.158c.009-.028-.018-.055-.045-.066s-.06-.021-.073-.047c-.028-.054.043-.128.013-.175S590.721,269.858,590.675,269.88Z" transform="translate(-585.127 -260.231)"/><path class="b" d="M550,185.01a.042.042,0,0,1-.018.006c-.012,0-.019-.012-.024-.022-.026-.055-.011-.128-.051-.174a.584.584,0,0,0-.092.16l-.157-.051a.22.22,0,0,0,.028.172.249.249,0,0,0-.07.048.079.079,0,0,0-.018.08.408.408,0,0,0,.106.011.7.7,0,0,0,.011.2.035.035,0,0,0,.013.025c.011.007.025,0,.036-.006a.351.351,0,0,0,.124-.131l.055.133a.057.057,0,0,0,.025.033.039.039,0,0,0,.047-.016.122.122,0,0,0,.017-.051l.02-.127a.033.033,0,0,1,.007-.018.029.029,0,0,1,.022-.006h.159c.008-.029-.019-.055-.046-.067s-.059-.02-.073-.047c-.028-.054.043-.128.014-.174S550.046,184.987,550,185.01Z" transform="translate(-548.209 -183.206)"/><path class="b" d="M571.667,232.786a.03.03,0,0,1-.018,0c-.011,0-.019-.011-.024-.021-.026-.055-.011-.128-.05-.175a.583.583,0,0,0-.093.161l-.15-.047a.221.221,0,0,0,.029.172.236.236,0,0,0-.071.048.08.08,0,0,0-.019.079.413.413,0,0,0,.106.011.7.7,0,0,0,.011.2.037.037,0,0,0,.013.025c.011.007.026,0,.037-.006a.349.349,0,0,0,.123-.131l.056.133a.058.058,0,0,0,.025.033.041.041,0,0,0,.046-.016.108.108,0,0,0,.017-.051l.021-.127a.033.033,0,0,1,.006-.018.037.037,0,0,1,.022-.006h.159c.009-.029-.019-.055-.046-.067s-.059-.02-.073-.047c-.027-.054.044-.129.014-.175S571.714,232.763,571.667,232.786Z" transform="translate(-567.877 -226.56)"/><path class="b" d="M555.967,214.19a.039.039,0,0,1-.018.006.032.032,0,0,1-.024-.022c-.026-.055-.011-.128-.05-.174a.579.579,0,0,0-.092.16l-.15-.046a.222.222,0,0,0,.029.172.236.236,0,0,0-.071.048.08.08,0,0,0-.018.08.371.371,0,0,0,.106.01.706.706,0,0,0,.011.2.037.037,0,0,0,.013.026c.011.006.026,0,.037-.006a.343.343,0,0,0,.123-.131l.056.134a.061.061,0,0,0,.025.033.04.04,0,0,0,.046-.017.119.119,0,0,0,.017-.051l.021-.127a.031.031,0,0,1,.007-.018.032.032,0,0,1,.022-.006h.159c.009-.028-.019-.055-.046-.066s-.059-.021-.073-.047c-.028-.054.044-.128.014-.175S556.014,214.167,555.967,214.19Z" transform="translate(-553.628 -209.689)"/><path class="b" d="M623.4,218.58a.043.043,0,0,1-.018.006.031.031,0,0,1-.024-.022c-.026-.055-.011-.127-.051-.174a.593.593,0,0,0-.092.16l-.15-.046a.222.222,0,0,0,.028.172.234.234,0,0,0-.07.048.078.078,0,0,0-.018.079.368.368,0,0,0,.106.01.7.7,0,0,0,.011.2.037.037,0,0,0,.013.026c.011.006.025,0,.036-.007a.343.343,0,0,0,.124-.131l.056.134a.061.061,0,0,0,.025.033.041.041,0,0,0,.047-.017.118.118,0,0,0,.017-.051l.02-.127a.025.025,0,0,1,.03-.024h.159c.008-.028-.019-.055-.046-.066s-.059-.021-.073-.047c-.028-.054.043-.129.014-.175S623.442,218.557,623.4,218.58Z" transform="translate(-614.823 -213.673)"/><path class="d" d="M590.675,214.91a.03.03,0,0,1-.018.006.032.032,0,0,1-.024-.021c-.025-.055-.01-.128-.05-.175a.612.612,0,0,0-.092.16l-.151-.046a.225.225,0,0,0,.029.172.221.221,0,0,0-.07.048.077.077,0,0,0-.018.079.368.368,0,0,0,.105.01.673.673,0,0,0,.012.2.039.039,0,0,0,.012.025.037.037,0,0,0,.037-.007.344.344,0,0,0,.124-.131l.055.134a.061.061,0,0,0,.025.033.042.042,0,0,0,.047-.017.114.114,0,0,0,.016-.05l.021-.128a.025.025,0,0,1,.009-.019.025.025,0,0,1,.02-.005h.158c.009-.028-.019-.054-.045-.066s-.06-.021-.073-.047c-.028-.054.044-.128.013-.175S590.721,214.888,590.675,214.91Z" transform="translate(-585.127 -210.342)"/><path class="e" d="M580.406,219.38a.047.047,0,0,1-.019.006c-.011,0-.018-.012-.024-.022-.025-.055-.01-.128-.05-.174a.6.6,0,0,0-.092.16l-.151-.046a.226.226,0,0,0,.029.172.217.217,0,0,0-.07.048.077.077,0,0,0-.018.079.369.369,0,0,0,.105.01.7.7,0,0,0,.012.2.033.033,0,0,0,.013.025c.011.007.025,0,.036-.006a.35.35,0,0,0,.124-.131l.056.133a.06.06,0,0,0,.025.034.041.041,0,0,0,.047-.017.138.138,0,0,0,.017-.051l.02-.127a.025.025,0,0,1,.009-.019.025.025,0,0,1,.02-.005h.159c.008-.028-.019-.055-.046-.067s-.059-.02-.073-.046c-.028-.055.043-.128.013-.175S580.452,219.357,580.406,219.38Z" transform="translate(-575.807 -214.399)"/><path class="d" d="M570.835,192.341a.03.03,0,0,1-.018,0c-.011,0-.019-.011-.024-.021-.025-.055-.01-.128-.05-.175a.611.611,0,0,0-.092.16l-.151-.046a.225.225,0,0,0,.029.172.221.221,0,0,0-.07.048.077.077,0,0,0-.018.079.4.4,0,0,0,.105.011.669.669,0,0,0,.012.2.04.04,0,0,0,.012.025c.011.007.026,0,.037-.007a.342.342,0,0,0,.124-.13l.055.133a.061.061,0,0,0,.025.033.043.043,0,0,0,.047-.016.122.122,0,0,0,.016-.051l.021-.127a.033.033,0,0,1,.007-.018.035.035,0,0,1,.022-.007h.158c.009-.029-.019-.055-.045-.067s-.06-.021-.073-.047c-.028-.054.043-.128.013-.175S570.881,192.321,570.835,192.341Z" transform="translate(-567.121 -189.858)"/><path class="e" d="M589.686,227.621a.027.027,0,0,1-.025,0,.027.027,0,0,1-.016-.02c-.026-.055-.011-.128-.051-.175a.61.61,0,0,0-.092.16l-.15-.046a.224.224,0,0,0,.028.172.243.243,0,0,0-.07.048.078.078,0,0,0-.018.079.37.37,0,0,0,.106.01.705.705,0,0,0,.011.2.036.036,0,0,0,.013.025.035.035,0,0,0,.036-.006.349.349,0,0,0,.124-.13l.055.133a.062.062,0,0,0,.025.033.041.041,0,0,0,.047-.017.115.115,0,0,0,.014-.052l.02-.128a.037.037,0,0,1,.007-.018.03.03,0,0,1,.022-.006h.159c.009-.028-.019-.054-.046-.066s-.059-.021-.073-.047c-.028-.054.044-.128.014-.175S589.732,227.6,589.686,227.621Z" transform="translate(-584.229 -221.877)"/></g><g class="j" transform="translate(66.145 1.083)"><path class="b" d="M840.4,81.812a.294.294,0,0,0-.479.341c.055.083.115.163.172.239a9.473,9.473,0,0,1,1.356,3.184,1.5,1.5,0,0,1,.063.839,5.231,5.231,0,0,0-.143-2.192,13.362,13.362,0,0,0-.776-2.072A1.87,1.87,0,0,0,840.4,81.812Z" transform="translate(-833.645 -79.323)"/><path class="c" d="M793.415,104.188a.366.366,0,0,0-.061.729c.122.009.244.012.361.016a11.276,11.276,0,0,1,4.072,1.109,1.776,1.776,0,0,1,.838.582,6.128,6.128,0,0,0-2.172-1.539,16.424,16.424,0,0,0-2.562-.832A2.178,2.178,0,0,0,793.415,104.188Z" transform="translate(-791.144 -99.74)"/><path class="d" d="M796.666,122.994c-.294.01-.227.429.068.431.078,0,.155,0,.229-.006a8.344,8.344,0,0,1,2.715.484,1.393,1.393,0,0,1,.611.308,4.891,4.891,0,0,0-1.587-.814,12.184,12.184,0,0,0-1.727-.38A1.51,1.51,0,0,0,796.666,122.994Z" transform="translate(-794.267 -116.807)"/><path class="b" d="M862.454,169.641c.083.283.471.115.4-.173-.018-.075-.041-.149-.062-.22a8.349,8.349,0,0,1-.2-2.751,1.4,1.4,0,0,1,.146-.667,4.895,4.895,0,0,0-.395,1.739,12.134,12.134,0,0,0,.06,1.768A1.55,1.55,0,0,0,862.454,169.641Z" transform="translate(-854.033 -155.684)"/><path class="d" d="M802.96,78.705c-.177-.03-.19.227-.014.266.046.01.092.018.138.026a5.1,5.1,0,0,1,1.559.634.857.857,0,0,1,.326.262,3,3,0,0,0-.845-.689,7.566,7.566,0,0,0-.983-.446,1.026,1.026,0,0,0-.182-.053Z" transform="translate(-800.024 -76.611)"/><path class="c" d="M772.776,144c-.449.231-.069.866.392.655.121-.055.239-.117.351-.176a13.59,13.59,0,0,1,4.538-1.177,2.225,2.225,0,0,1,1.152.06,7.814,7.814,0,0,0-3-.185,19.493,19.493,0,0,0-2.933.631A2.61,2.61,0,0,0,772.776,144Z" transform="translate(-772.575 -135.073)"/><path class="b" d="M787.624,156.438c-.324.3.185.657.519.37.092-.076.173-.156.254-.232a13.6,13.6,0,0,1,3.579-2.187,8.336,8.336,0,0,1,1.975-.292,15.169,15.169,0,0,0-3.605.739,19.864,19.864,0,0,0-2.35,1.319A2.487,2.487,0,0,0,787.624,156.438Z" transform="translate(-786.139 -145.036)"/><path class="c" d="M813.467,167.856c-.093.431.522.437.637.006.03-.113.054-.226.077-.335a13.615,13.615,0,0,1,1.7-3.834,8.343,8.343,0,0,1,1.46-1.363,14.821,14.821,0,0,0-2.543,2.66,20.011,20.011,0,0,0-1.184,2.421A2.467,2.467,0,0,0,813.467,167.856Z" transform="translate(-809.679 -152.508)"/><path class="c" d="M856.981,56.276c-.22-.448-.849-.079-.647.381.053.12.111.238.167.35a13.62,13.62,0,0,1,1.084,4.512,2.221,2.221,0,0,1-.077,1.141,7.812,7.812,0,0,0,.224-2.975,19.766,19.766,0,0,0-.576-2.915A2.579,2.579,0,0,0,856.981,56.276Z" transform="translate(-848.556 -56.072)"/><path class="c" d="M820.583,62.546a.081.081,0,0,0,.038.011c.024,0,.042-.025.052-.047.055-.119.023-.277.108-.37a1.282,1.282,0,0,1,.205.344l.323-.1a.482.482,0,0,1-.061.37.508.508,0,0,1,.152.1.167.167,0,0,1,.04.171.82.82,0,0,1-.227.022,1.486,1.486,0,0,1-.025.424.077.077,0,0,1-.028.054c-.023.016-.055,0-.079-.013a.751.751,0,0,1-.265-.277l-.123.275a.127.127,0,0,1-.054.071.086.086,0,0,1-.1-.034.261.261,0,0,1-.035-.109l-.045-.277a.065.065,0,0,0-.015-.039.069.069,0,0,0-.047-.014h-.342c-.019-.061.041-.117.1-.142s.128-.045.157-.1c.059-.116-.092-.277-.03-.375C820.36,62.381,820.483,62.5,820.583,62.546Z" transform="translate(-815.661 -61.579)"/><path class="b" d="M881.709,81.812a.294.294,0,0,1,.479.341c-.055.083-.115.163-.172.239a9.5,9.5,0,0,0-1.357,3.184,1.489,1.489,0,0,0-.062.839,5.231,5.231,0,0,1,.143-2.192,13.691,13.691,0,0,1,.775-2.07A1.936,1.936,0,0,1,881.709,81.812Z" transform="translate(-870.558 -79.323)"/><path class="c" d="M890.53,104.188a.366.366,0,0,1,.061.729c-.121.009-.244.012-.361.016a11.271,11.271,0,0,0-4.072,1.109,1.749,1.749,0,0,0-.838.582,6.121,6.121,0,0,1,2.172-1.539,16.423,16.423,0,0,1,2.562-.832A2.178,2.178,0,0,1,890.53,104.188Z" transform="translate(-874.898 -99.74)"/><path class="b" d="M904.723,122.993c.295.01.228.429-.067.431-.078,0-.155,0-.229-.006a8.342,8.342,0,0,0-2.715.484,1.389,1.389,0,0,0-.611.308,4.891,4.891,0,0,1,1.587-.814,12.187,12.187,0,0,1,1.731-.382A1.508,1.508,0,0,1,904.723,122.993Z" transform="translate(-889.22 -116.806)"/><path class="d" d="M914.77,78.705c.177-.03.19.227.014.266-.046.01-.092.018-.138.026a5.1,5.1,0,0,0-1.56.634.856.856,0,0,0-.326.262,2.993,2.993,0,0,1,.844-.689,7.634,7.634,0,0,1,.983-.446,1.033,1.033,0,0,1,.182-.053Z" transform="translate(-899.802 -76.611)"/><path class="d" d="M881.461,190.134c-.04.176-.283.092-.251-.092.008-.046.019-.092.03-.137a5.108,5.108,0,0,0,.016-1.683.849.849,0,0,0-.116-.4,2.985,2.985,0,0,1,.31,1.044,7.4,7.4,0,0,1,.032,1.08.921.921,0,0,1-.021.19Z" transform="translate(-871.105 -175.642)"/><path class="b" d="M906.778,173.067c.139.235-.2.219-.351-.016-.039-.061-.075-.123-.109-.185a12.662,12.662,0,0,0-1.708-2.11,2.37,2.37,0,0,0-.53-.457,8.411,8.411,0,0,1,1.387,1.186c.414.434.78.886,1.139,1.337a2.181,2.181,0,0,1,.173.245Z" transform="translate(-891.924 -159.741)"/><path class="d" d="M799.821,173.068c-.139.235.2.219.35-.016.04-.061.076-.123.11-.185a12.667,12.667,0,0,1,1.708-2.11,2.349,2.349,0,0,1,.53-.457,8.372,8.372,0,0,0-1.387,1.186c-.414.434-.781.886-1.139,1.337A2.181,2.181,0,0,0,799.821,173.068Z" transform="translate(-797.273 -159.741)"/><path class="d" d="M848.6,190.134c.04.176.283.092.251-.092-.008-.046-.02-.092-.03-.137a5.108,5.108,0,0,1-.016-1.683.851.851,0,0,1,.116-.4,2.987,2.987,0,0,0-.3,1.046,7.39,7.39,0,0,0-.032,1.08A.935.935,0,0,0,848.6,190.134Z" transform="translate(-841.551 -175.642)"/><path class="d" d="M899.429,97.754c.177-.031.19.226.014.266-.046.01-.092.018-.138.025a5.118,5.118,0,0,0-1.56.635.851.851,0,0,0-.325.261,2.98,2.98,0,0,1,.845-.688,7.33,7.33,0,0,1,.983-.446A.9.9,0,0,1,899.429,97.754Z" transform="translate(-885.88 -93.899)"/><path class="d" d="M887.33,60.171c.153-.092.262.14.112.242-.039.027-.079.051-.117.075a5.08,5.08,0,0,0-1.21,1.172.831.831,0,0,0-.2.363,2.985,2.985,0,0,1,.526-.954,7.441,7.441,0,0,1,.745-.781A.967.967,0,0,1,887.33,60.171Z" transform="translate(-875.434 -59.773)"/><path class="c" d="M900.923,144c.449.231.069.866-.392.655-.121-.055-.239-.117-.351-.176a13.594,13.594,0,0,0-4.538-1.177,2.225,2.225,0,0,0-1.152.06,7.813,7.813,0,0,1,3-.185,19.494,19.494,0,0,1,2.933.631A2.633,2.633,0,0,1,900.923,144Z" transform="translate(-883.221 -135.073)"/><path class="b" d="M888.058,156.438c.323.3-.185.657-.52.37-.088-.076-.173-.156-.253-.232a13.625,13.625,0,0,0-3.579-2.187,8.341,8.341,0,0,0-1.975-.292,15.17,15.17,0,0,1,3.605.739,19.87,19.87,0,0,1,2.351,1.319A2.489,2.489,0,0,1,888.058,156.438Z" transform="translate(-871.64 -145.036)"/><path class="c" d="M878.043,168.847c.04.439-.574.37-.633-.073-.016-.116-.025-.231-.034-.342a13.619,13.619,0,0,0-1.208-4.017,8.32,8.32,0,0,0-1.277-1.534,14.836,14.836,0,0,1,2.19,2.958,19.911,19.911,0,0,1,.871,2.549A2.55,2.55,0,0,1,878.043,168.847Z" transform="translate(-865.432 -153.007)"/><path class="c" d="M904.509,62.546a.082.082,0,0,1-.038.011c-.025,0-.042-.025-.052-.047-.055-.119-.023-.277-.108-.37a1.282,1.282,0,0,0-.205.344l-.323-.1a.478.478,0,0,0,.061.37.513.513,0,0,0-.153.1.168.168,0,0,0-.039.171.816.816,0,0,0,.227.022,1.513,1.513,0,0,0,.024.424.08.08,0,0,0,.028.054c.024.016.055,0,.08-.013a.752.752,0,0,0,.265-.277l.12.287a.123.123,0,0,0,.054.071.084.084,0,0,0,.1-.034.251.251,0,0,0,.036-.109l.044-.277a.072.072,0,0,1,.016-.039.069.069,0,0,1,.047-.014h.342c.019-.061-.042-.117-.1-.142s-.127-.045-.156-.1c-.059-.116.092-.277.029-.375C904.734,62.381,904.61,62.5,904.509,62.546Z" transform="translate(-891.529 -61.579)"/><path class="d" d="M915.05,206.28a.081.081,0,0,1-.038.011c-.025,0-.042-.024-.052-.046-.055-.12-.023-.277-.108-.375a1.3,1.3,0,0,0-.205.344l-.323-.1a.481.481,0,0,0,.061.37.506.506,0,0,0-.152.1.168.168,0,0,0-.04.171.82.82,0,0,0,.227.023,1.478,1.478,0,0,0,.025.423.078.078,0,0,0,.028.055c.023.015.055,0,.079-.014a.751.751,0,0,0,.265-.277l.12.287a.133.133,0,0,0,.054.072.092.092,0,0,0,.1-.035.262.262,0,0,0,.035-.109l.045-.273a.05.05,0,0,1,.062-.052c.114,0,.228,0,.342,0,.019-.061-.041-.116-.1-.142s-.128-.044-.157-.1c-.059-.115.092-.277.029-.374C915.278,206.116,915.15,206.231,915.05,206.28Z" transform="translate(-901.096 -192.023)"/><path class="c" d="M944.638,109.9a.073.073,0,0,1-.039.011c-.024,0-.041-.024-.051-.046-.055-.119-.024-.277-.108-.375a1.293,1.293,0,0,0-.205.345l-.323-.1a.477.477,0,0,0,.061.37.5.5,0,0,0-.152.1.172.172,0,0,0-.04.171.826.826,0,0,0,.228.023,1.511,1.511,0,0,0,.024.423.081.081,0,0,0,.028.055c.024.015.055,0,.078-.013a.757.757,0,0,0,.266-.277l.119.287a.13.13,0,0,0,.054.072.087.087,0,0,0,.1-.035.246.246,0,0,0,.036-.109l.044-.277a.072.072,0,0,1,.015-.038.067.067,0,0,1,.048-.014h.341c.02-.06-.041-.116-.1-.142s-.128-.044-.156-.1c-.059-.116.093-.277.029-.375C944.861,109.736,944.737,109.851,944.638,109.9Z" transform="translate(-927.948 -104.552)"/><path class="c" d="M823.01,219.121a.109.109,0,0,1-.053.016c-.034,0-.058-.034-.072-.066-.077-.165-.032-.382-.151-.521a1.8,1.8,0,0,0-.286.479l-.45-.139a.672.672,0,0,0,.085.515.685.685,0,0,0-.212.144.236.236,0,0,0-.055.238,1.156,1.156,0,0,0,.318.032,2.078,2.078,0,0,0,.034.591.111.111,0,0,0,.038.075.106.106,0,0,0,.11-.018,1.039,1.039,0,0,0,.37-.392l.167.4a.176.176,0,0,0,.075.1.12.12,0,0,0,.14-.048.357.357,0,0,0,.049-.152l.063-.38a.092.092,0,0,1,.02-.055.1.1,0,0,1,.066-.018c.159,0,.318-.007.476,0,.028-.085-.057-.163-.138-.2s-.177-.062-.218-.141c-.083-.161.131-.385.04-.523C823.321,218.892,823.148,219.054,823.01,219.121Z" transform="translate(-817.254 -203.531)"/><path class="c" d="M773.8,111.192a.113.113,0,0,1-.054.016c-.033,0-.057-.034-.072-.066-.076-.166-.032-.382-.15-.522a1.809,1.809,0,0,0-.287.48l-.449-.14a.37.37,0,0,1-.127.66.233.233,0,0,0-.055.238,1.149,1.149,0,0,0,.318.031,2.1,2.1,0,0,0,.033.591.108.108,0,0,0,.039.076c.033.021.076,0,.11-.019a1.045,1.045,0,0,0,.37-.392l.167.4a.185.185,0,0,0,.074.1.12.12,0,0,0,.141-.048.359.359,0,0,0,.05-.152l.062-.381a.1.1,0,0,1,.021-.054.093.093,0,0,1,.067-.018c.158,0,.317-.006.476-.006.027-.084-.057-.163-.139-.2s-.177-.063-.218-.141c-.082-.161.131-.384.041-.522C774.108,110.963,773.935,111.123,773.8,111.192Z" transform="translate(-772.589 -105.578)"/><path class="d" d="M928.722,180.663a.051.051,0,0,1-.028.008c-.018,0-.03-.018-.039-.034-.041-.092-.017-.2-.079-.277a.932.932,0,0,0-.152.254l-.239-.074a.352.352,0,0,0,.045.277.382.382,0,0,0-.113.077.126.126,0,0,0-.029.127.647.647,0,0,0,.168.017,1.082,1.082,0,0,0,.019.313.058.058,0,0,0,.02.041c.017.011.041,0,.058-.01a.556.556,0,0,0,.2-.208l.092.212a.1.1,0,0,0,.04.054.065.065,0,0,0,.075-.026.186.186,0,0,0,.026-.08l.033-.2a.037.037,0,0,1,.046-.038h.253c.015-.045-.03-.087-.073-.105a.222.222,0,0,1-.116-.075c-.043-.086.07-.2.021-.277S928.792,180.627,928.722,180.663Z" transform="translate(-913.708 -168.871)"/><path class="d" d="M861.822,219.254a.055.055,0,0,1-.029.008c-.018,0-.031-.018-.038-.035-.041-.088-.018-.2-.079-.277a.955.955,0,0,0-.152.255l-.238-.074a.352.352,0,0,0,.045.277.365.365,0,0,0-.113.077.125.125,0,0,0-.029.127.647.647,0,0,0,.169.017,1.106,1.106,0,0,0,.018.313.057.057,0,0,0,.02.04c.018.012.041,0,.058-.009a.555.555,0,0,0,.2-.208l.092.212a.1.1,0,0,0,.04.054.065.065,0,0,0,.075-.026.186.186,0,0,0,.026-.08l.033-.2a.052.052,0,0,1,.011-.029.058.058,0,0,1,.035-.01h.253c.014-.045-.03-.087-.074-.105a.212.212,0,0,1-.116-.075c-.044-.086.069-.2.021-.277S861.9,219.217,861.822,219.254Z" transform="translate(-852.992 -203.894)"/><path class="b" d="M797.124,84.163a.054.054,0,0,1-.028.008.05.05,0,0,1-.039-.034c-.041-.092-.018-.2-.079-.277a.95.95,0,0,0-.153.254l-.239-.074a.355.355,0,0,0,.045.277.361.361,0,0,0-.113.076.126.126,0,0,0-.03.127.581.581,0,0,0,.169.017,1.122,1.122,0,0,0,.018.314.058.058,0,0,0,.021.04c.018.011.04,0,.058-.009a.554.554,0,0,0,.2-.209l.092.213a.093.093,0,0,0,.04.053.065.065,0,0,0,.075-.026.185.185,0,0,0,.026-.08l.033-.2a.053.053,0,0,1,.011-.029.048.048,0,0,1,.035-.01h.253c.014-.044-.031-.086-.074-.105s-.092-.033-.116-.075c-.044-.085.07-.2.021-.277S797.2,84.127,797.124,84.163Z" transform="translate(-794.273 -81.291)"/><path class="b" d="M831.561,160.293a.049.049,0,0,1-.028.008c-.019,0-.031-.018-.038-.034-.041-.092-.018-.2-.081-.277a.97.97,0,0,0-.151.254l-.24-.074a.36.36,0,0,0,.045.277.371.371,0,0,0-.112.077.125.125,0,0,0-.03.127.608.608,0,0,0,.168.017,1.122,1.122,0,0,0,.018.314.058.058,0,0,0,.02.04c.018.011.041,0,.058-.01a.555.555,0,0,0,.2-.208l.093.212a.092.092,0,0,0,.04.054.063.063,0,0,0,.074-.026.185.185,0,0,0,.027-.08l.033-.2a.045.045,0,0,1,.012-.03.045.045,0,0,1,.035-.01h.252c.015-.044-.03-.087-.073-.105a.213.213,0,0,1-.115-.075c-.044-.085.069-.2.021-.277S831.635,160.257,831.561,160.293Z" transform="translate(-825.529 -150.384)"/><path class="b" d="M806.572,130.614a.069.069,0,0,1-.028.008.052.052,0,0,1-.038-.035c-.041-.088-.018-.2-.08-.277a.95.95,0,0,0-.152.255l-.239-.074a.2.2,0,0,1-.068.353.127.127,0,0,0-.029.127.572.572,0,0,0,.168.017,1.118,1.118,0,0,0,.018.314.057.057,0,0,0,.02.04c.017.011.041,0,.058-.009a.562.562,0,0,0,.2-.209l.092.213a.092.092,0,0,0,.039.053.065.065,0,0,0,.075-.026.186.186,0,0,0,.027-.08l.032-.2a.052.052,0,0,1,.011-.029.049.049,0,0,1,.036-.01h.252c.015-.044-.03-.086-.073-.105s-.092-.033-.117-.075c-.043-.085.07-.2.022-.277S806.646,130.577,806.572,130.614Z" transform="translate(-802.849 -123.448)"/><path class="b" d="M913.912,137.6a.049.049,0,0,1-.028.008c-.019,0-.031-.018-.038-.034-.041-.092-.018-.2-.081-.277a.942.942,0,0,0-.151.254l-.239-.074a.36.36,0,0,0,.045.277.382.382,0,0,0-.113.077.126.126,0,0,0-.029.127.6.6,0,0,0,.168.017,1.117,1.117,0,0,0,.019.314.057.057,0,0,0,.02.04c.018.011.041,0,.058-.01a.556.556,0,0,0,.2-.208l.093.212a.091.091,0,0,0,.04.054.064.064,0,0,0,.074-.026.188.188,0,0,0,.027-.08l.033-.2a.037.037,0,0,1,.046-.039h.252c.015-.044-.03-.087-.073-.105a.223.223,0,0,1-.116-.075c-.043-.085.07-.2.022-.277S913.987,137.567,913.912,137.6Z" transform="translate(-900.267 -129.792)"/><path class="d" d="M861.824,131.763a.055.055,0,0,1-.029.008c-.018,0-.03-.018-.038-.034-.041-.092-.018-.2-.08-.277a.949.949,0,0,0-.152.254l-.239-.074a.355.355,0,0,0,.045.277.361.361,0,0,0-.113.076.126.126,0,0,0-.03.127.578.578,0,0,0,.169.017,1.124,1.124,0,0,0,.018.314.062.062,0,0,0,.02.04c.018.011.041,0,.058-.009a.555.555,0,0,0,.2-.209l.092.213a.093.093,0,0,0,.04.053.065.065,0,0,0,.075-.026.184.184,0,0,0,.026-.08l.033-.2a.052.052,0,0,1,.011-.029.048.048,0,0,1,.035-.01h.253c.014-.044-.03-.086-.074-.105s-.092-.033-.116-.075c-.044-.085.069-.2.021-.277S861.9,131.727,861.824,131.763Z" transform="translate(-852.993 -124.491)"/><path class="e" d="M845.482,138.874a.07.07,0,0,1-.028.008.052.052,0,0,1-.038-.035c-.041-.092-.018-.2-.081-.277a.939.939,0,0,0-.152.255l-.239-.075a.2.2,0,0,1-.068.353.127.127,0,0,0-.029.127.572.572,0,0,0,.168.017,1.117,1.117,0,0,0,.019.314.058.058,0,0,0,.02.04c.018.011.041,0,.058-.009a.562.562,0,0,0,.2-.209l.092.213a.093.093,0,0,0,.04.053.064.064,0,0,0,.074-.026.184.184,0,0,0,.027-.08l.033-.2a.05.05,0,0,1,.01-.029.049.049,0,0,1,.036-.01h.252c.015-.044-.03-.086-.073-.105s-.092-.033-.117-.075c-.043-.085.07-.2.022-.277S845.556,138.837,845.482,138.874Z" transform="translate(-838.162 -130.944)"/><path class="d" d="M830.242,95.843a.055.055,0,0,1-.029.008c-.018,0-.031-.018-.038-.034-.041-.092-.018-.2-.08-.277a.948.948,0,0,0-.152.254l-.239-.074a.352.352,0,0,0,.045.277.382.382,0,0,0-.113.077.125.125,0,0,0-.03.127.616.616,0,0,0,.169.017,1.122,1.122,0,0,0,.018.314.062.062,0,0,0,.02.04c.018.011.041,0,.058-.01a.546.546,0,0,0,.2-.208l.092.212a.1.1,0,0,0,.04.054.065.065,0,0,0,.075-.026.184.184,0,0,0,.026-.08l.033-.2a.05.05,0,0,1,.011-.029.048.048,0,0,1,.035-.01h.253c.014-.045-.03-.087-.074-.105a.213.213,0,0,1-.116-.075c-.044-.086.069-.2.021-.277S830.316,95.807,830.242,95.843Z" transform="translate(-824.331 -91.892)"/><path class="e" d="M860.254,152.014a.079.079,0,0,1-.029.008c-.018,0-.031-.018-.038-.035-.041-.088-.018-.2-.08-.277a.957.957,0,0,0-.153.255l-.238-.074a.353.353,0,0,0,.045.277.362.362,0,0,0-.113.076.126.126,0,0,0-.03.127.581.581,0,0,0,.169.017,1.117,1.117,0,0,0,.018.314.062.062,0,0,0,.02.04c.018.011.041,0,.059-.009a.559.559,0,0,0,.2-.209l.092.213a.093.093,0,0,0,.04.053.065.065,0,0,0,.075-.026.184.184,0,0,0,.026-.08l.033-.2a.052.052,0,0,1,.011-.029.048.048,0,0,1,.035-.01h.253c.014-.044-.03-.086-.074-.105s-.092-.033-.115-.075c-.044-.085.069-.2.021-.277S860.328,151.975,860.254,152.014Z" transform="translate(-851.568 -142.87)"/></g><path class="g" d="M880.683,679.815a2.282,2.282,0,0,0,.3-1.159,1.5,1.5,0,1,0-2.9,0,2.282,2.282,0,0,0,.3,1.159,2.373,2.373,0,0,0,0,2.318,2.373,2.373,0,0,0,0,2.318,2.373,2.373,0,0,0,0,2.318,2.285,2.285,0,0,0-.3,1.159,1.5,1.5,0,1,0,2.9,0,2.285,2.285,0,0,0-.3-1.159,2.373,2.373,0,0,0,0-2.318,2.373,2.373,0,0,0,0-2.318A2.373,2.373,0,0,0,880.683,679.815Z" transform="translate(-802.191 -618.303)"/><ellipse class="g" cx="1.448" cy="1.897" rx="1.448" ry="1.897" transform="translate(75.898 56.138)"/><ellipse class="g" cx="1.448" cy="1.897" rx="1.448" ry="1.897" transform="translate(75.898 53.82)"/><path class="c" d="M820.509,365.056a6.921,6.921,0,0,1-.539-.794l3.807-.626-4.117.03a6.953,6.953,0,0,1-.132-5.5l5.523,2.866-5.094-3.746a6.941,6.941,0,1,1,11.462,7.765,6.97,6.97,0,0,1,.791,1.265l-4.941,2.573,5.269-1.768a6.948,6.948,0,0,1-1.119,6.518,6.94,6.94,0,1,1-10.907,0,6.944,6.944,0,0,1,0-8.582Z" transform="translate(-748.586 -325.203)"/><path class="h" d="M832.907,520.915a6.913,6.913,0,0,1-1.485,4.291,6.94,6.94,0,1,1-10.907,0C819.581,524.025,832.907,520.136,832.907,520.915Z" transform="translate(-748.59 -476.771)"/><path class="g" d="M305.407,685.336a2.419,2.419,0,0,0,.321-1.228,1.59,1.59,0,1,0-3.069,0,2.419,2.419,0,0,0,.321,1.228,2.51,2.51,0,0,0,0,2.455,2.509,2.509,0,0,0,0,2.455,2.508,2.508,0,0,0,0,2.454,2.426,2.426,0,0,0-.321,1.228,1.59,1.59,0,1,0,3.069,0,2.425,2.425,0,0,0-.321-1.228,2.508,2.508,0,0,0,0-2.454,2.509,2.509,0,0,0,0-2.455A2.51,2.51,0,0,0,305.407,685.336Z" transform="translate(-279.951 -623.15)"/><ellipse class="g" cx="1.534" cy="2.009" rx="1.534" ry="2.009" transform="translate(22.708 56.496)"/><ellipse class="g" cx="1.534" cy="2.009" rx="1.534" ry="2.009" transform="translate(22.708 54.041)"/><path class="c" d="M252.561,352.314a7.471,7.471,0,0,0,.571-.841l-4.028-.664,4.36.032a7.362,7.362,0,0,0,.14-5.823l-5.853,3.035,5.395-3.965a7.35,7.35,0,1,0-12.139,8.227,7.307,7.307,0,0,0-.837,1.34l5.236,2.717-5.58-1.873a7.357,7.357,0,0,0,1.185,6.9,7.35,7.35,0,1,0,11.554,0,7.351,7.351,0,0,0,0-9.087Z" transform="translate(-222.575 -313.061)"/><path class="h" d="M239.39,517.075a7.321,7.321,0,0,0,1.571,4.543,7.35,7.35,0,1,0,11.554,0C253.5,520.368,239.39,516.25,239.39,517.075Z" transform="translate(-222.53 -473.281)"/><ellipse class="g" cx="50.193" cy="2.452" rx="50.193" ry="2.452" transform="translate(0 70.092)"/><path class="k" d="M538.784,681.937a.162.162,0,0,0-.111.1h-.018l-.068-.011s-.359-.03-.425-.025a.133.133,0,0,1-.109-.062l-.267-.226-.02-.018.047-.017s-.716-.889-.871-.907a1.179,1.179,0,0,1-.412-.227v-.014c-.005-.03-.009-.06-.013-.093l.038.023h0v-.031h0a.578.578,0,0,1,.107-.305,1.433,1.433,0,0,0,.229-.3.442.442,0,0,0,.023-.16.529.529,0,0,0-.074-.277.35.35,0,0,0-.235-.162.194.194,0,0,1-.076-.01c-.15-.035-.2-.236-.349-.285a.3.3,0,0,0-.208.021c-.066.028-.124.068-.185.1a1.2,1.2,0,0,0-.194.1l-.019.016h0l-.012.011h0a.4.4,0,0,0-.062.081v0a.012.012,0,0,1,0,.009v.061a.03.03,0,0,1,0,.007v.01a.017.017,0,0,0,0,.007.036.036,0,0,0,0,.01v.018a.014.014,0,0,1,0,.006v.016h0a.323.323,0,0,0,.069.1l-.008.008a.63.63,0,0,0-.194.456.639.639,0,0,0,.01.113.594.594,0,0,0-.105-.064.924.924,0,0,0-.394-.092,2.733,2.733,0,0,1-.535-.086.227.227,0,0,1,.018.048l-.044-.025a1.309,1.309,0,0,0-.418-.141s-.092.013-.1-.185a.837.837,0,0,0-.033-.179,3.125,3.125,0,0,1-.149-.544l-.03-.287a3.593,3.593,0,0,0,.056-1.062.221.221,0,0,0-.078-.257c-.351-.259-.706.75-.706.75l-.132.128a.283.283,0,0,0-.112-.043.625.625,0,0,0-.12.271,1.326,1.326,0,0,1-.37.422c-.115.1-.226.205-.336.31a1.263,1.263,0,0,1-.662.251l-.171.028a.521.521,0,0,0,.02-.144.54.54,0,0,0-.424-.525.138.138,0,0,0,0-.039.16.16,0,0,0-.041-.073.773.773,0,0,0-.3-.259.39.39,0,0,0-.162-.026H530a.413.413,0,0,0-.3.157c-.044.06-.071.13-.11.194a.874.874,0,0,1-.3.277c-.071.043-.147.081-.214.129a.805.805,0,0,0-.3.8,1.212,1.212,0,0,1,.069.388.667.667,0,0,1-.123.277.89.89,0,0,0-.137.277.272.272,0,0,0,.085.277.665.665,0,0,1,.092.063.308.308,0,0,1,.043.068.681.681,0,0,0,.422.328.277.277,0,0,0,.087.009h.009a.145.145,0,0,0,.157-.072.156.156,0,0,1,.015-.039.045.045,0,0,1,.026-.018.206.206,0,0,1,.062.023.785.785,0,0,0,.3.084.344.344,0,0,0,.053,0,.234.234,0,0,0,.107-.015.226.226,0,0,0,.082-.071l.014-.018a1.5,1.5,0,0,1-.135.418.763.763,0,0,0-.1.365.363.363,0,0,0,.041.192l.01-.02a1.455,1.455,0,0,0,.2.277,1.955,1.955,0,0,1-.019.434.9.9,0,0,0,.343.987l.114.25-.469.033c-.047-.007-.661-.092-.664.031s.092,1.34.41,1.258c.3-.077.2-.432.185-.479h0l.237-.225a.1.1,0,0,0-.018-.078h0l.572.026.134.294a.646.646,0,0,1,.043.64,2.968,2.968,0,0,0-.408,1.026,1.13,1.13,0,0,1-.253.523c-.107.037-.519.2-.355.443.185.277.8.813,1.046.795s.148-.2.148-.2l-.206-.2a4.978,4.978,0,0,1-.022-.555.128.128,0,0,0-.092-.131,1.39,1.39,0,0,1,.174-.548c.149-.2.624-1.1.624-1.1s.151-.134.117-.533c-.014-.161-.021-.3-.026-.414l.538.024s.577-.057.185-.676a5.682,5.682,0,0,0-1.225-1.225l-.007-.383.06.015a.124.124,0,0,0-.009-.039h.009a8.185,8.185,0,0,1-.153-.927l.034.016c.358.414.6.064.6.064s.756-1.062.682-1.017a.064.064,0,0,1-.05,0l.055-.174a.371.371,0,0,0-.1-.533c-.264-.156-.258.335-.246.521l-.013-.012s-.253.381-.389.594-.25.073-.25.073l-.172-.193a.69.69,0,0,0,.041-.242.409.409,0,0,0-.117-.313.547.547,0,0,1-.173-.363.382.382,0,0,1,.034-.149l.892-.472s.185,0,.441-.386a6.657,6.657,0,0,1,.541-.713l-.015-.02.015-.017s-.01-.015-.029-.038l.138-.159a2.079,2.079,0,0,0,0,.215l.07.241.041,1.339s-.043.128.235.256c.235.108.607.291.715.344l-.006.016h.032a.46.46,0,0,1,.524.493,5.405,5.405,0,0,1-.129,1.486,2.189,2.189,0,0,0-.142.859s.017-.08.11.025l-.006.03c-.053.266-.163.832-.185,1.06a3.727,3.727,0,0,1-.12.618l-.055,1.017.348.017v.036a.111.111,0,0,1-.058.092c-.119.065-.4.291-.377.988l-.012.115a1.421,1.421,0,0,1-.169.542.358.358,0,0,0-.021.041.033.033,0,0,1,.009-.019s-.18.037-.143.524.092.573.166.579.435.093.417-.085a3.256,3.256,0,0,1-.012-.64c.025-.061.122-.225.029-.264h0a1.38,1.38,0,0,0,.039-.341,2.235,2.235,0,0,1,.312-.393.881.881,0,0,0,.247-.521c0-.015.383-.268.327-.478-.009-.036-.017-.067-.022-.092a.069.069,0,0,0-.007-.037h.007l.077-.462v.451l.046.006v.037l-.019.432a.7.7,0,0,1-.055.245,2.4,2.4,0,0,0-.191,1.09l0,.415c-.013,0-.2.047-.166.518.037.487.092.572.166.579s.435.092.417-.085a3.345,3.345,0,0,1-.013-.64c.024-.061.068-.222-.026-.262a.345.345,0,0,1,.039-.156c.041-.069.177-.4.277-.652a2.34,2.34,0,0,0,.172-.805V686.9a.757.757,0,0,1,.059-.271,1.9,1.9,0,0,0,.1-.3.066.066,0,0,1,.006-.035l.088.011.3-1.309a6.354,6.354,0,0,0,.042-1.031.082.082,0,0,0-.006-.037h.019a2.755,2.755,0,0,0,.043-.832,1.719,1.719,0,0,1,.123-.889c.077-.243.162-.324.211-.352h0a.1.1,0,0,1,.042-.014l.229.262h0l.043.048h0l.019.021a.178.178,0,0,1,0-.032c.122.071.4.237.573.356a.519.519,0,0,0,.472.121,1.271,1.271,0,0,0,.38-.125h.009a.453.453,0,0,0,.092.036s.311.262.34-.217S538.784,681.937,538.784,681.937Zm-8.051,5.586a.473.473,0,0,1-.092-.038Zm-.485-5.193v.068h0A.567.567,0,0,1,530.248,682.329Zm4.852,6.08v.027C535.094,688.423,535.091,688.423,535.1,688.41Z" transform="translate(-484.986 -618.667)"/><rect class="c" width="0.527" height="0.554" transform="translate(50.577 61.762)"/><path class="l" d="M586.8,773.77a.875.875,0,0,1-.242.518,2.232,2.232,0,0,0-.306.39.791.791,0,0,1-.1.494l-.1.028h-.254a1.186,1.186,0,0,1-.055-.2.232.232,0,0,1,.04-.113,1.425,1.425,0,0,0,.166-.538l.011-.112c-.021-.693.253-.919.37-.983a.113.113,0,0,0,.057-.093h0l.02-.2.684.033a.555.555,0,0,0,.012.2.441.441,0,0,0,.021.1C587.177,773.5,586.8,773.754,586.8,773.77Z" transform="translate(-536.865 -705.611)"/><path class="l" d="M599.879,774.03a1.732,1.732,0,0,1-.092.3.774.774,0,0,0-.058.27v.009a2.358,2.358,0,0,1-.168.8c-.1.252-.234.579-.277.647a.532.532,0,0,0-.027.309l-.385-.027.006-.647a2.409,2.409,0,0,1,.185-1.083.714.714,0,0,0,.054-.243l.019-.43.006-.127s.681-.1.74.057A.339.339,0,0,1,599.879,774.03Z" transform="translate(-548.782 -706.35)"/><path class="m" d="M586.8,773.77a.875.875,0,0,1-.242.518,2.232,2.232,0,0,0-.306.39.791.791,0,0,1-.1.494l-.1.028h-.254a1.186,1.186,0,0,1-.055-.2.232.232,0,0,1,.04-.113,1.425,1.425,0,0,0,.166-.538l.011-.112c-.021-.693.253-.919.37-.983a.113.113,0,0,0,.057-.093h0l.02-.2.684.033a.555.555,0,0,0,.012.2.441.441,0,0,0,.021.1C587.177,773.5,586.8,773.754,586.8,773.77Z" transform="translate(-536.865 -705.611)"/><path class="m" d="M599.879,774.03a1.732,1.732,0,0,1-.092.3.774.774,0,0,0-.058.27v.009a2.358,2.358,0,0,1-.168.8c-.1.252-.234.579-.277.647a.532.532,0,0,0-.027.309l-.385-.027.006-.647a2.409,2.409,0,0,1,.185-1.083.714.714,0,0,0,.054-.243l.019-.43.006-.127s.681-.1.74.057A.339.339,0,0,1,599.879,774.03Z" transform="translate(-548.782 -706.35)"/><path class="h" d="M593.436,773.243l-.716-.035.02-.2.684.033A.555.555,0,0,0,593.436,773.243Z" transform="translate(-543.2 -705.656)"/><path class="h" d="M602.52,774.021l-.74-.1.005-.127s.681-.1.74.057A.34.34,0,0,1,602.52,774.021Z" transform="translate(-551.423 -706.341)"/><path class="n" d="M591.383,745.782l-.3,1.3-.878-.118v-.447l-.076.462-1.053-.052.055-1.009a3.734,3.734,0,0,0,.117-.614c.02-.228.128-.79.185-1.054.017-.092.028-.142.028-.142a13.057,13.057,0,0,1,1.923.511.294.294,0,0,1,.042.139A6.619,6.619,0,0,1,591.383,745.782Z" transform="translate(-539.897 -679.428)"/><path class="h" d="M591.21,760.133s.71-.37.883-.294Z" transform="translate(-541.83 -693.694)"/><path class="h" d="M595.4,750s.59.448.608.569Z" transform="translate(-545.633 -684.773)"/><path class="h" d="M593.66,766.64a1.221,1.221,0,0,1,.563.092Z" transform="translate(-544.053 -699.874)"/><path class="h" d="M601.374,761.47s.2.664.115.846-.178-.043-.178-.043Z" transform="translate(-550.996 -695.183)"/><path class="n" d="M597.249,798.92s-.2.031-.164.515.092.568.164.575.426.092.409-.085a3.284,3.284,0,0,1-.012-.635c.025-.06.066-.221-.026-.261l-.02.092s-.193-.178-.309-.048a.487.487,0,0,0-.023-.093C597.258,798.952,597.23,798.938,597.249,798.92Z" transform="translate(-547.158 -729.171)"/><path class="l" d="M623.076,726.907s-.045.025-.113.057a1.254,1.254,0,0,1-.37.124.508.508,0,0,1-.462-.12c-.165-.118-.443-.284-.563-.354l-.053-.031h-.005l.1-.277.354-.185.092.076.262.225a.13.13,0,0,0,.106.061c.066,0,.418.025.418.025l.067.011.141.023Z" transform="translate(-569.329 -663.101)"/><path class="h" d="M636.043,730.746s-.045.025-.113.057c-.071-.036-.159-.1-.125-.216s.039-.18.064-.237l.14.023Z" transform="translate(-582.296 -666.94)"/><path class="l" d="M636.169,729.2s.395-.114.365.363-.334.215-.334.215-.259-.068-.2-.247S636.035,729.247,636.169,729.2Z" transform="translate(-582.469 -665.889)"/><path class="l" d="M578.989,682.729l-.411.173h-.011l-.026-.013c-.106-.053-.471-.234-.7-.342-.277-.127-.23-.254-.23-.254l-.04-1.332-.069-.238s-.05-.812.345-1.017.139,1.174.139,1.174l.029.287a3.2,3.2,0,0,0,.108.541.777.777,0,0,1,.032.177c.012.194.1.185.1.185a1.263,1.263,0,0,1,.41.139,1.1,1.1,0,0,1,.136.086Z" transform="translate(-529.385 -620.958)"/><path class="m" d="M606.031,710.461l-.351-.037a1.327,1.327,0,0,0,.149-.3.538.538,0,0,0,.016-.062.212.212,0,0,0-.02-.154c-.1-.152.612-.363.612-.363a1.734,1.734,0,0,0-.008.252,1.408,1.408,0,0,0,.018.174.436.436,0,0,0,.147.286C606.819,710.406,606.031,710.461,606.031,710.461Z" transform="translate(-554.962 -648.053)"/><path class="h" d="M606.031,714.644l-.351-.037a1.326,1.326,0,0,0,.149-.3c.041.058.055.056.112.068a.518.518,0,0,0,.506-.222.436.436,0,0,0,.147.286C606.819,714.59,606.031,714.644,606.031,714.644Z" transform="translate(-554.962 -652.237)"/><path class="h" d="M621.565,726.614a.179.179,0,0,0,0,.032l-.055-.064h0l.1-.277.354-.185.092.076C621.925,726.237,621.571,726.386,621.565,726.614Z" transform="translate(-569.329 -663.101)"/><path class="h" d="M589.174,707.465l-.411.173h-.043l.006-.016a1.332,1.332,0,0,0,.125-.682,1.119,1.119,0,0,1,.136.086Z" transform="translate(-539.57 -645.694)"/><path class="h" d="M594.892,744.74c-.16-.015-1.763-.163-1.913-.4a.792.792,0,0,0-.08-.109c.017-.092.028-.142.028-.142a13.039,13.039,0,0,1,1.923.511A.292.292,0,0,1,594.892,744.74Z" transform="translate(-543.364 -679.41)"/><path class="o" d="M590.83,707.646a.517.517,0,0,0,.509-.226,1.186,1.186,0,0,0,.4.226c.152.019.853.9.853.9s-.563.185-.527.472l-.27-.309s-.133-.005-.248.363a1.706,1.706,0,0,0-.121.884,2.8,2.8,0,0,1-.043.832s-1.768-.152-1.925-.4-.185-.127-.185-.127a2.209,2.209,0,0,1,.139-.854,5.439,5.439,0,0,0,.128-1.479.456.456,0,0,0-.515-.49s.224-.521.121-.721a2.64,2.64,0,0,0,.525.086.9.9,0,0,1,.386.092.43.43,0,0,1,.16.121.236.236,0,0,0,.277.079,2.775,2.775,0,0,0,.158.388l.021.039c.011.018.021.035.032.051A.128.128,0,0,0,590.83,707.646Z" transform="translate(-539.851 -645.494)"/><path class="h" d="M607.755,709.82a.623.623,0,0,1-.064.077.633.633,0,0,1-.455.191h-.066a.212.212,0,0,0-.019-.154c-.1-.152.612-.363.612-.363A1.757,1.757,0,0,0,607.755,709.82Z" transform="translate(-556.288 -648.081)"/><path class="l" d="M602.562,701.856a.631.631,0,1,1-.185-.451A.636.636,0,0,1,602.562,701.856Z" transform="translate(-550.978 -640.502)"/><path class="h" d="M618.45,723.812l.013.425s.19-.153.2-.3S618.45,723.812,618.45,723.812Z" transform="translate(-566.552 -661.005)"/><path class="h" d="M601.88,728.42s.5.686.79.755S601.989,728.643,601.88,728.42Z" transform="translate(-551.514 -665.188)"/><path class="h" d="M607.61,729.19a1.29,1.29,0,0,0,.479.354Z" transform="translate(-556.714 -665.887)"/><path class="h" d="M597,737.77s.508.5.8.53Z" transform="translate(-547.085 -673.674)"/><path class="h" d="M604.431,701.855a.631.631,0,0,1-.185.444l-.07-.043a.2.2,0,0,1-.067-.059.236.236,0,0,1-.015-.132.31.31,0,0,0-.092-.257c-.121-.092-.314-.043-.435-.138a.461.461,0,0,1-.078-.086l-.115-.153-.024-.03a.636.636,0,0,1,1.082.454Z" transform="translate(-552.848 -640.502)"/><path class="n" d="M602.79,697.049a1.155,1.155,0,0,1,.189-.1c.063-.031.12-.072.185-.1a.284.284,0,0,1,.2-.02c.142.049.2.248.343.283.024.005.05.005.075.01a.345.345,0,0,1,.23.16.547.547,0,0,1,.073.277.463.463,0,0,1-.023.159,1.413,1.413,0,0,1-.225.3.576.576,0,0,0-.105.335l-.177-.11a.2.2,0,0,1-.067-.059.233.233,0,0,1-.015-.131.312.312,0,0,0-.092-.258c-.121-.092-.314-.042-.435-.138a.405.405,0,0,1-.078-.086c-.038-.051-.077-.1-.115-.153a.436.436,0,0,1-.083-.116A.293.293,0,0,1,602.79,697.049Z" transform="translate(-552.228 -636.509)"/><path class="h" d="M603.647,700.61a.19.19,0,0,1-.068-.058.236.236,0,0,1-.015-.132.307.307,0,0,0-.092-.257c-.12-.092-.313-.044-.435-.138a.462.462,0,0,1-.078-.086c-.038-.051-.076-.1-.115-.154a.427.427,0,0,1-.083-.116.265.265,0,0,1,.084-.219.277.277,0,0,0-.1.239.437.437,0,0,0,.083.116c.038.052.077.1.115.154a.408.408,0,0,0,.078.086c.121.092.314.042.435.138a.311.311,0,0,1,.092.258.234.234,0,0,0,.015.131.2.2,0,0,0,.067.059l.177.11v-.031Z" transform="translate(-552.294 -638.896)"/><path class="n" d="M584.614,794s-.177.037-.141.521.092.569.164.575.427.092.409-.084a3.291,3.291,0,0,1-.012-.636c.024-.061.12-.224.029-.263l-.074.092s-.193-.178-.309-.049C584.679,794.16,584.571,794.042,584.614,794Z" transform="translate(-535.711 -724.706)"/><path class="h" d="M587.26,797.24c.038.018.074.041.112.059a.256.256,0,0,0,.122.029.092.092,0,0,0,.05-.018" transform="translate(-538.245 -727.647)"/><path class="h" d="M599.85,802.38a.831.831,0,0,0,.066.065.229.229,0,0,0,.128.026.057.057,0,0,0,.021,0,.045.045,0,0,0,.019-.018l.024-.03" transform="translate(-549.671 -732.312)"/><path class="p" d="M567.469,709.206s-.081-.776.237-.584a.371.371,0,0,1,.1.53l-.074.239Z" transform="translate(-520.274 -647.192)"/><path class="p" d="M573.06,678.97l.185-.178s.348-1,.693-.745-.438.909-.438.909l-.207.242Z" transform="translate(-525.358 -619.432)"/><path class="o" d="M544.219,730.367l-.009.205s.166.291.237.312.063-.615.063-.615Z" transform="translate(-499.174 -666.867)"/><path class="h" d="M544.019,730.566l-.009.206s.167.29.237.312.064-.614.064-.614Z" transform="translate(-498.993 -667.049)"/><path class="p" d="M490.32,684.56l.012.759h.845l-.064-.442Z" transform="translate(-444.997 -621.286)"/><path class="n" d="M548.533,749.36l.04.242.493,1.1a.646.646,0,0,1,.042.635,2.961,2.961,0,0,0-.4,1.017,1.2,1.2,0,0,1-.269.545l.52.221a1.59,1.59,0,0,1,.185-.636c.149-.2.612-1.1.612-1.1s.148-.133.115-.53-.03-.675-.03-.675l-.052-.632Z" transform="translate(-503.013 -684.192)"/><path class="h" d="M548.533,749.36l.04.242.493,1.1a.646.646,0,0,1,.042.635,2.961,2.961,0,0,0-.4,1.017,1.2,1.2,0,0,1-.269.545l.52.221a1.59,1.59,0,0,1,.185-.636c.149-.2.612-1.1.612-1.1s.148-.133.115-.53-.03-.675-.03-.675l-.052-.632Z" transform="translate(-503.013 -684.192)"/><path class="o" d="M544.929,787.29s-.555.169-.37.447.784.809,1.026.79.145-.2.145-.2l-.2-.2a4.994,4.994,0,0,1-.021-.548c.015-.124-.173-.185-.2-.109S544.929,787.29,544.929,787.29Z" transform="translate(-499.457 -718.616)"/><path class="n" d="M546.25,733.6l-.442.048a.159.159,0,0,0-.141.162,2.456,2.456,0,0,1-.017.508.9.9,0,0,0,.337.983l.656.209-1.053.076.033.584.163-.092,2,.092s.566-.057.185-.672a5.509,5.509,0,0,0-1.2-1.216l-.009-.479-.06-.139Z" transform="translate(-500.427 -669.889)"/><path class="h" d="M558.65,753.677a.571.571,0,0,1,.455,0Z" transform="translate(-512.28 -688.067)"/><path class="o" d="M539.721,754.673s-.647-.092-.653.031.092,1.331.4,1.25.179-.482.179-.482l.233-.224s.024-.124-.13-.112Z" transform="translate(-494.507 -688.984)"/><path class="o" d="M556.557,714.759l.258.294s.112.139.245-.073.381-.59.381-.59.277.242.349.193-.669,1.009-.669,1.009-.236.348-.587-.064l-.1-.048Z" transform="translate(-510.265 -652.455)"/><path class="h" d="M556.358,714.759l.257.294s.112.139.245-.073.382-.59.382-.59.277.242.348.193-.668,1.009-.668,1.009-.237.348-.588-.064l-.1-.048Z" transform="translate(-510.083 -652.455)"/><circle class="p" cx="0.536" cy="0.536" r="0.536" transform="translate(44.969 60.039)"/><path class="h" d="M544.28,689.176s-.462.218-.406.6a8.422,8.422,0,0,1,.064.862.941.941,0,0,1-.068.9.613.613,0,0,0-.059.518s.131-.346.47-.092a2.687,2.687,0,0,0,.884.37s-.282-1.235-.109-1.408c0,0,.3-.445.028-.726a.483.483,0,0,1-.137-.545l.875-.47s.185,0,.432-.384a6.554,6.554,0,0,1,.53-.709s-.185-.277-.363-.3a.63.63,0,0,0-.118.269,1.315,1.315,0,0,1-.36.42c-.112.1-.221.2-.329.308a1.22,1.22,0,0,1-.647.25A3.491,3.491,0,0,0,544.28,689.176Z" transform="translate(-498.775 -628.314)"/><path class="o" d="M544.28,688.768s-.462.218-.406.6a8.456,8.456,0,0,1,.064.863.939.939,0,0,1-.068.9.614.614,0,0,0-.059.518s.131-.345.47-.092a2.709,2.709,0,0,0,.884.37s-.282-1.235-.109-1.408c0,0,.3-.445.028-.727a.482.482,0,0,1-.137-.544l.875-.47s.185,0,.432-.384a6.572,6.572,0,0,1,.53-.708s-.185-.282-.363-.3a.641.641,0,0,0-.118.27,1.313,1.313,0,0,1-.36.42c-.112.1-.221.2-.329.308a1.229,1.229,0,0,1-.647.25A3.045,3.045,0,0,0,544.28,688.768Z" transform="translate(-498.775 -627.942)"/><path class="h" d="M553.58,727.09a4.839,4.839,0,0,1,.37.617S553.9,727.142,553.58,727.09Z" transform="translate(-507.678 -663.981)"/><path class="h" d="M548.5,707.9a.44.44,0,0,0,.609.049A.774.774,0,0,1,548.5,707.9Z" transform="translate(-503.068 -646.565)"/><path class="h" d="M531.97,690.081a.165.165,0,0,0-.039-.073.776.776,0,0,0-.293-.261.405.405,0,0,0-.462.131c-.043.059-.07.13-.108.193a.853.853,0,0,1-.295.277c-.07.043-.144.08-.211.13a.8.8,0,0,0-.291.8,1.278,1.278,0,0,1,.067.386.69.69,0,0,1-.12.277.864.864,0,0,0-.135.277.272.272,0,0,0,.083.277.5.5,0,0,1,.092.063.272.272,0,0,1,.043.068.664.664,0,0,0,.414.326c.079.02.185.013.212-.063a.135.135,0,0,1,.015-.038c.026-.037.082-.016.122,0a.744.744,0,0,0,.294.084.237.237,0,0,0,.119-.014.22.22,0,0,0,.081-.07.864.864,0,0,0,.14-.443,1.056,1.056,0,0,0,0-.305,1.79,1.79,0,0,1-.114-.474c.015-.163.156-.317.178-.491a.376.376,0,0,0-.064-.258.387.387,0,0,1-.049-.076.076.076,0,0,1,.015-.083.117.117,0,0,1,.038-.018.316.316,0,0,0,.185-.277.567.567,0,0,1,.012-.131C531.92,690.229,531.98,690.154,531.97,690.081Z" transform="translate(-486.344 -630.067)"/><path class="n" d="M531.571,690.081a.167.167,0,0,0-.04-.073.774.774,0,0,0-.293-.261.405.405,0,0,0-.462.131,2.2,2.2,0,0,0-.108.193.854.854,0,0,1-.295.277c-.07.043-.144.08-.211.13a.808.808,0,0,0-.292.8,1.25,1.25,0,0,1,.068.386.679.679,0,0,1-.121.277.865.865,0,0,0-.134.277.272.272,0,0,0,.083.277.526.526,0,0,1,.093.063.271.271,0,0,1,.042.068.668.668,0,0,0,.415.326c.079.02.185.013.212-.063a.133.133,0,0,1,.015-.038c.026-.037.082-.016.122,0a.737.737,0,0,0,.293.084.24.24,0,0,0,.12-.014.21.21,0,0,0,.08-.07.855.855,0,0,0,.14-.443,1.022,1.022,0,0,0,0-.305,1.829,1.829,0,0,1-.115-.474c.014-.163.157-.317.178-.491a.369.369,0,0,0-.064-.258.436.436,0,0,1-.048-.076.076.076,0,0,1,.015-.083.1.1,0,0,1,.038-.018.315.315,0,0,0,.185-.277.623.623,0,0,1,.013-.131C531.521,690.229,531.581,690.154,531.571,690.081Z" transform="translate(-485.981 -630.067)"/><g class="f" transform="translate(44.381 59.658)"><path d="M537.256,723.389a.135.135,0,0,0-.015.038.123.123,0,0,1-.111.071c.069.006.142-.009.165-.071a.137.137,0,0,1,.015-.038.043.043,0,0,1,.018-.016A.062.062,0,0,0,537.256,723.389Z" transform="translate(-537.13 -720.261)"/><path d="M544.247,690.113a.158.158,0,0,0-.04-.073.759.759,0,0,0-.293-.257.37.37,0,0,0-.167-.025.336.336,0,0,1,.111.021.757.757,0,0,1,.293.257.158.158,0,0,1,.04.073c.01.073-.05.148-.07.215a.568.568,0,0,0-.012.131.318.318,0,0,1-.185.277.1.1,0,0,0-.038.018.075.075,0,0,0-.015.083.4.4,0,0,0,.049.076.369.369,0,0,1,.064.258c-.022.174-.164.316-.179.49a1.669,1.669,0,0,0,.115.475,1.026,1.026,0,0,1,0,.3.86.86,0,0,1-.139.443.219.219,0,0,1-.081.07.186.186,0,0,1-.059.015.248.248,0,0,0,.114-.015.221.221,0,0,0,.081-.07.86.86,0,0,0,.139-.443,1.022,1.022,0,0,0,0-.3,1.826,1.826,0,0,1-.115-.475c.014-.164.157-.316.179-.49a.37.37,0,0,0-.064-.258.386.386,0,0,1-.049-.076.075.075,0,0,1,.015-.083.1.1,0,0,1,.038-.018.316.316,0,0,0,.185-.277.613.613,0,0,1,.013-.131C544.2,690.261,544.258,690.186,544.247,690.113Z" transform="translate(-543.038 -689.756)"/></g><path class="h" d="M542.77,763a.246.246,0,0,0,.251.069" transform="translate(-497.867 -696.572)"/><path class="h" d="M554.126,796.56a.153.153,0,0,1-.126.032" transform="translate(-508.059 -727.029)"/><path class="c" d="M208.28,779.725l1.231-.724a2.973,2.973,0,0,0-.629-.753l-2.322.723,1.819-1.07A2.958,2.958,0,0,0,204,780.5c0,1.633,1.325,1.691,2.958,1.691s2.958-.057,2.958-1.691a2.939,2.939,0,0,0-.254-1.2Z" transform="translate(-190.412 -709.765)"/><path class="h" d="M208.593,799.9a2.317,2.317,0,0,0-.436-.343,2.045,2.045,0,0,0-.718-.35,5.411,5.411,0,0,0-.705-.02,1.648,1.648,0,0,1-1.081-.5,3.272,3.272,0,0,0-.5-.52,1.1,1.1,0,0,0-.752-.139,1.824,1.824,0,0,0-.223.046,2.958,2.958,0,0,0-.175,1c0,1.633,1.325,1.691,2.958,1.691a6.2,6.2,0,0,0,2.044-.214l-.092-.165A2.323,2.323,0,0,0,208.593,799.9Z" transform="translate(-190.412 -728.348)"/><path class="c" d="M988.28,779.725l1.231-.724a2.969,2.969,0,0,0-.629-.753l-2.322.723,1.819-1.07A2.958,2.958,0,0,0,984,780.5c0,1.633,1.325,1.691,2.958,1.691s2.958-.057,2.958-1.691a2.938,2.938,0,0,0-.254-1.2Z" transform="translate(-898.312 -709.765)"/><path class="h" d="M988.593,799.9a2.308,2.308,0,0,0-.436-.343,2.043,2.043,0,0,0-.718-.35,5.411,5.411,0,0,0-.705-.02,1.648,1.648,0,0,1-1.081-.5,3.277,3.277,0,0,0-.5-.52,1.1,1.1,0,0,0-.752-.139,1.822,1.822,0,0,0-.223.046,2.956,2.956,0,0,0-.175,1c0,1.633,1.325,1.691,2.958,1.691a6.2,6.2,0,0,0,2.044-.214l-.092-.165a2.325,2.325,0,0,0-.316-.493Z" transform="translate(-898.312 -728.348)"/><path class="c" d="M376.278,770.782l-.962-.566a2.346,2.346,0,0,1,.492-.588l1.814.564-1.422-.832a2.311,2.311,0,0,1,3.421,2.02c0,1.276-1.034,1.321-2.311,1.321S375,772.657,375,771.38a2.3,2.3,0,0,1,.2-.937Z" transform="translate(-345.605 -702.086)"/><path class="h" d="M383.049,786.516a1.794,1.794,0,0,1,.34-.267,1.576,1.576,0,0,1,.561-.277,4.107,4.107,0,0,1,.555-.016,1.3,1.3,0,0,0,.844-.387,2.563,2.563,0,0,1,.393-.407.86.86,0,0,1,.588-.108,1.576,1.576,0,0,1,.174.036,2.294,2.294,0,0,1,.134.779c0,1.277-1.034,1.321-2.311,1.321a4.859,4.859,0,0,1-1.6-.167l.069-.13A1.779,1.779,0,0,1,383.049,786.516Z" transform="translate(-352.621 -716.575)"/><path class="c" d="M456.278,770.782l-.962-.566a2.345,2.345,0,0,1,.492-.588l1.814.564-1.422-.832a2.311,2.311,0,0,1,3.421,2.02c0,1.276-1.034,1.321-2.311,1.321S455,772.657,455,771.38a2.3,2.3,0,0,1,.2-.937Z" transform="translate(-418.211 -702.086)"/><path class="h" d="M463.049,786.516a1.8,1.8,0,0,1,.34-.267,1.577,1.577,0,0,1,.561-.277,4.107,4.107,0,0,1,.555-.016,1.294,1.294,0,0,0,.844-.387,2.562,2.562,0,0,1,.393-.407.86.86,0,0,1,.588-.108,1.576,1.576,0,0,1,.174.036,2.294,2.294,0,0,1,.134.779c0,1.277-1.034,1.321-2.311,1.321a4.859,4.859,0,0,1-1.6-.167l.069-.13A1.778,1.778,0,0,1,463.049,786.516Z" transform="translate(-425.226 -716.575)"/><path class="c" d="M747.278,770.782l-.962-.566a2.342,2.342,0,0,1,.492-.588l1.814.564-1.422-.832a2.311,2.311,0,0,1,3.421,2.02c0,1.276-1.034,1.321-2.311,1.321S746,772.657,746,771.38a2.3,2.3,0,0,1,.2-.937Z" transform="translate(-682.312 -702.086)"/><path class="h" d="M754.049,786.516a1.794,1.794,0,0,1,.34-.267,1.576,1.576,0,0,1,.561-.277,4.108,4.108,0,0,1,.555-.016,1.294,1.294,0,0,0,.844-.387,2.565,2.565,0,0,1,.393-.407.86.86,0,0,1,.588-.108,1.582,1.582,0,0,1,.174.036,2.294,2.294,0,0,1,.134.779c0,1.277-1.034,1.321-2.311,1.321a4.859,4.859,0,0,1-1.6-.167l.069-.13A1.779,1.779,0,0,1,754.049,786.516Z" transform="translate(-689.327 -716.575)"/><path class="g" d="M481.507,698.187a1.917,1.917,0,0,0,.253-.97,1.257,1.257,0,1,0-2.426,0,1.918,1.918,0,0,0,.253.97,1.985,1.985,0,0,0,0,1.941,1.983,1.983,0,0,0,0,1.941,1.985,1.985,0,0,0,0,1.941,1.915,1.915,0,0,0-.253.97,1.257,1.257,0,1,0,2.426,0,1.914,1.914,0,0,0-.253-.97,1.984,1.984,0,0,0,0-1.941,1.983,1.983,0,0,0,0-1.941A1.984,1.984,0,0,0,481.507,698.187Z" transform="translate(-440.296 -635.429)"/><ellipse class="g" cx="1.213" cy="1.587" rx="1.213" ry="1.587" transform="translate(39.039 58.262)"/><ellipse class="g" cx="1.213" cy="1.587" rx="1.213" ry="1.587" transform="translate(39.039 56.322)"/><path class="c" d="M439.747,435.015a5.821,5.821,0,0,0,.451-.665l-3.183-.523,3.445.026a5.819,5.819,0,0,0,.111-4.6l-4.622,2.4,4.262-3.133a5.807,5.807,0,1,0-9.591,6.5,5.812,5.812,0,0,0-.662,1.059l4.135,2.148-4.409-1.479a5.813,5.813,0,0,0,.936,5.454,5.807,5.807,0,1,0,9.129,0,5.809,5.809,0,0,0,0-7.18Z" transform="translate(-394.956 -390.38)"/><path class="h" d="M429.359,565.226a5.778,5.778,0,0,0,1.242,3.59,5.807,5.807,0,1,0,9.129,0C440.511,567.829,429.359,564.573,429.359,565.226Z" transform="translate(-394.94 -517.001)"/><path class="g" d="M667.368,676.026a2.423,2.423,0,0,0,.32-1.228,1.59,1.59,0,1,0-3.069,0,2.425,2.425,0,0,0,.321,1.228,2.508,2.508,0,0,0,0,2.454,2.51,2.51,0,0,0,0,2.455,2.51,2.51,0,0,0,0,2.455,2.423,2.423,0,0,0-.321,1.228,1.59,1.59,0,1,0,3.069,0,2.421,2.421,0,0,0-.32-1.228,98756.745,98756.745,0,0,1,0-4.91A2.514,2.514,0,0,0,667.368,676.026Z" transform="translate(-608.453 -614.7)"/><ellipse class="g" cx="1.534" cy="2.009" rx="1.534" ry="2.009" transform="translate(56.166 55.636)"/><ellipse class="g" cx="1.534" cy="2.009" rx="1.534" ry="2.009" transform="translate(56.166 53.18)"/><path class="c" d="M603.626,342.992a7.164,7.164,0,0,1-.571-.841l4.031-.662-4.36.032a7.362,7.362,0,0,1-.141-5.823l5.85,3.035-5.4-3.966a7.35,7.35,0,1,1,12.139,8.227,7.365,7.365,0,0,1,.838,1.34l-5.234,2.719,5.58-1.873a7.349,7.349,0,0,1-1.185,6.9,7.35,7.35,0,1,1-11.554,0,7.35,7.35,0,0,1,0-9.088Z" transform="translate(-551.669 -304.603)"/><path class="h" d="M616.777,507.758a7.316,7.316,0,0,1-1.571,4.544,7.35,7.35,0,1,1-11.555,0C602.666,511.051,616.777,506.933,616.777,507.758Z" transform="translate(-551.694 -464.825)"/></g></svg>