<svg xmlns="http://www.w3.org/2000/svg" width="77.76" height="77.76" viewBox="0 0 77.76 77.76"><defs><style>.a{fill:#649ae9;}.b{fill:#fff;}</style></defs><g transform="translate(-210 -224)"><path class="a" d="M12.96,0H64.8A12.96,12.96,0,0,1,77.76,12.96V64.8A12.96,12.96,0,0,1,64.8,77.76H12.96A12.96,12.96,0,0,1,0,64.8V12.96A12.96,12.96,0,0,1,12.96,0Z" transform="translate(210 224)"/><path class="b" d="M228.144,250.755v42.191h3.8V273.3h22.175v19.649h3.8v-31.6h-3.8v7.889H231.946V250.755Z" transform="translate(-6.387 -8.77)"/><path class="b" d="M268.232,258.7h3.8v-4.359s9.563-.33,11.04,0,8.514,2.363,9.777,9.152-5.157,8.635-7.352,9.475-7.938.221-8.3.574,0,1.806,0,1.806l13.756,17.748h4.712l-12.6-16.232s14.865-1.15,14.05-12.475-11.6-13.484-11.6-13.484H268.232Z" transform="translate(-20.498 -8.821)"/></g></svg>