<svg xmlns="http://www.w3.org/2000/svg" width="105" height="78.268" viewBox="0 0 105 78.268"><defs><style>.a{opacity:0.5;}.b{fill:#e6e6e6;}.c{fill:#649ae9;}.d{fill:#efb7b9;}.e{fill:#2f2e41;}.f{opacity:0.1;}.g{fill:#fff;}</style></defs><g class="a"><ellipse class="b" cx="8.986" cy="0.685" rx="8.986" ry="0.685" transform="translate(87.028 75.614)"/><ellipse class="b" cx="8.986" cy="0.685" rx="8.986" ry="0.685" transform="translate(67.645 76.897)"/><path class="b" d="M584.294,145.142h45.343a1,1,0,0,1,1,1v75.926a1,1,0,0,1-1,1H584.294a1,1,0,0,1-.984-.842.858.858,0,0,1-.013-.156V146.139A1,1,0,0,1,584.294,145.142Zm-.6,76.923a.6.6,0,0,0,.6.6h45.343a.6.6,0,0,0,.6-.6V146.139a.6.6,0,0,0-.6-.6H584.294a.6.6,0,0,0-.6.6Z" transform="translate(-575.991 -145.142)"/><path class="b" d="M654.488,188.772a.4.4,0,0,1,.4.4v16.488a.4.4,0,0,1-.4.4H616.325a.4.4,0,0,1-.4-.4V189.171a.4.4,0,0,1,.4-.4Z" transform="translate(-604.431 -183.171)"/><path class="c" d="M529.086,289.272a.386.386,0,0,1,.385.385v15.918a.386.386,0,0,1-.385.385H492.244a.386.386,0,0,1-.385-.385V289.657a.386.386,0,0,1,.385-.385Z" transform="translate(-463.089 -270.77)"/><path class="d" d="M228.3,567.551a5.3,5.3,0,0,0,1.426,3.2c.325.445,3.347,3.46,4.26,4.777.221.32,5.647,6.583,5.925,7.163a2.751,2.751,0,0,1,.161.426,5.759,5.759,0,0,1,.155,1.748v.415a12.978,12.978,0,0,1-.285,2.692c-.031.128-.067.258-.086.388a1.252,1.252,0,0,0,.163-.127l2.949-2.189.184-.137c.188-.545.366-1.1.568-1.633a1.013,1.013,0,0,0-.22-.951,5.378,5.378,0,0,0-.753-.687,4.417,4.417,0,0,1-.556-.707c-2.035-2.962-7.766-13.59-8.184-15.73a4.894,4.894,0,0,0-1.668-.021l-2.942.391a1.33,1.33,0,0,0-.873.345A1.074,1.074,0,0,0,228.3,567.551Z" transform="translate(-143.547 -512.076)"/><path class="d" d="M377.527,564.815a3.146,3.146,0,0,0,.461,1.249c.3.461,3.775,9.392,4.854,13.08a5.443,5.443,0,0,1,.116,1.559c.017.188.033.377.047.563.02.232.036.465.053.7a3.661,3.661,0,0,1-.175,1.811,5.452,5.452,0,0,0-.321.629,1.248,1.248,0,0,0,.277-.194l2.949-2.189a13.53,13.53,0,0,0,.555-2.092,1.457,1.457,0,0,0-.143-1.177.571.571,0,0,0-.047-.054,1.305,1.305,0,0,0-.274-.2,2.261,2.261,0,0,1-.262-.168.991.991,0,0,1-.168-.168,2.474,2.474,0,0,1-.4-1.115c-.285-1.617-2.7-11.54-2.655-11.785a9.16,9.16,0,0,1,2.363-3.066,10.772,10.772,0,0,0-3.29-1.885,1.3,1.3,0,0,0-.677-.115,1.119,1.119,0,0,0-.351.143,6.059,6.059,0,0,0-1.614,1.5A4.261,4.261,0,0,0,377.527,564.815Z" transform="translate(-305.336 -506.911)"/><path class="e" d="M294.051,450.718c.091.862,2.514,1.626,5.579,2.1.791.123,2.736-4.667,3.583-4.586,1.019.1.948,5.055,1.956,5.082,3.432.091,5.65-.261,6.367-1.279.388-.094.856-.317.837-.713-.013-.227-.193-.428-.191-.65,0-.388-1.125-4.635-1.788-6.65-.165-.5-.285-1.014-.472-1.509-.807-2.23-1.154-3.942-2.628-5.8a3.467,3.467,0,0,1-.55-.868,3.787,3.787,0,0,1-.2-1.174l-.081-1.4a24.667,24.667,0,0,0-6.449.4.438.438,0,0,0-.451.425v0q-.124.766-.174,1.539a1.27,1.27,0,0,1-.048.337,1.4,1.4,0,0,1-.231.381,17.422,17.422,0,0,0-2.6,5.51c-.6,1.945-1.075,3.945-1.828,5.847a8.252,8.252,0,0,0-.667,2.1A.629.629,0,0,0,294.051,450.718Z" transform="translate(-220.573 -396.249)"/><path class="d" d="M430.873,339.321c-.376-.318-.753-.637-1.1-.988a15.042,15.042,0,0,1-1.346-1.646,8.611,8.611,0,0,1-1.141-1.891,8.153,8.153,0,0,0-.934-2.336.535.535,0,0,0-.241-.188c-.3-.1-.53.285-.589.6a7.7,7.7,0,0,0,1.057,4.506,4.1,4.1,0,0,0,.824,1.306,7.718,7.718,0,0,0,.649.5,6.8,6.8,0,0,1,.918.9q.713.81,1.356,1.678a18.379,18.379,0,0,0,1.661,2.089,4.183,4.183,0,0,0,2.3,1.265c-.252-.034-.17-1.516-.143-1.7a8.655,8.655,0,0,0,.23-.856c.007-.325-.125-.372-.394-.6Z" transform="translate(-359.473 -308.238)"/><path class="d" d="M360.734,314.588s.856,4.278,1.854,4.991-5.419,1.569-5.419,1.569-.143-3.423-1.854-4.991S360.734,314.588,360.734,314.588Z" transform="translate(-278.749 -292.837)"/><path class="b" d="M346.248,362.471a1.911,1.911,0,0,1-.655.086,5.134,5.134,0,0,1-2.162-.5.4.4,0,0,1-.163-.117.436.436,0,0,1-.007-.349c.4-1.626-.374-3.47.4-4.956.837.272,1.755.57,2.593.836a.946.946,0,0,0,.4.068.856.856,0,0,0,.436-.238,8.787,8.787,0,0,0,2-2.956,11.977,11.977,0,0,1,1.841-3.072,3.048,3.048,0,0,1,2.771-1.216,1.788,1.788,0,0,1,1.1.585,3.051,3.051,0,0,1,.57,2.788,8.114,8.114,0,0,1-1.345,2.624,12.585,12.585,0,0,1-2.55,2.886,19.213,19.213,0,0,1-1.72,1.111" transform="translate(-270.014 -323.731)"/><ellipse class="d" cx="4.278" cy="4.278" rx="4.278" ry="4.278" transform="translate(74.355 16.404)"/><path class="b" d="M333.831,351.788c1.286,1.517,1.558,3.454,1.821,5.366,1.292-.438,2.724.3,4.061.029a5.14,5.14,0,0,1,2.088-.242c.495-.047.985-.358,1.457-.2.785.5.021-2.582.067-3.477C343.737,338.169,331.494,345.513,333.831,351.788Z" transform="translate(-256.909 -318.794)"/><path class="d" d="M444.2,343.765c-.376-.318-.753-.637-1.1-.988a15.044,15.044,0,0,1-1.346-1.646,8.61,8.61,0,0,1-1.141-1.891,8.155,8.155,0,0,0-.934-2.336.535.535,0,0,0-.241-.188c-.3-.1-.53.285-.589.6a7.7,7.7,0,0,0,1.057,4.506,4.1,4.1,0,0,0,.824,1.306,7.725,7.725,0,0,0,.649.5,6.8,6.8,0,0,1,.918.9q.713.81,1.356,1.678a18.382,18.382,0,0,0,1.661,2.089,4.182,4.182,0,0,0,2.3,1.265c-.252-.034-.17-1.516-.143-1.7a8.685,8.685,0,0,0,.23-.856c.007-.325-.126-.372-.394-.6Z" transform="translate(-374.516 -312.111)"/><path class="f" d="M351.006,364.6l.01.019c.247.458.616.843.87,1.3a5.739,5.739,0,0,1,.532,1.686q.118.585.218,1.171a15.725,15.725,0,0,0,1.483-.965,12.563,12.563,0,0,0,2.55-2.888,7.927,7.927,0,0,0,1.345-2.623,3.08,3.08,0,0,0-.57-2.788,1.791,1.791,0,0,0-1.1-.586,3.03,3.03,0,0,0-2.761,1.211,12.1,12.1,0,0,0-1.841,3.072C351.515,363.677,351.278,364.155,351.006,364.6Z" transform="translate(-273.656 -331.467)"/><path class="b" d="M367.032,354.5a1.788,1.788,0,0,1,1.1.585,3.051,3.051,0,0,1,.57,2.788,8.113,8.113,0,0,1-1.345,2.624,12.586,12.586,0,0,1-2.55,2.886,19.213,19.213,0,0,1-1.72,1.111c-.985.607-1.931.418-2.834,1.141a2.382,2.382,0,0,1-.67.428,1.91,1.91,0,0,1-.655.086,5.552,5.552,0,0,1-2.162-.789.4.4,0,0,1-.163-.117.436.436,0,0,1-.007-.349c.4-1.626-.374-2.329.4-3.815.837.272,1.755.57,2.593.836a.949.949,0,0,0,.405.068.855.855,0,0,0,.436-.238,8.786,8.786,0,0,0,2-2.956,11.974,11.974,0,0,1,1.841-3.072A3.048,3.048,0,0,1,367.032,354.5Z" transform="translate(-285.056 -327.604)"/><path class="e" d="M368.218,706.436a1.267,1.267,0,0,0,1.492.234,1.241,1.241,0,0,0,.277-.194l2.949-2.189,1.169-.869a1.238,1.238,0,0,0,.019-1.8l-.776-.6-.321-.251-.431-.337-.376-.294-2.416,1.355-.041.08-1.828,3.525A1.271,1.271,0,0,0,368.218,706.436Z" transform="translate(-292.199 -628.894)"/><path class="e" d="M220.465,697.55a1.268,1.268,0,0,0,1.492.234c.038-.02.077-.043.114-.067a1.249,1.249,0,0,0,.163-.127l2.949-2.189.184-.137.985-.732a1.238,1.238,0,0,0,.019-1.8l-.776-.6-.321-.251-.431-.336-.376-.294-.061.034-2.119,1.188-.235.133-.041.08-1.828,3.525A1.271,1.271,0,0,0,220.465,697.55Z" transform="translate(-125.48 -621.148)"/><path class="e" d="M333.718,262.518c1.657-1.877,3.525-2.775,5.764-1.95,3.593-1.206,8.317,7.082,5.408,10.088l-4.926.411-1.508-2.716.534,2.813-3.94.393C337.06,268.432,336.415,265.428,333.718,262.518Z" transform="translate(-259.113 -245.483)"/><ellipse class="g" cx="3.738" cy="3.738" rx="3.738" ry="3.738" transform="translate(52.311 23.107)"/><path class="g" d="M646.921,350.4a.437.437,0,1,1,0,.874h-11.8a.437.437,0,1,1-.014-.874h11.817Z" transform="translate(-599.309 -324.048)"/><path class="g" d="M641.012,330.67a.437.437,0,0,1,0,.874h-5.894a.437.437,0,1,1-.014-.874h5.908Z" transform="translate(-593.4 -306.854)"/><path class="g" d="M646.921,371.064a.437.437,0,1,1,0,.874h-11.8a.437.437,0,1,1-.014-.874h11.817Z" transform="translate(-599.309 -342.063)"/><ellipse class="b" cx="0.931" cy="0.931" rx="0.931" ry="0.931" transform="translate(43.103 39.508)"/><path class="b" d="M715.292,456.411a.482.482,0,1,1,0,.964H692.57a.482.482,0,0,1-.016-.964h22.738Z" transform="translate(-675.094 -416.454)"/><ellipse class="b" cx="0.931" cy="0.931" rx="0.931" ry="0.931" transform="translate(43.103 44.029)"/><path class="b" d="M715.292,491.63a.482.482,0,1,1,0,.964H692.57a.482.482,0,1,1-.016-.964h22.738Z" transform="translate(-675.094 -447.152)"/><ellipse class="b" cx="0.931" cy="0.931" rx="0.931" ry="0.931" transform="translate(43.103 48.55)"/><path class="b" d="M715.292,526.849a.482.482,0,1,1,0,.964H692.57a.482.482,0,0,1-.016-.964h22.738Z" transform="translate(-675.094 -477.85)"/><ellipse class="b" cx="0.931" cy="0.931" rx="0.931" ry="0.931" transform="translate(43.103 53.071)"/><path class="b" d="M715.292,562.068a.482.482,0,1,1,0,.964H692.57a.482.482,0,0,1-.016-.964h22.738Z" transform="translate(-675.094 -508.548)"/><ellipse class="b" cx="0.931" cy="0.931" rx="0.931" ry="0.931" transform="translate(43.103 57.592)"/><path class="b" d="M715.292,597.287a.482.482,0,1,1,0,.964H692.57a.482.482,0,1,1-.016-.964h22.738Z" transform="translate(-675.094 -539.246)"/><ellipse class="b" cx="0.931" cy="0.931" rx="0.931" ry="0.931" transform="translate(43.103 62.113)"/><path class="b" d="M715.292,632.506a.482.482,0,1,1,0,.964H692.57a.482.482,0,1,1-.016-.964h22.738Z" transform="translate(-675.094 -569.944)"/><ellipse class="b" cx="0.931" cy="0.931" rx="0.931" ry="0.931" transform="translate(43.103 66.634)"/><path class="b" d="M715.292,667.725a.482.482,0,1,1,0,.964H692.57a.482.482,0,1,1-.016-.964h22.738Z" transform="translate(-675.094 -600.642)"/><path class="b" d="M943.245,518.166c.02.491.516,10.619,7.32,16.153q.427.347.887.669l.232-.226h-.134a.6.6,0,0,1-.6-.6V514.2c-.142-.766-.277-1.518-.4-2.251-.664-3.982-.971-7.347-.473-8.744-.215.54-4.54,11.582-2.191,22.832C945.561,522.852,943.354,519.509,943.245,518.166Z" transform="translate(-943.245 -457.241)"/></g></svg>