<svg xmlns="http://www.w3.org/2000/svg" xmlns:xlink="http://www.w3.org/1999/xlink" width="555" height="725" viewBox="0 0 555 725"><defs><style>.a{fill:#fff;stroke:#a2bbe0;}.b,.h{fill:#649ae9;}.b,.d,.v{opacity:0.1;}.c{fill:#5f5d7e;}.e{fill:#e6e8ec;}.f{fill:#474157;}.g{fill:#fdc2cc;}.i{fill:#ffd037;}.j{fill:#65617d;}.k{fill:#9d9cb5;}.l{fill:url(#a);}.m{fill:#d38884;}.n{fill:#444053;}.o{fill:#b07473;}.p{fill:#67647e;}.q{fill:#585268;}.r{fill:#e1e7ef;}.s{fill:url(#b);}.t{fill:#a27772;}.u{fill:#cc818c;}.w{fill:#f6f8fb;}.x{fill:url(#c);}.y{fill:#fbbebe;}.z{fill:#7c5c5c;}.aa{opacity:0.05;}.ab{fill:#a8a8a8;}.ac{opacity:0.2;}.ad{fill:#2f2e41;}.ae{stroke:none;}.af{fill:none;}</style><linearGradient id="a" x1="0.5" y1="1" x2="0.5" gradientUnits="objectBoundingBox"><stop offset="0" stop-color="gray" stop-opacity="0.251"/><stop offset="0.54" stop-color="gray" stop-opacity="0.122"/><stop offset="1" stop-color="gray" stop-opacity="0.102"/></linearGradient><linearGradient id="b" x1="0.5" x2="0.5" y2="0" xlink:href="#a"/><linearGradient id="c" x1="0.5" x2="0.5" y2="0" xlink:href="#a"/></defs><g transform="translate(-553 27)"><g class="a" transform="translate(553 -27)"><rect class="ae" width="555" height="725"/><rect class="af" x="0.5" y="0.5" width="554" height="724"/></g><g transform="translate(568 47.89)"><g transform="translate(12.846 62.382)"><path class="b" d="M43.44,426.65c8.106,31.593,25.27,58.9,52.395,72.139,56.394,27.513,183.5,13.322,278.377-2.963,49.089-8.426,92.207-31.66,123.547-64.4Z" transform="translate(-37.904 -243.576)"/><path class="b" d="M556.979,54.514H504.922a4.121,4.121,0,1,1,0-8.206h9.007a4.33,4.33,0,0,1-4.5-4.1,4.324,4.324,0,0,1,4.5-4.1H507.5A4.33,4.33,0,0,1,503,34a4.327,4.327,0,0,1,4.5-4.1h27.17a76.977,76.977,0,0,0-21.194-5.323C439.39,15.9,412.936,21.637,403.591,27.542a109.037,109.037,0,0,1-38.078,15.218c-45.712,8.6-131.2,18.942-208.684-3.315C118.319,28.388,89.7,47.1,72.54,78.315H566.018a67.908,67.908,0,0,0-6.111-24.8A4.72,4.72,0,0,1,556.979,54.514Z" transform="translate(-53.898 -20.144)"/><path class="b" d="M32.265,280.23a190.926,190.926,0,0,0,2.022,55.12l457.062,15.24A195.076,195.076,0,0,0,523.1,306.454Zm180.761,39.321h-9.007a4.119,4.119,0,1,1,0,8.2H151.985a4.119,4.119,0,1,1,0-8.2h9.007a4.121,4.121,0,1,1,0-8.206h-6.436a4.119,4.119,0,1,1,0-8.2h52.057a4.119,4.119,0,1,1,0,8.2h6.413a4.121,4.121,0,1,1,0,8.206Z" transform="translate(-31.147 -163.097)"/><path class="b" d="M544.737,149.94l-499,11.065A167.6,167.6,0,0,0,33.78,207.987H535.991a179.689,179.689,0,0,0,7.251-29.944A129.714,129.714,0,0,0,544.737,149.94ZM135.1,186.2H126.09a4.121,4.121,0,1,1,0,8.206H74.038a4.121,4.121,0,1,1,0-8.206h9.007a4.119,4.119,0,1,1,0-8.2H76.609a4.121,4.121,0,1,1,0-8.206h52.057a4.121,4.121,0,1,1,0,8.206H135.1a4.119,4.119,0,1,1,0,8.2Z" transform="translate(-32.594 -91.485)"/></g><circle class="b" cx="14.561" cy="14.561" r="14.561" transform="translate(37.055 29.123)"/><circle class="b" cx="9.014" cy="9.014" r="9.014" transform="translate(12.098)"/><path class="c" d="M151.623,487.31l-.171,9.222-1.368,74.753L138.37,598.717,98,599.179V491.558l42.131-3.338Z" transform="translate(-52.698 -216.175)"/><path class="d" d="M151.623,487.31l-.171,9.222-1.368,74.753L138.37,598.717,98,599.179V491.558l42.131-3.338Z" transform="translate(-52.698 -216.175)"/><path class="c" d="M198.583,487.31l-.171,9.222-1.368,74.753L185.33,598.717l3.083-102.009-.009-.065-1.313-8.423Z" transform="translate(-99.658 -216.175)"/><path class="d" d="M140.131,488.221l11.492-.911-.171,9.222-10.008.111L98,497.129v-5.57Z" transform="translate(-52.698 -216.175)"/><path class="c" d="M461.806,467.423v8.718L0,481.291V470.2l43.453-8.783,378.136-2.774Z" transform="translate(0 -200.758)"/><path class="d" d="M461.806,477.64v8.718L0,491.508V480.414Z" transform="translate(0 -210.975)"/><circle class="e" cx="2.228" cy="2.228" r="2.228" transform="translate(174.442 196.321)"/><ellipse class="c" cx="39.348" cy="11.349" rx="39.348" ry="11.349" transform="translate(278.216 390.95)"/><path class="d" d="M795.5,788.09c-2.857,2.621-13.54,6.518-20.141,8.635C781.342,791.659,791.373,789.01,795.5,788.09Z" transform="translate(-463.394 -401.661)"/><rect class="c" width="8.09" height="59.864" transform="translate(313.187 338.779)"/><path class="d" d="M786.09,687.972v6.934a56.888,56.888,0,0,1-8.09-4.258V685h1.687Z" transform="translate(-464.813 -346.226)"/><path class="f" d="M754.27,613.823s26.71-6.874,33.357-12.019,32.752,19.064,29.3,28.2-16,15.75-16,15.75-34.721,5.649-40.633-6.134S754.27,613.823,754.27,613.823Z" transform="translate(-452.053 -301.108)"/><path class="d" d="M754.27,613.823s26.71-6.874,33.357-12.019,32.752,19.064,29.3,28.2-16,15.75-16,15.75-34.721,5.649-40.633-6.134S754.27,613.823,754.27,613.823Z" transform="translate(-452.053 -301.108)"/><path class="f" d="M749.27,607.823s26.71-6.874,33.357-12.019,32.752,19.064,29.3,28.2-16,15.75-16,15.75-34.721,5.649-40.633-6.134S749.27,607.823,749.27,607.823Z" transform="translate(-449.364 -297.881)"/><path class="g" d="M739.652,601.77s-8.048,1.734-7.026,4.276,5.524,2.658,5.524,2.658Z" transform="translate(-440.366 -301.471)"/><path class="d" d="M731.914,622c-.462.347-5.663,11.094-1.849,14.1S731.914,622,731.914,622Z" transform="translate(-438.29 -312.349)"/><path class="d" d="M743.68,625.27c.116.347,10.863,17.451,16.757,18.837Z" transform="translate(-446.358 -314.107)"/><path class="d" d="M867.656,520.668a1.573,1.573,0,0,1-.3-.042A.615.615,0,0,1,867.656,520.668Z" transform="translate(-512.865 -257.835)"/><path class="d" d="M737.18,549.613s3.929,1.5,8.09-2.658S737.18,549.613,737.18,549.613Z" transform="translate(-442.863 -271.272)"/><path class="d" d="M685.694,484s-3.7,3.393-3.157,4.78S685.694,484,685.694,484Z" transform="translate(-413.451 -238.142)"/><path class="f" d="M674.091,578.01c-2.667-.652-10.022-1.253-13.521,10.484a51.922,51.922,0,0,1-3.1,7.937c-3.356,6.892-7.692,21.066,11.376,24.186l45.765,10.4s24.5,3,26.118,1.849,1.387-3.7,1.387-3.7-27.043,0-32.359-8.321-5.547-19.646-5.547-19.646.666-17.488-27.274-22.568C676.009,578.458,675.039,578.241,674.091,578.01Z" transform="translate(-398.417 -288.537)"/><path class="d" d="M674.091,578.18c-2.667-.652-10.022-1.253-13.521,10.489a51.92,51.92,0,0,1-3.1,7.937c-3.356,6.888-7.692,21.061,11.376,24.181l45.765,10.4s24.5,3,26.118,1.849,1.387-3.7,1.387-3.7-27.043,0-32.359-8.321-5.547-19.646-5.547-19.646.666-17.488-27.274-22.568C676.009,578.628,675.039,578.4,674.091,578.18Z" transform="translate(-398.417 -288.628)"/><path class="f" d="M830.094,545.53a7.068,7.068,0,0,0-7.142-5.972c-6.583.12-26.844,1-36.256,7.147,0,0-7.165,4.623-9.245,4.623s-30.279,24.038,11.557,45.533c0,0,22.42,6.379,31.2-8.6,0,0,6.241-16.087,5.778-21.657s4.16-20.594,4.16-20.594S830.14,545.831,830.094,545.53Z" transform="translate(-458.486 -268.016)"/><path class="d" d="M830.094,554.824a6.932,6.932,0,0,0-7.142-5.515c-6.583.111-26.844.925-36.256,6.6,0,0-7.165,4.267-9.245,4.267s-30.279,22.189,11.557,42.034c0,0,22.42,5.889,31.2-7.937,0,0,6.241-14.853,5.778-19.993s4.16-19.008,4.16-19.008S830.14,555.1,830.094,554.824Z" transform="translate(-458.486 -273.26)"/><rect class="c" width="7.396" height="15.749" transform="translate(341.847 328.84)"/><ellipse class="d" cx="20.821" cy="1.336" rx="20.821" ry="1.336" transform="translate(57.876 262.125)"/><path class="h" d="M274.986,406.612a7.942,7.942,0,0,0-1.054,1.983c-.065.176-.129.37-.194.559a1.7,1.7,0,0,0-.365-.125,5.242,5.242,0,0,0-1.65-.143c0-.213.028-.462.032-.675.069-2.436-.217-5.834-2.542-4.4-2.228,1.387-.638,3.7.8,5.182l.37.361c-1.313.924-1.562,3.111-1.78,5.381s-2.145,4.757-3.425,6.167c-.129.143-.245.273-.361.393a4.674,4.674,0,0,0-3.721-.957c-.051-.2-.111-.407-.171-.629-1.035-3.735-3.185-10.211-5.926-11.631l.361-.462c1.165-1.525,2.478-3.786.541-4.368s-2.113,1.965-2.006,3.869c0,.24.037.462.055.675a2.852,2.852,0,0,0-2.025.989l-.3-.351c-1.572-1.849-4.452-4.794-5.325-2.57-.814,2.071,1.724,4.757,3.509,6.315l.111.1c-1.2,4.868,4.017,8.843,6.846,10.563l.365.222c-3.883,4.576-6.282,13.152-6.282,13.152l10.873,1.942s7.211-6.218,6.287-12.061h.074c7.207-1.442,8.843-9.125,7.72-13.688l.129-.051a8.2,8.2,0,0,0,3.338-2.524C281.283,407.024,277.048,403.862,274.986,406.612Z" transform="translate(-178.816 -194.676)"/><path class="d" d="M274.986,406.612a7.942,7.942,0,0,0-1.054,1.983c-.065.176-.129.37-.194.559a1.7,1.7,0,0,0-.365-.125,5.242,5.242,0,0,0-1.65-.143c0-.213.028-.462.032-.675.069-2.436-.217-5.834-2.542-4.4-2.228,1.387-.638,3.7.8,5.182l.37.361c-1.313.924-1.562,3.111-1.78,5.381s-2.145,4.757-3.425,6.167c-.129.143-.245.273-.361.393a4.674,4.674,0,0,0-3.721-.957c-.051-.2-.111-.407-.171-.629-1.035-3.735-3.185-10.211-5.926-11.631l.361-.462c1.165-1.525,2.478-3.786.541-4.368s-2.113,1.965-2.006,3.869c0,.24.037.462.055.675a2.852,2.852,0,0,0-2.025.989l-.3-.351c-1.572-1.849-4.452-4.794-5.325-2.57-.814,2.071,1.724,4.757,3.509,6.315l.111.1c-1.2,4.868,4.017,8.843,6.846,10.563l.365.222c-3.883,4.576-6.282,13.152-6.282,13.152l10.873,1.942s7.211-6.218,6.287-12.061h.074c7.207-1.442,8.843-9.125,7.72-13.688l.129-.051a8.2,8.2,0,0,0,3.338-2.524C281.283,407.024,277.048,403.862,274.986,406.612Z" transform="translate(-178.816 -194.676)"/><path class="h" d="M254.133,411.96l-1.257,3.721s-.707-.5-1.6-1.285c-1.784-1.558-4.322-4.244-3.509-6.315.874-2.223,3.754.712,5.325,2.57C253.713,411.387,254.133,411.96,254.133,411.96Z" transform="translate(-179.607 -196.889)"/><path class="h" d="M265.789,407.635a17.982,17.982,0,0,1-1.239,1.456,19.523,19.523,0,0,1-.227-1.955c-.106-1.9.1-4.433,2.006-3.869S266.935,406.11,265.789,407.635Z" transform="translate(-188.581 -194.686)"/><path class="h" d="M298.755,408.567c-.037,1.225-.157,2.2-.157,2.2a15.714,15.714,0,0,1-1.586-1.415c-1.438-1.493-3.028-3.8-.8-5.182C298.533,402.734,298.819,406.131,298.755,408.567Z" transform="translate(-205.145 -195.031)"/><path class="h" d="M312.3,412.59a8.2,8.2,0,0,1-3.347,2.519,9.323,9.323,0,0,1-1.119.4l-1.5-2.1a15.287,15.287,0,0,1,.619-2.043,7.943,7.943,0,0,1,1.054-1.983C310.094,406.636,314.319,409.8,312.3,412.59Z" transform="translate(-211.187 -197.45)"/><path class="d" d="M257.343,414.57c.633.735,1.054,1.308,1.054,1.308l-1.257,3.721s-.707-.5-1.6-1.285a7.281,7.281,0,0,1,1.433-3.268A4.335,4.335,0,0,1,257.343,414.57Z" transform="translate(-183.87 -200.807)"/><path class="d" d="M265.815,412.229a17.987,17.987,0,0,1-1.239,1.456,19.513,19.513,0,0,1-.227-1.955,2.524,2.524,0,0,1,1.465.5Z" transform="translate(-188.607 -199.28)"/><path class="h" d="M267.2,427.774l-3.162,1.387s-.689-.333-1.683-.952c-3.324-2.048-10-7.193-5.524-13.258s8.214,4.817,9.685,10.133C266.979,426.678,267.2,427.774,267.2,427.774Z" transform="translate(-183.757 -200.051)"/><path class="d" d="M299.22,414.866a2.575,2.575,0,0,1,1.743-.786c-.037,1.225-.157,2.2-.157,2.2A15.724,15.724,0,0,1,299.22,414.866Z" transform="translate(-207.358 -200.544)"/><path class="d" d="M308.956,418.644a9.326,9.326,0,0,1-1.119.4l-1.5-2.1a15.284,15.284,0,0,1,.619-2.043A5.349,5.349,0,0,1,308.956,418.644Z" transform="translate(-211.187 -200.985)"/><path class="h" d="M287.605,432.7l-.532.093c-10.6,1.613-3.495-4.1-3.495-4.1s.462-.439,1.123-1.16c1.28-1.41,3.2-3.883,3.425-6.167.333-3.435.717-6.657,4.771-5.709C296.9,416.584,297.659,430.692,287.605,432.7Z" transform="translate(-197.694 -201.3)"/><rect class="f" width="20.252" height="5.325" transform="translate(69.479 257.789)"/><rect class="f" width="26.46" height="18.583" transform="translate(66.262 240.482)"/><rect class="d" width="20.252" height="5.325" transform="translate(69.285 257.789)"/><rect class="d" width="26.46" height="18.583" transform="translate(66.178 240.486)"/><rect class="f" width="20.252" height="5.325" transform="translate(70.81 257.789)"/><path class="d" d="M274.72,439c.462,1.59.684,2.686.684,2.686l-3.162,1.387s-.689-.333-1.683-.952A7.929,7.929,0,0,1,274.72,439Z" transform="translate(-191.947 -213.944)"/><path class="d" d="M287.605,446.713l-.532.092c-10.6,1.613-3.495-4.1-3.495-4.1s.462-.439,1.123-1.16A6.982,6.982,0,0,1,287.605,446.713Z" transform="translate(-197.694 -215.31)"/><path class="h" d="M257.76,456.087s5.936-21.264,14.261-14.7-3.388,16.642-3.388,16.642Z" transform="translate(-185.064 -214.551)"/><circle class="d" cx="0.666" cy="0.666" r="0.666" transform="translate(75.026 217.567)"/><circle class="d" cx="0.666" cy="0.666" r="0.666" transform="translate(74.971 220.678)"/><circle class="d" cx="0.666" cy="0.666" r="0.666" transform="translate(94.28 218.177)"/><circle class="d" cx="0.666" cy="0.666" r="0.666" transform="translate(78.743 234.103)"/><circle class="d" cx="0.666" cy="0.666" r="0.666" transform="translate(92.893 223.341)"/><circle class="d" cx="0.666" cy="0.666" r="0.666" transform="translate(86.014 230.219)"/><circle class="d" cx="0.666" cy="0.666" r="0.666" transform="translate(77.301 218.899)"/><circle class="d" cx="0.666" cy="0.666" r="0.666" transform="translate(92.449 220.179)"/><circle class="d" cx="0.666" cy="0.666" r="0.666" transform="translate(90.175 225.338)"/><circle class="d" cx="0.666" cy="0.666" r="0.666" transform="translate(83.181 233.603)"/><circle class="d" cx="0.666" cy="0.666" r="0.666" transform="translate(81.738 230.33)"/><circle class="d" cx="0.666" cy="0.666" r="0.666" transform="translate(78.299 222.953)"/><rect class="d" width="20.252" height="1.946" transform="translate(70.81 257.789)"/><rect class="f" width="26.46" height="18.583" transform="translate(67.593 240.482)"/><circle class="d" cx="0.666" cy="0.666" r="0.666" transform="translate(84.068 236.599)"/><circle class="d" cx="0.666" cy="0.666" r="0.666" transform="translate(80.074 237.431)"/><path class="h" d="M401.839,626s3.3,4.313-1.521,10.822-8.783,12.019-7.193,16.068c0,0,7.276-12.093,13.2-12.259S408.352,633.276,401.839,626Z" transform="translate(-257.662 -314.5)"/><path class="d" d="M402.049,626a5.314,5.314,0,0,1,.675,1.35c5.774,6.786,8.852,13.119,3.3,13.281-5.173.162-11.376,9.407-12.865,11.719.051.18.111.361.176.532,0,0,7.276-12.093,13.2-12.259S408.563,633.276,402.049,626Z" transform="translate(-257.873 -314.5)"/><path class="i" d="M424.768,636.768c0,1.516-.171,2.746-.379,2.746s-.379-1.23-.379-2.746.213-.8.421-.8S424.768,635.247,424.768,636.768Z" transform="translate(-274.462 -319.767)"/><path class="i" d="M427.175,640.608c-1.331.726-2.492,1.165-2.593.98s.9-.925,2.233-1.65.8-.2.924,0S428.511,639.882,427.175,640.608Z" transform="translate(-274.765 -321.795)"/><path class="h" d="M366.087,626s-3.3,4.313,1.521,10.822,8.783,12.019,7.188,16.068c0,0-7.271-12.093-13.193-12.259S359.574,633.276,366.087,626Z" transform="translate(-239.333 -314.5)"/><path class="d" d="M366.087,626a5.313,5.313,0,0,0-.675,1.35c-5.774,6.786-8.852,13.119-3.3,13.281,5.173.162,11.376,9.407,12.865,11.719a5.149,5.149,0,0,1-.18.532s-7.271-12.088-13.193-12.246S359.574,633.276,366.087,626Z" transform="translate(-239.333 -314.5)"/><path class="i" d="M361.44,636.768c0,1.516.171,2.746.379,2.746s.379-1.23.379-2.746-.213-.8-.421-.8S361.44,635.247,361.44,636.768Z" transform="translate(-240.816 -319.767)"/><path class="i" d="M355.926,640.608c1.331.726,2.492,1.165,2.593.98s-.9-.925-2.233-1.65-.8-.2-.925,0S354.59,639.882,355.926,640.608Z" transform="translate(-237.405 -321.795)"/><ellipse class="b" cx="34.485" cy="5.293" rx="34.485" ry="5.293" transform="translate(100.978 360.806)"/><path class="j" d="M390.639,669.266l-.166,1.345-.231,1.9-.092.79-.236,1.9-.1.8-.231,1.9-2.616,21.634c-.236,1.932-3.393,3.435-7.2,3.435H366.032c-3.809,0-6.934-1.5-7.193-3.435L356.2,677.905l-.231-1.9-.1-.8-.236-1.9-.092-.79-.231-1.9-.166-1.345c-.134-1.091,1.572-2.016,3.73-2.016h28.041C389.063,667.25,390.773,668.175,390.639,669.266Z" transform="translate(-237.425 -336.681)"/><path class="k" d="M290.175,623.15l-.231,1.9h-34.7l-.231-1.9Z" transform="translate(-137.127 -289.221)"/><path class="k" d="M290.228,628.98l-.231,1.9H255.946l-.236-1.9Z" transform="translate(-137.503 -292.356)"/><path class="k" d="M290.282,634.81l-.231,1.9h-33.39l-.231-1.9Z" transform="translate(-137.891 -295.491)"/><circle class="b" cx="5.547" cy="5.547" r="5.547" transform="translate(422.315 93.203)"/><ellipse class="b" cx="38.941" cy="3.883" rx="38.941" ry="3.883" transform="translate(279.987 406.644)"/><path class="c" d="M944.329,489.316v107h-9.4l-37.6-27.426V486.3l33.593-3.157,2.062.948,1.946.9Z" transform="translate(-482.523 -213.933)"/><rect class="d" width="9.398" height="112.23" transform="translate(452.408 270.155)"/><path class="d" d="M944.329,484.088v6.153l-9.4.106-37.6.416V486.3l33.593-3.157,2.062.948,1.946.9v-.9Z" transform="translate(-482.523 -213.933)"/><ellipse class="d" cx="7.872" cy="2.27" rx="7.872" ry="2.27" transform="translate(309.692 396.373)"/><path class="d" d="M727.409,806.29a.267.267,0,0,1,0,.065c-.462,2.2-8.09,5.2-8.09,5.2s-4.854.809-7.627,1.5a1.918,1.918,0,0,1-.652.06c2.515-1.724,8.612-5.862,9.435-5.954S725.352,805.906,727.409,806.29Z" transform="translate(-428.807 -411.406)"/></g><g transform="translate(575.828 332.712)"><ellipse class="b" cx="33.881" cy="7.607" rx="33.881" ry="7.607" transform="translate(257.088 276.465)"/><ellipse class="b" cx="61.123" cy="5.017" rx="61.123" ry="5.017" transform="translate(308.574 303.212)"/><ellipse class="b" cx="61.123" cy="7.607" rx="61.123" ry="7.607" transform="translate(63.159 293.016)"/><ellipse class="b" cx="45.991" cy="7.607" rx="45.991" ry="7.607" transform="translate(171.484 254.938)"/><path class="l" d="M500.3,220.9c-.973-6.548-6.922-21.829-6.922-21.829h0q-.155-.676-.351-1.351c-4.22-14.5-10.061-15.763-10.061-15.763l-20.924-4.5a1.621,1.621,0,0,1,.45.419,2.9,2.9,0,0,0-.329.05,8.2,8.2,0,0,1-1.833-3.963c-.041-.216-.077-.45-.1-.671a14.718,14.718,0,0,0-1.2-22.126c-.221-.171-.45-.338-.671-.5a3.335,3.335,0,0,0,.279-3.968c-1.648-3.423-5.233-5.589-8.917-6.647a15.117,15.117,0,0,0-8.656-.185,31.27,31.27,0,0,0-4.531,2.1c-2.779,1.387-5.855,2.486-7.931,4.769a2.327,2.327,0,0,0-.793,1.914,5.166,5.166,0,0,0,.788,1.392,4.2,4.2,0,0,1,.041,3.486,33.785,33.785,0,0,0-1.293,3.351,3.5,3.5,0,0,0,.7,3.364,14.827,14.827,0,0,0,1.306.9,6.85,6.85,0,0,1,1.247,1.4q1.243,1.666,2.477,3.346a34.468,34.468,0,0,1,3.1,4.715,22.982,22.982,0,0,0,1.919,3.6,5.341,5.341,0,0,0,.824.865l-.243-.095a3.752,3.752,0,0,0,2.752,1.121h.126a.757.757,0,0,0,.5-.207c0,.153,0,.306,0,.45.05,1.608.041,3.319-.072,4.927l-.194-.1a1.689,1.689,0,0,0-1.8.189l-19.262,15.456s-4.188,5.729-3.6,15.619l-3.378,14.83s-4.22,12.583-.973,21.568,5.13,14.123,5.13,14.123,1.3,10.21,3.247,11.043,2.792,1.284,2.792,1.284l.387,2.441h0s.131.239.36.64c1.419,2.468,6.674,11.178,9.728,10.246a39.045,39.045,0,0,1,.5,7.156l3.022,20.289s2.108,5.517,1.977,8.408,2.459,7.012,2.459,7.012a13.4,13.4,0,0,0-1.3,9.435c1.234,5.4,2.792,30.3,2.792,30.3l2.252,6.035-.063,7.075a6.755,6.755,0,0,1-1.4,3.153c-1.459,1.585-1.351,3.418-4.868,5.584s-5.747,2.986-5.747,5.855a7.529,7.529,0,0,1-.108,1.193c-.324,2.108-.955,3.252,5.512,3.864a17.051,17.051,0,0,0,12.664-4.233s1.117-2.027,6.377-2.846c0,0,1.8-.095,1.9-1.684.036-.549.027-1.6,0-2.756-.086-2.2-.3-4.774-.576-4.9-.351-.158-.964-2.373-1.175-3.175h1.464s1.351-10.21,0-16.821a27.289,27.289,0,0,1-.131-11.3l-.261-17.46s-1.8-1.928-.387-5.332,0-20.221,0-20.221.522-6.035,2.013-7.449.072-8.841,0-9.228L464,305.478s1.166,17.717,3.639,20.924l.712,8.025s5.062,7.386,4.089,11.363,1.04,18.361,1.04,18.361v14.7s-2.274,5.9.9,8.025l1.351-.054c-.45.419-.8,1.049-1.324,1.594-.608.626-.955,3.008-1.148,5.058-.162,1.734-.216,3.225-.216,3.225a5.31,5.31,0,0,0,3.9,2.31c2.545.149,10.93,6.526,10.93,6.526s8.282,0,10.426-.45l.126-.032a2.815,2.815,0,0,0,1.617-1.32,3.378,3.378,0,0,0,.387-2.427c-.266-1.266-1.27-2.653-3.495-3.833-5.535-2.918-6.359-5.652-6.359-5.652l-3.634-5.454h.518a23.33,23.33,0,0,1,3.634-12.263l-.257-28.566s1.621-9.822-1.166-15.155c0,0-.23-5.647,1.635-7.381s-2.482-19.257-2.482-19.257-.9-9.408-1.959-17.992h0c4.382,4.157,8.926-10.809,9.692-13.47h.113l-.05-.194c.032-.126.05-.189.05-.189h0s-.973-3.459-.261-2.756,2.468-1.928,2.468-1.928-.261-14.317,2.792-21.532S500.3,220.9,500.3,220.9Zm-13.06,9.111.023-.041c.45,8.741-.086,27.4-.086,27.4s-.6,2.391-1.248,5.206l-.45-17.722h0l-.45-16.695Zm-55.894-6.026s2.207,27.6,0,31.584a20.854,20.854,0,0,0-1.59,5.454c-.73-1.914-2.274-6.409-1.72-8.791.716-3.08-1.428-11.173-1.428-11.363a19.2,19.2,0,0,1,1.351-7.8c1.545-3.3.531-4.724.531-4.724S429.791,222.94,431.35,223.985Z" transform="translate(-248.463 -139.315)"/><path class="m" d="M453.214,448.618c-1.923,8.453-9.57-4.328-11.313-7.395-.225-.4-.351-.635-.351-.635l.829-3.887,4.382-1.8a12.24,12.24,0,0,1,1.964,1.279A11.838,11.838,0,0,1,453.214,448.618Z" transform="translate(-264.95 -301.78)"/><path class="m" d="M583.8,432.006a.59.59,0,0,1-.05.189.957.957,0,0,1-.059.2c-.752,2.639-5.211,17.5-9.516,13.371-4.711-4.5-2.423-14.916-2.423-14.916h.031l9.908-1.013,1.964,2.018h0Z" transform="translate(-336.209 -298.999)"/><path class="n" d="M512.485,506.518l.252,28.373a23.27,23.27,0,0,0-3.567,12.16l-12.808.5c-3.125-2.1-.9-7.962-.9-7.962v-14.61s-1.977-14.272-1.022-18.226-4.013-11.259-4.013-11.259l-.7-7.967c-2.423-3.184-3.571-20.771-3.571-20.771l-2.6-8.881c.072.383,1.423,7.8,0,9.16s-1.977,7.39-1.977,7.39,1.4,16.7,0,20.073.378,5.292.378,5.292l.257,17.334a27.107,27.107,0,0,0,.126,11.214c1.338,6.562,0,16.7,0,16.7H468.6l.063-7.075-2.225-5.99s-1.531-24.725-2.743-30.08a13.438,13.438,0,0,1,1.27-9.367s-2.545-4.076-2.418-6.945-1.964-8.341-1.964-8.341l-2.963-20.136a39.117,39.117,0,0,0-1.468-11.471c-1.72-5.738-4.269-13.259-4.269-13.259l2.878.257,14.52,1.293s35.3-2.373,36.884-.4a6.626,6.626,0,0,1,.667,2.058c1.585,7.12,3.679,29.427,3.679,29.427s4.269,17.4,2.436,19.118-1.608,7.323-1.608,7.323C514.084,496.746,512.485,506.518,512.485,506.518Z" transform="translate(-270.628 -300.395)"/><path class="o" d="M488.281,689.958c-.1,1.581-1.86,1.675-1.86,1.675-5.161.811-6.26,2.819-6.26,2.819a16.577,16.577,0,0,1-12.425,4.206c-6.35-.612-5.733-1.743-5.4-3.837a7.934,7.934,0,0,0,.1-1.18c0-2.869,2.2-3.684,5.639-5.855s3.346-3.968,4.778-5.544,1.581-4.634,1.581-4.634c1.621-2.824,5.733.45,5.733.45.194,1,6.305.86,6.305.86s.811,3.252,1.229,3.441c.275.126.482,2.675.563,4.864C488.308,688.372,488.317,689.413,488.281,689.958Z" transform="translate(-276.269 -434.551)"/><path class="d" d="M488.281,703.1c-.1,1.581-1.86,1.675-1.86,1.675-5.161.811-6.26,2.819-6.26,2.819a16.577,16.577,0,0,1-12.425,4.206c-6.35-.612-5.733-1.743-5.4-3.837,2.837.7,8.26,1.684,11.426-.036,4.4-2.387,7.557-4.053,7.557-4.053l6.954-3.5C488.308,701.519,488.317,702.56,488.281,703.1Z" transform="translate(-276.269 -447.698)"/><path class="o" d="M574.248,700.691A2.747,2.747,0,0,1,572.662,702l-.122.032c-2.1.45-10.232.45-10.232.45s-8.219-6.355-10.705-6.5a5.228,5.228,0,0,1-3.824-2.3s.049-1.477.207-3.2c.194-2.036.531-4.4,1.13-5.022,1.1-1.148,1.351-2.7,3.824-1.72,0,0,3.531-6.224,7.692-1.414l4.305,6.53s.811,2.7,6.265,5.634c2.18,1.171,3.152,2.549,3.427,3.806A3.356,3.356,0,0,1,574.248,700.691Z" transform="translate(-323.338 -436.777)"/><path class="d" d="M574.248,712.871c-.486.41-1.022.851-1.585,1.311l-.122.031c-2.1.45-10.232.45-10.232.45s-8.219-6.354-10.705-6.5a5.228,5.228,0,0,1-3.824-2.3s.049-1.477.207-3.2c2.531.757,6.364,2.094,7.39,3.535,1.576,2.193,6.364,5.256,6.364,5.256s8.926-.86,12.889-.977A3.356,3.356,0,0,1,574.248,712.871Z" transform="translate(-323.338 -448.957)"/><path class="m" d="M500.368,213.287l-11.754,12.425s-14.245-1.049-11.759-5.256c1.266-2.144,1.464-6.629,1.351-10.529-.1-3.761-.491-6.963-.491-6.963s19.978-9.944,18.465-.671a15.262,15.262,0,0,0-.054,5.292C496.977,212.27,500.368,213.287,500.368,213.287Z" transform="translate(-284.195 -171.757)"/><path class="d" d="M497.567,202.294a15.263,15.263,0,0,0-.054,5.292,14.664,14.664,0,0,1-10.457,4.364c-2.7,0-5.625-2.22-7.809-3.5-.1-3.765-.126-5.481-.126-5.481S499.1,193.021,497.567,202.294Z" transform="translate(-285.6 -171.757)"/><path class="m" d="M493.483,176.209a14.722,14.722,0,1,1-5.539-11.5A14.722,14.722,0,0,1,493.483,176.209Z" transform="translate(-277.31 -151.504)"/><path class="d" d="M509.549,435.889c-3.666,8.724-27.247,8.9-27.247,8.9v-9.512l-1.428-.095c.617,2.725-.865,9.367-.865,9.367-18.636,2.63-23.18-7.989-23.18-7.989l.648-3.634L472,434.223s35.3-2.373,36.885-.4A6.624,6.624,0,0,1,509.549,435.889Z" transform="translate(-273.349 -300.697)"/><path class="h" d="M482.3,330.776v-9.512l-1.428-.09c.617,2.7-.865,9.368-.865,9.368-14.024,1.977-20.068-3.544-22.2-6.4a8.714,8.714,0,0,1-.982-1.585l5.693-32.021,1.351-47.126,2.04-8.269.473-3.968v-.045h.049l1.45.622,8.678,3.751,9.858-7.444.144-.1.491-.374.815.653,2.027,1.626,6.5,41.969s11.259,32.313,13.367,45.356c.086.522.153,1.009.207,1.464C511.364,330.555,482.3,330.776,482.3,330.776Z" transform="translate(-273.349 -187.829)"/><circle class="p" cx="0.838" cy="0.838" r="0.838" transform="translate(203.432 47.763)"/><circle class="p" cx="0.838" cy="0.838" r="0.838" transform="translate(203.82 55.41)"/><circle class="p" cx="0.838" cy="0.838" r="0.838" transform="translate(204.657 67.791)"/><circle class="p" cx="0.838" cy="0.838" r="0.838" transform="translate(206.04 81.126)"/><circle class="p" cx="0.838" cy="0.838" r="0.838" transform="translate(206.878 93.646)"/><circle class="p" cx="0.838" cy="0.838" r="0.838" transform="translate(207.715 106.981)"/><circle class="p" cx="0.838" cy="0.838" r="0.838" transform="translate(207.382 120.172)"/><path class="d" d="M466.94,299.363s-.937,12.263-2.657,15.83-2.486,13.574-2.486,13.574l-3.995-.45a8.713,8.713,0,0,1-.982-1.585l5.693-32.021,1.351-47.126,2.045-8.273.473-3.968.054-.023a1.612,1.612,0,0,1,1.423.023l.189.1q-.086.243-.162.5c-1.558,4.877-2.139,13.867-2.139,13.867s2.252,16.443,2.486,24.09S466.94,299.363,466.94,299.363Z" transform="translate(-273.343 -191.999)"/><path class="d" d="M448.724,436.193a2.313,2.313,0,0,1-.153.3c-1.549,2.617-5.476,4.278-6.67,4.733-.225-.4-.351-.635-.351-.635l.829-3.887,4.382-1.8A12.242,12.242,0,0,1,448.724,436.193Z" transform="translate(-264.95 -301.78)"/><path class="p" d="M422.8,298.81l-3.634,2.166-3.31,14.722s-4.143,12.488-.959,21.41,5.035,14.029,5.035,14.029,1.275,10.133,3.189,10.962,2.738,1.275,2.738,1.275l.383,2.423s5.188-1.761,7.021-4.864-1.351-10.809-1.351-10.809-2.738-6.566-2.036-9.624-1.405-11.088-1.405-11.259a19.082,19.082,0,0,1,1.351-7.746c1.54-3.283.513-4.684.513-4.684l-.959-9.367Z" transform="translate(-249.636 -226.98)"/><path class="d" d="M545.682,320.654s-9.624,3.63-12.682.45-2.743-18.1-2.743-18.1-2.927-27.531-4.778-32.052-.9-37.155-.9-37.155-1.243-4.22-2.328-5.323a1.18,1.18,0,0,0-.23-.185l.374.081,1.306.279,2.027,1.626,6.5,41.969s11.259,32.313,13.367,45.356Z" transform="translate(-309.18 -188.219)"/><path class="d" d="M584.466,432.378h-.108c-1.211.158-11.9,1.45-11.948-.775a6.518,6.518,0,0,1,.041-.77l9.908-1.013,1.964,2.018h0c.036.131.063.243.09.333Z" transform="translate(-336.876 -298.988)"/><path class="p" d="M574.206,266.07l7.026,3.666s5.855,15.159,6.791,21.658c0,0,4.337,17.411,1.351,24.572s-2.738,21.374-2.738,21.374-1.72,2.612-2.423,1.914.257,2.738.257,2.738-12.011,1.594-12.061-.766,2.756-13.637,2.756-13.637.766-26.828-.32-31.034S574.206,266.07,574.206,266.07Z" transform="translate(-336.875 -208.984)"/><path class="d" d="M522.85,329.52s-3.954,9.683-5.229,10.322.257,3.184.257,3.184S525.08,332.961,522.85,329.52Z" transform="translate(-306.483 -243.859)"/><path class="d" d="M517.082,254.094c.045-.185-4.715,4.67-5.99,5.4S515.745,259.453,517.082,254.094Z" transform="translate(-303.075 -202.399)"/><path class="d" d="M487.379,327.82s-7.264,4.7-6.305,6.557S487.379,327.82,487.379,327.82Z" transform="translate(-286.626 -242.925)"/><path class="d" d="M524.47,480.07a38.886,38.886,0,0,0,15.8,4.954Z" transform="translate(-310.526 -326.607)"/><path class="d" d="M491.5,501.3s5.733,7.206,8.35,7.39S491.5,501.3,491.5,501.3Z" transform="translate(-292.405 -338.276)"/><path class="d" d="M500.888,564c-.257.126-3.252,6.5-6.305,6.692S500.888,564,500.888,564Z" transform="translate(-293.762 -372.738)"/><path class="d" d="M568.33,594.77s5.684-1.274,6.949,2.8C575.279,597.557,574.9,596.283,568.33,594.77Z" transform="translate(-334.633 -389.547)"/><path class="d" d="M559.84,646.153s6.886-1.405,8.35.509S559.84,646.153,559.84,646.153Z" transform="translate(-329.967 -417.62)"/><path class="d" d="M508.337,654c0,.063-7.008,1.405-6.755,2.3s7.476.766,7.733-.64a1.351,1.351,0,0,0-.977-1.657Z" transform="translate(-297.942 -422.206)"/><path class="d" d="M554.75,666.925s11.516-1.405,10.809,1.018S554.75,666.925,554.75,666.925Z" transform="translate(-327.169 -429.088)"/><path class="d" d="M420.89,352.44c.063.189,7.584,1.211,8.6,3.634,0,0-7.39-3.445-8.557-3.445" transform="translate(-253.595 -256.457)"/><path class="d" d="M437.273,396.16s-6.246,1.977-5.8,4.954S430.837,399.736,437.273,396.16Z" transform="translate(-259.398 -280.487)"/><path class="d" d="M437.92,426.644s2.274-3.121,4.441-2.549S437.92,426.644,437.92,426.644Z" transform="translate(-262.955 -295.802)"/><path class="d" d="M487.97,164.7a3.542,3.542,0,0,1-.73.545c-1.8,1.049-2.3,2.666-3.153,4.531-.8,1.707-1.675,3.513-3.283,4.481-2.076,1.252-4.81.793-6.967,1.882a5.4,5.4,0,0,0-2.882,5.328,15.366,15.366,0,0,0,.612,2.441,17.407,17.407,0,0,1,.658,5.3.906.906,0,0,1,0,.158A14.718,14.718,0,1,1,487.989,164.7Z" transform="translate(-277.337 -151.501)"/><path class="q" d="M478.617,149.848c-1.617-3.4-5.134-5.548-8.75-6.6a14.7,14.7,0,0,0-8.5-.18,31.175,31.175,0,0,0-4.445,2.085c-2.729,1.378-5.729,2.468-7.782,4.733a2.372,2.372,0,0,0-.779,1.9,5.307,5.307,0,0,0,.77,1.378,4.182,4.182,0,0,1,.041,3.463,31.765,31.765,0,0,0-1.27,3.328,3.5,3.5,0,0,0,.685,3.337,12.485,12.485,0,0,0,1.288.9,6.778,6.778,0,0,1,1.22,1.387l2.432,3.324a33.711,33.711,0,0,1,3.044,4.679,22.3,22.3,0,0,0,1.883,3.571,4.075,4.075,0,0,0,3.414,1.824.662.662,0,0,0,.54-.257.712.712,0,0,0,.068-.338,17.286,17.286,0,0,0-.644-5.283,15.245,15.245,0,0,1-.612-2.441,5.427,5.427,0,0,1,2.882-5.328c2.162-1.09,4.9-.63,6.967-1.878,1.612-.973,2.49-2.779,3.283-4.5.869-1.864,1.351-3.481,3.153-4.531S479.513,151.636,478.617,149.848Z" transform="translate(-268.366 -141.077)"/><path class="d" d="M501.63,693.06s2.252,2.869,1.666,4.5S501.63,693.06,501.63,693.06Z" transform="translate(-297.972 -443.675)"/><path class="d" d="M569.28,704.2s.5-3.846,2.5-3.882,2.1-.207,3.634.383,2.968,1.5,2.509,1.639-2.635-2.2-4.868-1A16.086,16.086,0,0,0,569.28,704.2Z" transform="translate(-335.156 -447.636)"/><path class="d" d="M479.543,244.682l6.305-4.418s-9.223-5.449-10.322-4.684-1.855,7.656-1.855,7.656Z" transform="translate(-282.605 -192.185)"/><path class="r" d="M479.483,243.947l6.305-4.5s-9.223-5.449-10.322-4.684-1.855,8.034-1.855,8.034Z" transform="translate(-282.572 -191.735)"/><path class="h" d="M479.483,243.947l6.305-4.5s-9.223-5.449-10.322-4.684-1.855,8.034-1.855,8.034Z" transform="translate(-282.572 -191.735)"/><path class="p" d="M450.187,234.6,450,234.5a1.635,1.635,0,0,0-1.77.185l-18.915,15.344s-4.112,5.688-3.54,15.5l11.155,15.8s1.275-5.35,2.8-4.332c0,0,2.166,27.4,0,31.354s-3.121,18.735-3.121,18.735l7.327.829s.766-10.007,2.486-13.574,2.657-15.83,2.657-15.83,1.549-17.816,1.293-25.463-2.486-24.09-2.486-24.09S448.512,239.326,450.187,234.6Z" transform="translate(-256.249 -191.535)"/><path class="d" d="M512.3,237.93l-7.859-2.909s10.007-10.962,11.259-4.882Z" transform="translate(-299.517 -188.225)"/><path class="r" d="M512.3,237.08l-7.859-2.909s10.007-10.962,11.259-4.882Z" transform="translate(-299.517 -187.758)"/><path class="h" d="M512.3,237.08l-7.859-2.909s10.007-10.962,11.259-4.882Z" transform="translate(-299.517 -187.758)"/><path class="d" d="M521.32,228.113a.45.45,0,0,1,.324.072Z" transform="translate(-308.795 -188.119)"/><path class="p" d="M523,226.42l20.852,4.5s5.738,1.275,9.881,15.677-5.674,32.048-5.674,32.048l-2.166-1.842,1.085,42.059s-9.624,3.63-12.682.45-2.738-18.113-2.738-18.113-2.932-27.526-4.783-32.052-.9-37.15-.9-37.15S524.171,226.168,523,226.42Z" transform="translate(-309.718 -187.187)"/><path class="d" d="M565.026,285.709c-.293.27-.635,13,.64,22.685a123.622,123.622,0,0,0,3.6,17.46l-1.892-38.808S565.918,284.881,565.026,285.709Z" transform="translate(-332.667 -219.675)"/><path class="d" d="M559.7,261.6c.509.32,2.743,5.607,1.72,7.773S559.7,261.6,559.7,261.6Z" transform="translate(-329.89 -206.527)"/><path class="d" d="M492.25,152.931a11.511,11.511,0,0,0-4.585-4.8,10.9,10.9,0,0,1,3.436,4.053c.9,1.8.635,3.6-1.117,4.589s-2.3,2.666-3.153,4.531c-.8,1.707-1.675,3.513-3.288,4.5-2.072,1.252-4.805.788-6.967,1.878a5.44,5.44,0,0,0-2.882,5.332,15.308,15.308,0,0,0,.617,2.436,17.421,17.421,0,0,1,.658,5.3.711.711,0,0,1-.072.338.644.644,0,0,1-.536.257,3.1,3.1,0,0,1-1.572-.293,3.657,3.657,0,0,0,2.7,1.058.531.531,0,0,0,.6-.594,17.281,17.281,0,0,0-.653-5.3,14.793,14.793,0,0,1-.617-2.441,5.427,5.427,0,0,1,2.882-5.328c2.162-1.09,4.9-.63,6.967-1.878,1.612-.973,2.491-2.779,3.283-4.5.869-1.865,1.351-3.481,3.153-4.531S493.151,154.719,492.25,152.931Z" transform="translate(-282.121 -144.16)"/><path class="s" d="M693.729,222.123c-6.206-.122-11.682-4.5-14.785-9.858a9.907,9.907,0,0,1-1.5-4.22,4.869,4.869,0,0,1,.171-1.009,10.465,10.465,0,0,0,.45-1.545,2.7,2.7,0,0,0,0-.63s0,0,0-.036a3.726,3.726,0,0,0-1.351-3.031c-.829-.779-1.869-1.351-2.734-2.126-2.666-2.342-3.477-6.1-3.526-9.674V189.8c.032-1.531.153-3.067.14-4.6a19.334,19.334,0,0,0-.113-2.6,8.6,8.6,0,0,0-2.783-5.756c-4.441-3.6-11.907.149-16.506-3.256-1.117-.833-2.022-2.063-3.378-2.387a5.69,5.69,0,0,0-3.085.419c-3.387,1.117-7.165,2.585-8.489,5.855-.757,1.878-.545,4.022-1.238,5.922a29.571,29.571,0,0,1-1.937,3.576,5.6,5.6,0,0,0-.721,2.986,3.369,3.369,0,0,0,.221,1.59,4.053,4.053,0,0,0,1.1,1.581,5.251,5.251,0,0,1-.658,1.054c-.865,1.058-2.193,1.8-3.094,2.855-1.666,1.932-1.6,4.558-.784,6.827s2.3,4.337,3.324,6.548a3.515,3.515,0,0,1,.338,2.986,8.567,8.567,0,0,1-1.5,1.738,5.463,5.463,0,0,0-1.351,3.017c-10.138,2.315-10.147,10.462-10.147,10.462h0l-5.476,13.772s-.878,2.319-1.909,5.382l-6.481-1.162,4.5,7.539c-.851,3.071-1.455,5.918-1.256,7.35,0,0-2.013,9.458,1.567,11.11l7.9,3.553a4.679,4.679,0,0,0,1.094.491l.32.144a.847.847,0,0,0,.739,0h.108a1.063,1.063,0,0,0,.45-.068.9.9,0,0,0,.4-.428.136.136,0,0,1,0-.045l2.364-.685,2,2.373c.9.635,1.8,1.184,2.653,1.68l-3.1,30.814s-.5,40.983-2.013,50.323a26.156,26.156,0,0,0-.351,7.422l-.059.1c.374,2.635,1.351,3.153,1.351,3.153V371.4a.3.3,0,0,0,.059.036,26.532,26.532,0,0,1,1.621-3.477v.676c-.031,3.477-.14,8.345-.5,11.511-.612,5.4,1.567,23.216,1.567,23.216l.752,16.213a14.988,14.988,0,0,1-1.846,7.9c-1.8,3.238-4.1,7.8-4.269,9.818a2.039,2.039,0,0,0,0,.329h0l-3.864,4.648s-1.509,2.333,1.9,3.274c1.833.509,4.995,0,7.535-.6a5.035,5.035,0,0,0,3.9-4.9,17.338,17.338,0,0,1,3.189-6.12l.635,3.733,4.251,1.054.545-10.232a4.505,4.505,0,0,0,.293-1.8h0c.838-7.278-1.973-6.625-1.973-6.625a.392.392,0,0,1,.135.252l-.135-.248h0c-1.725-3.4-.9-9.007-.9-9.007s2.252-16.213,3.022-20.5c.554-3.026.324-12.934.14-18.465a6.591,6.591,0,0,0-.023-.671c6.593-.086,14.673-.306,20.343-.856v.667l-1.045,38.3a21.027,21.027,0,0,1-1.468,7.125.389.389,0,0,1-.049.131,31.076,31.076,0,0,0-2.076,10.039l-.486,12.16v.338h0c-.847.324-2.184,1.266-2.22,3.995-.059,4,6.99,2.666,6.99,2.666,7.044,0,7.1-7.332,7.1-7.332s.221-6.724.558-11.223-1.063-3.508-1.063-3.508l-.108,12.8V425.6l.108-1.626v-.045h0v-.347l.887-13.2s6.49-22,7.494-26.215c.716-3,.419-12.034.185-17.028a3.973,3.973,0,0,0-.036-.662c2.013-.18,3.792-.2,4.5-.2h.329s-.333-35.326-1.175-48.639-2.18-25.495-5.535-29.161c-2.027-2.216-4.85-9.057-6.755-14.123a70.653,70.653,0,0,0,12.416,4.053c10.624,2.225,9.169-7,9.169-7l-1.076-17.442h.072a88.934,88.934,0,0,0-1.171-13.637,40.123,40.123,0,0,0-2.738-9.908c1.153-.45,2.292-.932,3.409-1.428,2.887-1.275,6.138-3.08,6.553-6.192h-.14a4.013,4.013,0,0,0,.108-.685Zm-65.856,25.22h0c.023,1.8-.045,4.927-.153,8.381l-3.373-4.5,3.382-5.485ZM673.071,256.49Zm1.405,6.814-5.62-1.8a25.219,25.219,0,0,1,3.472-4.3l.486-.45-.176.036.27-.248.162-.036-.257.248.306-.063a9.588,9.588,0,0,0,1.914,3.851c2.018,2.2-.554,2.761-.554,2.761Z" transform="translate(-355.305 -156.796)"/><path class="t" d="M644.153,715.66l-.658,12.466-4.193-1.049-.883-5.184Z" transform="translate(-359.124 -447.026)"/><path class="d" d="M644.153,715.66l-.658,12.466-4.193-1.049-.883-5.184Z" transform="translate(-359.124 -447.026)"/><path class="u" d="M716.48,670.084l6.4,1.324,4.742-4.188v-11.8l.108-1.612v-.05h0v-.342l.883-13.119s6.4-21.838,7.395-26.031c.7-2.972.41-11.944.176-16.9-.095-2.031-.176-3.391-.176-3.391l-14.119-3.418-.3,10.854-1.031,38.028a21.074,21.074,0,0,1-1.446,7.075l-.049.131a30.949,30.949,0,0,0-2.049,9.962l-.477,12.092v.333Z" transform="translate(-416.063 -387.331)"/><path class="d" d="M741.45,730.139v.333h0v-.342Z" transform="translate(-429.787 -464.05)"/><path class="d" d="M716.48,762.429l6.4,1.324,4.742-4.188v-1a1.351,1.351,0,0,1-.68,1.081l-.068.041a12.745,12.745,0,0,1-7.179,1.419l-2.495-.212a2.333,2.333,0,0,0-.662.162v.333Z" transform="translate(-416.063 -479.676)"/><path class="o" d="M724.242,744.689l.068-.036a1.351,1.351,0,0,0,.689-1.171l.1-12.7s1.378-.986,1.045,3.481S725.6,745.4,725.6,745.4s-.054,7.278-7,7.278c0,0-6.949,1.324-6.9-2.648s2.869-4.134,2.869-4.134l2.495.216A12.714,12.714,0,0,0,724.242,744.689Z" transform="translate(-413.435 -464.355)"/><path class="u" d="M642.52,672.46c.162,2.869,8.6,1.211,8.6,1.211l5.679-11.025s4.742-3.643,2.369-6.841a5.07,5.07,0,0,1-.347-.545l-.023-.027h0c-.049-.081-.095-.167-.14-.257h0c-1.7-3.378-.865-8.917-.865-8.917s2.2-16.1,2.977-20.352c.545-3,.32-12.84.14-18.343-.072-2.288-.14-3.824-.14-3.824l-14.011-3.752v4.179c-.031,3.454-.14,8.287-.5,11.43-.6,5.346,1.545,23.049,1.545,23.049l.743,16.109a14.921,14.921,0,0,1-1.8,7.841c-1.756,3.216-4.053,7.746-4.211,9.75a1.969,1.969,0,0,0-.023.311Z" transform="translate(-375.411 -392.41)"/><path class="d" d="M642.515,740.159c.162,2.869,8.6,1.211,8.6,1.211l5.679-11.025s4.742-3.643,2.369-6.841a5.091,5.091,0,0,1-.347-.545c-.077,1.671-1.909,5.855-1.909,5.855s-4.688,9.381-6.179,11.529-7.967-.4-8.21-.491A1.966,1.966,0,0,0,642.515,740.159Z" transform="translate(-375.406 -460.109)"/><path class="o" d="M653.549,722.282s2.774-.644,1.946,6.58h0a4.652,4.652,0,0,1-2.193,4.13,15.772,15.772,0,0,0-6.6,9.151h0a4.99,4.99,0,0,1-3.85,4.864c-2.5.585-5.625,1.1-7.431.594-3.364-.937-1.873-3.252-1.873-3.252l3.86-4.58s6.728,2.648,8.215.5S651.8,728.74,651.8,728.74,654.373,722.89,653.549,722.282Z" transform="translate(-370.299 -459.728)"/><path class="d" d="M728.117,593.52l-.3,10.854c3.76-.365,6.454-.874,6.913-1.59,1-1.54,4.607-2.189,7.679-2.454-.095-2.031-.176-3.391-.176-3.391Z" transform="translate(-422.296 -388.964)"/><path class="d" d="M651.94,606.9a5.153,5.153,0,0,1,1.545-1.865c1.486-.824,1.324,5.3,1.324,5.3s4.954.045,11.281-.036c-.072-2.288-.14-3.828-.14-3.828L651.94,602.72S651.967,604.458,651.94,606.9Z" transform="translate(-380.589 -394.021)"/><path class="n" d="M646.608,490.424s1.657-4.5,3.153-5.305,1.324,5.292,1.324,5.292,36.4.333,38.218-2.482,12.407-2.648,12.407-2.648-.329-35.074-1.157-48.306-2.148-25.315-5.458-28.954c-2.139-2.355-5.184-9.975-7.066-15.056-1.022-2.774-1.7-4.8-1.7-4.8l-34.741,1.982-.284,2.815-3.688,36.894s-.5,40.7-1.986,49.963S646.608,490.424,646.608,490.424Z" transform="translate(-376.856 -276.095)"/><g class="v" transform="translate(268.334 112.075)"><path d="M696.2,487.929c1.8-2.81,12.407-2.648,12.407-2.648s-.329-35.074-1.157-48.306-2.148-25.315-5.458-28.954c-2.148-2.364-5.184-9.975-7.066-15.056-.86-2.333-1.477-4.13-1.648-4.643l2.7-.153s.68,2.022,1.707,4.8c1.883,5.08,4.922,12.7,7.062,15.056,3.31,3.639,4.634,15.718,5.458,28.954s1.162,48.306,1.162,48.306-10.588-.162-12.412,2.648c-1.554,2.4-28.337,2.513-36.11,2.491C672.826,490.4,694.8,490.1,696.2,487.929Z" transform="translate(-654.919 -388.17)"/><path d="M646.983,603.346c.671-.374,1,.662,1.171,1.919a25.978,25.978,0,0,0-1.563,3.387s-.959-.518-1.351-3.153A6.13,6.13,0,0,1,646.983,603.346Z" transform="translate(-645.24 -506.396)"/></g><path class="q" d="M663.774,193.666c-2.4,3.279.027,7.94-2.554,11.128-.851,1.054-2.162,1.8-3.049,2.837-1.644,1.919-1.581,4.526-.775,6.778s2.252,4.305,3.279,6.5a3.479,3.479,0,0,1,.333,2.963,8.391,8.391,0,0,1-1.477,1.725,6.221,6.221,0,0,0-.811,6.6A21.368,21.368,0,0,0,663,238.1a2.917,2.917,0,0,0,4.238.968,16.663,16.663,0,0,0,7.584-21.748c-1.4-3.346-3.725-6.553-3.747-10.088,0-2.806,1.441-5.485,1.7-8.278.311-3.4-1.7-8.787-5.8-10.268C667.242,190.87,664.995,191.982,663.774,193.666Z" transform="translate(-383.285 -166.453)"/><path class="d" d="M663.774,193.666c-2.4,3.279.027,7.94-2.554,11.128-.851,1.054-2.162,1.8-3.049,2.837-1.644,1.919-1.581,4.526-.775,6.778s2.252,4.305,3.279,6.5a3.479,3.479,0,0,1,.333,2.963,8.391,8.391,0,0,1-1.477,1.725,6.221,6.221,0,0,0-.811,6.6A21.368,21.368,0,0,0,663,238.1a2.917,2.917,0,0,0,4.238.968,16.663,16.663,0,0,0,7.584-21.748c-1.4-3.346-3.725-6.553-3.747-10.088,0-2.806,1.441-5.485,1.7-8.278.311-3.4-1.7-8.787-5.8-10.268C667.242,190.87,664.995,191.982,663.774,193.666Z" transform="translate(-383.285 -166.453)"/><path class="d" d="M699.241,464.55c-4.814.252-9.345,2.324-13.56,4.666s-8.3,4.995-12.831,6.656" transform="translate(-392.082 -318.077)"/><path class="d" d="M697.229,489.74a19.847,19.847,0,0,0-12.5,6.08c-1.171,1.238-2.18,2.626-3.4,3.815a15.105,15.105,0,0,1-6.7,3.8" transform="translate(-393.06 -331.922)"/><path class="d" d="M693.741,508.91a21.852,21.852,0,0,0-10.052,6.062c-.739.8-1.41,1.648-2.148,2.445-3.986,4.278-9.615,6.548-15.051,8.7" transform="translate(-388.586 -342.459)"/><path class="u" d="M702.769,242.776a98.841,98.841,0,0,0,.991,11.493c.45,2.7,1.081,5.134,1.986,6.21,2.648,3.153-12.9,7.363-12.9,7.363l-9.183-7.116s7.278-6.7,3.887-13.236S702.769,242.776,702.769,242.776Z" transform="translate(-398.023 -196.053)"/><path class="d" d="M658.79,392.966h36.727c-1.022-2.774-1.7-4.8-1.7-4.8l-34.741,1.982Z" transform="translate(-384.354 -276.095)"/><path class="h" d="M644.79,328.585h39.267a13.625,13.625,0,0,1,1.572-10.412,23.013,23.013,0,0,1,4.112-5.332l.27-.248,13.709-3.035.739-.162s.113-24.927-8.714-28.35A51.606,51.606,0,0,1,681.625,273L669.5,276.744l-8.935-4.5c-2.869,3.085-10.48,1.874-10.48,1.874-12.461,1.432-12.461,10.809-12.461,10.809s7.278,16.983,7.832,16.983S644.79,328.585,644.79,328.585Z" transform="translate(-372.718 -212.376)"/><path class="d" d="M670.542,356.207s-8.007-1.774-10.732-4.877" transform="translate(-384.914 -255.847)"/><path class="d" d="M761.956,341.51l-9.286,7.611a15.812,15.812,0,0,0,.306,1.8l.27-.248,13.709-3.035Z" transform="translate(-435.954 -250.449)"/><path class="d" d="M717.46,378.279s2.031,1.144,5.143,2.648h5.337a13.625,13.625,0,0,1,1.572-10.412L720.1,367.47C723.306,370.447,717.46,378.279,717.46,378.279Z" transform="translate(-416.601 -264.718)"/><path class="h" d="M629.665,293.76l-5.512,2.977-5.4,13.677s-5.625,15-5.076,18.969c0,0-1.982,9.376,1.545,11.029l9.187,4.161a.856.856,0,0,0,1.1-1.18c-1.311-2.481-2.752-6.364-.45-8.5l-2.648-5.512,9.57-15.664,3.2-5.4Z" transform="translate(-359.251 -224.204)"/><path class="d" d="M677,350.573c.477,1.946,2.09,4.954,7.426,6.075l5.855,4.8,6.229,2.824,2.54,1.148,1.076-7.778-2.445-1.351-2.851-1.558s-6.431-11.651-16.614-6.755A2.252,2.252,0,0,0,677,350.573Z" transform="translate(-394.324 -253.342)"/><path class="u" d="M677.754,349.135c.477,1.95,2.085,4.954,7.422,6.075l5.855,4.8,6.233,2.824,2.536,1.148,1.076-7.778-2.445-1.351-2.828-1.545s-6.436-11.651-16.618-6.733a2.252,2.252,0,0,0-1.229,2.563Z" transform="translate(-394.743 -252.566)"/><circle class="d" cx="14.227" cy="14.227" r="14.227" transform="translate(280.259 28.357)"/><circle class="u" cx="14.227" cy="14.227" r="14.227" transform="translate(280.259 28.028)"/><path class="d" d="M717.658,282.9l-4.278-8.314s6.26-2.531,6.715-5.463,6,3.436,4.8,5.548S717.658,282.9,717.658,282.9Z" transform="translate(-414.359 -210.246)"/><path class="h" d="M717.658,281.431l-4.278-8.314s6.26-2.531,6.715-5.463,6,3.441,4.8,5.548S717.658,281.431,717.658,281.431Z" transform="translate(-414.359 -209.439)"/><path class="w" d="M624.31,343.089l23.639,31.782s-8.714,4.742-20.717-3.747l-5.184-6.179L607.25,340Z" transform="translate(-356.025 -249.619)"/><path class="u" d="M634.124,375.237l2.153-.059s13.151-12.763,16.38-6.305-8.192,12.493-8.192,12.493l-3.472,1.873-4.526,1.351-2.9-3.887Z" transform="translate(-370.492 -264.487)"/><path class="d" d="M633.665,390.473a3.214,3.214,0,0,1,.054,2.225.9.9,0,0,1-.392.428,1,1,0,0,1-.45.063,4.526,4.526,0,0,1-2.968-1.468,13.554,13.554,0,0,1-1.923-2.783,5.134,5.134,0,0,1-.986-3.315,4.834,4.834,0,0,1,2.445-2.855c2.18-1.441,2.252.239,2.729,2.094S633.165,388.6,633.665,390.473Z" transform="translate(-366.858 -272.827)"/><path class="h" d="M632.933,390.473a3.238,3.238,0,0,1,.054,2.225.9.9,0,0,1-.392.428,1.013,1.013,0,0,1-.45.063,4.5,4.5,0,0,1-2.968-1.468,13.4,13.4,0,0,1-1.927-2.783,5.1,5.1,0,0,1-.982-3.315,4.826,4.826,0,0,1,2.441-2.855c2.184-1.441,2.252.239,2.734,2.094S632.428,388.6,632.933,390.473Z" transform="translate(-366.454 -272.827)"/><path class="d" d="M623.85,315.67l1.1-1.86-.959,3.454Z" transform="translate(-351.116 -226.154)"/><path class="d" d="M721.19,374.41l2.536,1.148,1.076-7.778-2.445-1.351C724.045,368.367,722.568,371.947,721.19,374.41Z" transform="translate(-418.651 -264.146)"/><path class="d" d="M729.554,361.984s-8.187.5-11.664-1.734" transform="translate(-416.837 -260.749)"/><g class="v" transform="translate(276.841 60.513)"><path d="M737.078,320.566a23.047,23.047,0,0,1,4.112-5.337,10.97,10.97,0,0,1,1.211-.658l12.763-2.621.739-.162s.113-24.927-8.71-28.35a53.016,53.016,0,0,1-13.763-7.751l.968-.3a51.47,51.47,0,0,0,14.119,8.048c8.827,3.418,8.71,28.35,8.71,28.35H755.9l-13.06,2.5s-.563.545-.734.7a25.312,25.312,0,0,0-4.175,5.521,13.844,13.844,0,0,0-1.094,10.466h-1.351A13.767,13.767,0,0,1,737.078,320.566Z" transform="translate(-702.22 -274.62)"/><path d="M664.13,277.9c.212-.032.414-.063.635-.086a22.831,22.831,0,0,0,2.7.221A24.562,24.562,0,0,1,664.13,277.9Z" transform="translate(-664.13 -275.95)"/><path d="M695.839,278.2l-8.079-4.089a4.274,4.274,0,0,0,.45-.428l8.431,4.265Z" transform="translate(-677.118 -273.68)"/></g><path class="h" d="M743.325,340l5.4,6.62,1.1,17.978s1.432,9.151-9.043,6.945-22.6-9.025-22.6-9.025,5.855-7.832,2.648-10.809l15,4.855s2.536-.554.549-2.756-2.337-6.179-2.337-6.179Z" transform="translate(-417.002 -249.619)"/><path class="d" d="M779.42,382.17l2.977,3.418A4.292,4.292,0,0,1,779.42,382.17Z" transform="translate(-450.657 -272.798)"/><path class="d" d="M736.99,360.8l4.634,5.954-2.315.554Z" transform="translate(-413.302 -251.981)"/><path class="d" d="M665.294,194.672a4.752,4.752,0,0,1,.5-3.878,30.646,30.646,0,0,0,1.914-3.553c.68-1.882.473-4.013,1.216-5.855,1.311-3.265,5.035-4.724,8.372-5.855a5.628,5.628,0,0,1,3.044-.414c1.351.32,2.229,1.545,3.333,2.369,4.531,3.378,11.9-.342,16.281,3.234a8.522,8.522,0,0,1,2.743,5.711,50.423,50.423,0,0,1-.027,6.494c-.072,3.792.639,7.94,3.477,10.453.856.757,1.865,1.324,2.7,2.108A3.69,3.69,0,0,1,710.2,208.5a10.443,10.443,0,0,1-.45,1.531c-.563,1.977.279,4.053,1.306,5.855,3.063,5.3,8.462,9.669,14.583,9.791-.41,3.089-3.6,4.882-6.463,6.147-3.6,1.617-7.44,3.2-11.408,3s-8.106-2.743-8.8-6.652c-.239-1.351-.207-2.977-1.351-3.679-.7-.428-1.612-.32-2.369-.64a4.174,4.174,0,0,1-2-2.81,25.3,25.3,0,0,1-1.175-7.206c-.05-2.9.333-6.066-1.311-8.453-1.522-2.211-4.224-3.333-5.981-5.364-1.621-1.883-3.382-4.152-6.039-4.5C675.067,195,667.465,199.991,665.294,194.672Z" transform="translate(-387.8 -158.947)"/><path class="q" d="M665.294,193.2a4.752,4.752,0,0,1,.5-3.878,30.646,30.646,0,0,0,1.914-3.553c.68-1.883.473-4.013,1.216-5.855,1.311-3.27,5.035-4.729,8.372-5.855a5.629,5.629,0,0,1,3.044-.414c1.351.32,2.229,1.545,3.333,2.369,4.531,3.378,11.9-.342,16.281,3.234a8.523,8.523,0,0,1,2.743,5.715,50.35,50.35,0,0,1-.027,6.49c-.072,3.792.639,7.94,3.477,10.453.856.757,1.865,1.324,2.7,2.108a3.69,3.69,0,0,1,1.351,3.013,10.443,10.443,0,0,1-.45,1.531c-.563,1.977.279,4.053,1.306,5.855,3.071,5.283,8.449,9.665,14.569,9.786-.41,3.089-3.6,4.882-6.463,6.152-3.6,1.612-7.44,3.2-11.408,2.995s-8.106-2.743-8.8-6.652c-.239-1.351-.207-2.977-1.351-3.679-.7-.428-1.612-.32-2.369-.64a4.174,4.174,0,0,1-2-2.81,25.269,25.269,0,0,1-1.175-7.206c-.05-2.9.333-6.066-1.311-8.453-1.522-2.211-4.224-3.333-5.981-5.364-1.621-1.883-3.382-4.152-6.039-4.5C675.067,193.526,667.465,198.53,665.294,193.2Z" transform="translate(-387.8 -158.139)"/><path class="d" d="M684.575,282.373l8.156-6.62s-5.585-3.026-6.251-5.607-5.134,1.225-4.679,3.54S684.575,282.373,684.575,282.373Z" transform="translate(-396.983 -210.75)"/><path class="h" d="M685.318,280.169l8.156-6.616s-5.584-3.026-6.224-5.607-5.134,1.225-4.679,3.54S685.318,280.169,685.318,280.169Z" transform="translate(-397.407 -209.541)"/><circle class="d" cx="0.649" cy="0.649" r="0.649" transform="translate(295.738 68.903)"/><circle class="d" cx="0.649" cy="0.649" r="0.649" transform="translate(295.738 72.506)"/><circle class="d" cx="0.649" cy="0.649" r="0.649" transform="translate(295.738 76.104)"/><g class="v" transform="translate(277.362 20.327)"><path d="M671.857,189.989c.644-1.77.5-3.756,1.108-5.539a6.052,6.052,0,0,0-.689,1.27c-.748,1.86-.536,3.99-1.22,5.855l-.045.108A10.292,10.292,0,0,0,671.857,189.989Z" transform="translate(-668.433 -184.45)"/><path d="M720.165,246.668c-3.6,1.612-7.44,3.2-11.408,2.995s-8.106-2.743-8.8-6.647c-.239-1.351-.207-2.981-1.351-3.684-.7-.428-1.612-.32-2.369-.64a4.174,4.174,0,0,1-2-2.81,25.272,25.272,0,0,1-1.175-7.206c-.049-2.9.338-6.062-1.306-8.453-1.527-2.211-4.229-3.328-5.985-5.364-1.621-1.878-3.382-4.152-6.039-4.5-3.643-.5-11.259,4.5-13.412-.82a4.188,4.188,0,0,1,.14-3.076c-.158.266-.311.531-.45.8a4.771,4.771,0,0,0-.491,3.882c2.166,5.314,9.768.32,13.412.82,2.657.36,4.418,2.635,6.039,4.5,1.756,2.036,4.459,3.153,5.981,5.368,1.648,2.387,1.261,5.553,1.31,8.449a25.267,25.267,0,0,0,1.176,7.206,4.184,4.184,0,0,0,2,2.81c.757.32,1.666.216,2.369.64,1.162.7,1.13,2.346,1.351,3.684.7,3.9,4.837,6.445,8.8,6.647s7.782-1.378,11.408-2.995c2.612-1.162,5.521-2.77,6.305-5.4C724.417,244.583,722.2,245.763,720.165,246.668Z" transform="translate(-665.288 -196.548)"/></g><path class="x" d="M858.528,290.432c-9.534-5.485-13.137-6.836-13.155-6.836l-.2-.14a7.93,7.93,0,0,1-2.4-3.035,6.265,6.265,0,0,1,0-.653.273.273,0,0,0,0,.063c.149-2.9,2.216-5.548,4.175-7.854l5.013-5.9a5.811,5.811,0,0,0,1.292-2.045,4.714,4.714,0,0,0,.135-1.257v-.513c-.027-1.464-.068-2.932-.121-4.4-.045-1.279-.374-2.891-1.653-3.152-.667-.135-1.549.1-1.9-.45a1.094,1.094,0,0,1-.086-.761.272.272,0,0,0,0,.063V253.5a16.953,16.953,0,0,0,.473-3.013,4.1,4.1,0,0,0-.207-1.527c-.739-2.121-3.292-2.995-5.548-3.4s-4.787-.743-6.2-2.509a18.363,18.363,0,0,0-1.234-1.7,4.869,4.869,0,0,0-2.306-1.139,13.06,13.06,0,0,0-8.39.73,7.531,7.531,0,0,1-3.382,1.072c-1.2-.072-2.306-.937-3.531-1.144-1.982-.338-3.878,1.117-4.855,2.842a6.949,6.949,0,0,0-.9,3.351v.2h0a4.9,4.9,0,0,0,1.288,3.423c.856.9,2.126,1.5,2.481,2.662.144.473.108.986.239,1.468a1.317,1.317,0,0,0,.054.176l-.063.086a14.862,14.862,0,0,0-3.153,9.16,15.2,15.2,0,0,0,10.682,14.412v.45A6.479,6.479,0,0,1,823,284.145l-13.506,5.4s-8.142-.968-11.079,10.93a20.291,20.291,0,0,0-.5,6.035,17.492,17.492,0,0,1-2.252,9.039c-3.337,6.539-2.576,21.55,4.251,23.036,6.445,1.405,8.967.82,9.232.752v.261c-.108,2.819-1.13,27.112-4.846,30.048-1.027.815-.838,1.351,0,1.734,0,0,0,.158-.022.45-.113,1.8-.685,8.557-3.153,12.394-2.887,4.459-2.585,30.174-2.585,30.174l-1.968,15.159s1.211,9.363,0,11c-1.085,1.455-2.526,36.092-2.828,43.6h-.126a3.657,3.657,0,0,0-2.918,1.8c-1.594,2.59-7.179,7.377-7.179,7.377-1.211,1.72-5.693,3.369-8.061,4.143a5.009,5.009,0,0,0-.9.4,4.806,4.806,0,0,0-2.036,2.144,2.3,2.3,0,0,0-.216,1.8c.6,1.482,13.2,2.526,16.389,1.036,2.5-1.166,12.43-2.7,16.551-3.306a3.4,3.4,0,0,0,2.945-2.945,1.941,1.941,0,0,0-.378-1.473h0c-.788-.977-1.189-3.648-1.351-5.4a3.657,3.657,0,0,0,.928-.549,39.564,39.564,0,0,1,2.252-15.9c3.035-8.025,3.945-22.887,3.188-32.548,0,0,9.255-39.83,16.542-43.545h0c.112.144,3.648,4.679,4.1,18.726.45,14.267,5.611,23.63,5.611,23.63s-2.279,24.225,0,33.291l-2.977,14.3c-.221-.185-.36-.329-.36-.329s.09.4.212,1.031l-.063.306.131.027a28.145,28.145,0,0,1,.63,6.755c-.117,1.04-.41,2.468-.608,3.869-.315,2.2-.4,4.337.757,4.805,1.9.766,13.06,1.8,14.952-.649a3.508,3.508,0,0,0,.549-3.67,3.715,3.715,0,0,0-.549-.937s-2.963-4.841-2.126-8.255a2.513,2.513,0,0,0-.356-1.959,100.688,100.688,0,0,1,2.553-16.015c1.9-7.152,5.9-22.833,2.959-33.142h0q-.167-.608-.378-1.189a44.512,44.512,0,0,1-1.671-17.388,35.439,35.439,0,0,1,0-15.159c1.824-8.323,3.1-16.5,3.1-16.5s1-11,.126-17.74a4.41,4.41,0,0,0-.059-.45l.477-.108s-2.581-11.444-3.49-18.726c-.216-1.72-.5-3.9-.8-6.219a15.879,15.879,0,0,0,2.473-.617c8.192-2.824,10.773-28.373,10.773-28.373v-8.106S868.089,295.931,858.528,290.432ZM797.477,487.8c-.252-.126-.4-.212-.4-.212h0Z" transform="translate(-446.695 -194.566)"/><path class="j" d="M880.563,591.069c3.553,10.219-.594,26.805-2.522,34.227a103.465,103.465,0,0,0-2.518,16.294,34.316,34.316,0,0,1-13.033-.3L865.6,626.04c-2.225-9.034,0-33.178,0-33.178s-5.035-9.331-5.481-23.549c-.45-13.993-3.887-18.519-3.995-18.659h0c-7.107,3.7-16.141,43.4-16.141,43.4.739,9.624-.153,24.437-3.112,32.426a40.083,40.083,0,0,0-2.22,15.844,4.818,4.818,0,0,1-4.053.775c-4.229-.685-9.3-4.328-9.3-4.328s1.626-43.235,2.815-44.874,0-10.962,0-10.962l1.923-15.105s-.3-25.626,2.518-30.066c2.432-3.837,2.99-10.583,3.1-12.353v-.45l4.287-5.134s41.469-3.112,44.586,0c.761.761,1.234,2.5,1.513,4.684.856,6.719-.126,17.677-.126,17.677s-1.243,8.147-3.022,16.438a36.083,36.083,0,0,0,0,15.11A45.229,45.229,0,0,0,880.563,591.069Z" transform="translate(-473.676 -347.696)"/><path class="t" d="M928.047,801.558c-1.851,2.445-12.736,1.41-14.592.648-1.13-.45-1.045-2.6-.739-4.792.194-1.392.477-2.815.594-3.851.293-2.666-.9-8.075-.9-8.075s2.441,2.594,3.031,0a2.825,2.825,0,0,1,2.117-2.009,5.53,5.53,0,0,1,3.846.239c1.923.838,5.13,2.617,4.558,5.021-.815,3.4,2.072,8.228,2.072,8.228a3.745,3.745,0,0,1,.54.928A3.553,3.553,0,0,1,928.047,801.558Z" transform="translate(-523.753 -493.243)"/><path class="d" d="M928.177,818.853c-1.851,2.445-12.736,1.41-14.592.649-1.13-.45-1.045-2.6-.739-4.792,1.171.549,3.153,1,6.472.7a18.247,18.247,0,0,1,2.328-.072,54.147,54.147,0,0,0,7.071-.144A3.553,3.553,0,0,1,928.177,818.853Z" transform="translate(-523.884 -510.539)"/><path class="d" d="M851.326,629.837c.739,9.624-.153,24.437-3.112,32.426a40.08,40.08,0,0,0-2.22,15.844,4.818,4.818,0,0,1-4.053.775c.9-6.247,4.7-33.16,7.138-54.426a89.059,89.059,0,0,1,15.763-40.875l2.59,2.851C860.36,590.142,851.326,629.837,851.326,629.837Z" transform="translate(-485.02 -383.5)"/><path class="u" d="M900.422,318.961l-1.8,8.886-8.859,14.884-10.921-4.666s-14.862-15.551-5.517-17.771a8.268,8.268,0,0,0,3.1-1.378,6.407,6.407,0,0,0,2.418-5.359,16.428,16.428,0,0,0-1.5-6.368l19.1-6a30.667,30.667,0,0,0-1.351,7.737c-.149,5.206,1.8,7.769,3.373,9.007A5.738,5.738,0,0,0,900.422,318.961Z" transform="translate(-500.574 -228.288)"/><path class="d" d="M905.086,301.19a30.664,30.664,0,0,0-1.351,7.737,14.533,14.533,0,0,1-1.112,1.184,15.114,15.114,0,0,1-15.105,3.445A16.431,16.431,0,0,0,886,307.189Z" transform="translate(-509.237 -228.288)"/><path class="u" d="M896.369,277.325a15.038,15.038,0,1,1-4.405-10.7,15.11,15.11,0,0,1,4.405,10.7Z" transform="translate(-498.327 -206.868)"/><path class="d" d="M900.422,339.38l-1.8,8.886-8.859,14.884-10.921-4.666s-14.862-15.551-5.517-17.771a8.268,8.268,0,0,0,3.1-1.378c-1.684,4.63,5.269,14.263,5.269,14.263.811,1.193,2.666.45,2.666.45,4.481-.68,12.727-13.565,14.074-15.709A5.737,5.737,0,0,0,900.422,339.38Z" transform="translate(-500.574 -248.707)"/><path class="d" d="M894.734,524.5c-2.63.6-17.181,3.819-22.7,3.013-6.071-.9-17.875-1.477-17.875-1.477s-7.517.405-9.831-.653v-.45l4.287-5.134s41.469-3.112,44.586,0C893.982,520.581,894.455,522.319,894.734,524.5Z" transform="translate(-486.334 -347.685)"/><path class="h" d="M854.874,354.214s-7.814-10.809-4.868-15.042l-13.2,5.4s-7.944-.964-10.809,10.894a20.629,20.629,0,0,0-.491,6.017,17.8,17.8,0,0,1-2.175,9.007c-3.256,6.517-2.518,21.478,4.148,22.968s9.03.739,9.03.739-.9,27.1-4.738,30.215,9.818,2.369,9.818,2.369,11.8.594,17.879,1.482,23.1-3.112,23.1-3.112-2.518-11.4-3.409-18.658-2.968-22.712-2.968-22.712L891.3,363.321s2.666-12.367-6.665-17.848-12.84-6.823-12.84-6.823-9.377,15.267-14.263,16.006C857.54,354.656,855.684,355.4,854.874,354.214Z" transform="translate(-473.761 -248.877)"/><path class="d" d="M854.107,382.74s-.144,4.891.743,6.814S859,402.164,859,402.164H851.59s4-4.3,3.706-6.373S854.107,382.74,854.107,382.74Z" transform="translate(-490.324 -273.111)"/><path class="y" d="M877.053,439.3s-16.357-4-17.879-7.4-5.724-11.029-5.724-11.029l1.725-2.324,7.953,6.242s9.458,7.553,13.925,8.3S877.053,439.3,877.053,439.3Z" transform="translate(-491.347 -292.788)"/><path class="u" d="M877.053,439.3s-16.357-4-17.879-7.4-5.724-11.029-5.724-11.029l1.725-2.324,7.953,6.242s9.458,7.553,13.925,8.3S877.053,439.3,877.053,439.3Z" transform="translate(-491.347 -292.788)"/><path class="u" d="M901.2,421.76v8.872h-1.423a41.472,41.472,0,0,0-20.147,5.219l-2.668,1.478-.716.4-4.594-10.358,4.3-3.851h.221c1.049.1,5.593.482,7.521-.167,1.829-.622,4.1-2.59,9.485-1.216,2.653.68,4.922,3.652,7.494,2.725Z" transform="translate(-501.35 -294.503)"/><path class="d" d="M929.64,373.713l2.959,3.333v8.075s-2.518,25.472-10.511,28.287-22.275-1.63-22.275-1.63-3.688-9.773-1.964-10.358,15.245-4.161,15.245-4.161-.189-14.943,2.77-19.388c0,0-1.923-13.921,4.742-14.218S929.64,373.713,929.64,373.713Z" transform="translate(-515.498 -262.616)"/><path class="h" d="M930.643,373.713l2.963,3.333v8.075s-2.518,25.472-10.516,28.287-22.275-1.63-22.275-1.63-3.688-9.773-1.959-10.358,15.245-4.161,15.245-4.161-.194-14.943,2.77-19.388c0,0-1.928-13.921,4.738-14.218S930.643,373.713,930.643,373.713Z" transform="translate(-516.05 -262.616)"/><path class="d" d="M896,283.672a5.953,5.953,0,0,0-.338-2.887,2.2,2.2,0,0,0-2.351-1.351c-1.266.3-1.8,1.946-3.053,2.342a2.44,2.44,0,0,1-2.7-1.387,6.909,6.909,0,0,1-.513-3.225v-3.711a6.142,6.142,0,0,0-.874-3.86c-1.031-1.315-3.459-1.892-5.08-1.837a4.31,4.31,0,0,0-2.9,1.166,3.733,3.733,0,0,1-3.049,1.085,2.626,2.626,0,0,1-2.126-1.837v-.045a15.105,15.105,0,1,1,22.455,20.05A40.738,40.738,0,0,0,896,283.672Z" transform="translate(-502.098 -206.802)"/><path class="z" d="M870.356,258.386a2.648,2.648,0,0,1-2.13-1.842c-.122-.477-.09-.986-.23-1.459-.347-1.166-1.59-1.77-2.423-2.657-1.666-1.77-1.558-4.679-.378-6.809.955-1.716,2.8-3.153,4.738-2.828,1.2.207,2.252,1.058,3.45,1.139a6.961,6.961,0,0,0,3.3-1.067,12.439,12.439,0,0,1,8.206-.73,4.729,4.729,0,0,1,2.252,1.139,19.689,19.689,0,0,1,1.2,1.689c1.378,1.756,3.851,2.1,6.053,2.5s4.693,1.27,5.4,3.387c.482,1.405,0,2.927-.261,4.387a1.324,1.324,0,0,0,.059.9c.347.567,1.207.329,1.855.45,1.248.266,1.567,1.874,1.617,3.152q.077,2.189.117,4.382a5.586,5.586,0,0,1-.131,1.621,5.724,5.724,0,0,1-1.257,2.04l-4.891,5.877c-2.171,2.6-4.472,5.638-4.053,9.007a2.1,2.1,0,0,1-2.585-1.5,6.727,6.727,0,0,1,.162-3.337,40.9,40.9,0,0,0,.784-5.787,5.938,5.938,0,0,0-.338-2.882,2.2,2.2,0,0,0-2.351-1.351c-1.27.3-1.8,1.946-3.053,2.342a2.44,2.44,0,0,1-2.7-1.387,6.89,6.89,0,0,1-.513-3.22v-3.715a6.142,6.142,0,0,0-.874-3.86c-1.031-1.315-3.459-1.892-5.08-1.837a4.31,4.31,0,0,0-2.9,1.166A3.739,3.739,0,0,1,870.356,258.386Z" transform="translate(-497.318 -195.617)"/><path class="d" d="M885.3,381.92l4.639,19.055S893.6,400.952,885.3,381.92Z" transform="translate(-508.853 -272.66)"/><path class="d" d="M915.3,374.85s-6.071,9.944-3.7,20.23l1.13.081S910.713,390.4,915.3,374.85Z" transform="translate(-523.007 -268.774)"/><path class="d" d="M929,499.174s7.458-2.468,8,3.256C937.016,502.43,935.611,498.508,929,499.174Z" transform="translate(-532.872 -336.817)"/><path class="d" d="M865.63,426.81s-1.482,10.358,1.184,14.515a32.483,32.483,0,0,1-13.033,1.779l-.9-16.294Z" transform="translate(-491.033 -297.333)"/><path class="d" d="M876.96,439.6l-.716.4-4.594-10.358,4.3-3.851h.221C876.1,426.3,874.9,435.207,876.96,439.6Z" transform="translate(-501.35 -296.773)"/><path class="h" d="M860.4,425.83s-1.482,10.358,1.184,14.511a32.387,32.387,0,0,1-13.033,1.779l-5.184-16.29Z" transform="translate(-485.806 -296.795)"/><path class="t" d="M809.888,794.791a3.355,3.355,0,0,1-2.878,2.936c-4.022.6-13.709,2.13-16.154,3.3-3.112,1.482-15.4.45-16-1.036a2.351,2.351,0,0,1,.212-1.8,4.747,4.747,0,0,1,1.986-2.135,5.268,5.268,0,0,1,.9-.4c2.315-.77,6.688-2.409,7.868-4.13,0,0,5.454-4.769,7.008-7.345a3.558,3.558,0,0,1,2.846-1.774c1.3-.059,2.743.594,3.337,3.436,0,0,7.1,4.053,9.007.5,0,0,.3,5.458,1.477,6.954h0a1.981,1.981,0,0,1,.387,1.5Z" transform="translate(-448.1 -492.781)"/><path class="d" d="M809.888,808.085a3.355,3.355,0,0,1-2.878,2.936c-4.022.6-13.709,2.13-16.154,3.3-3.112,1.482-15.4.45-16-1.036a2.351,2.351,0,0,1,.212-1.8,4.747,4.747,0,0,1,1.986-2.135c2,1.351,6.454,2.63,16.24,1.1,9.336-1.459,13.961-2.887,16.213-3.86h0a1.982,1.982,0,0,1,.378,1.5Z" transform="translate(-448.1 -506.076)"/><g class="v" transform="translate(366.983 53.136)"><path d="M942.429,267.956v-.072a13.262,13.262,0,0,0,.45-3.364,22.208,22.208,0,0,1-.45,2.7A1.639,1.639,0,0,0,942.429,267.956Z" transform="translate(-907.213 -261.268)"/><path d="M890.859,277.85a4.284,4.284,0,0,1,.365,1.693,5.108,5.108,0,0,0-.365-2.36,2.189,2.189,0,0,0-2.346-1.351c-1.27.3-1.8,1.946-3.058,2.342a2.446,2.446,0,0,1-2.7-1.387,6.854,6.854,0,0,1-.513-3.225v-3.711a6.141,6.141,0,0,0-.874-3.86c-1.036-1.32-3.459-1.892-5.08-1.842a4.315,4.315,0,0,0-2.9,1.171,3.742,3.742,0,0,1-3.053,1.085,2.639,2.639,0,0,1-2.126-1.837c-.122-.477-.09-.991-.23-1.464-.347-1.162-1.59-1.77-2.423-2.653a4.851,4.851,0,0,1-1.248-3.153,5.049,5.049,0,0,0,1.248,3.8c.833.9,2.076,1.491,2.423,2.653.14.45.108.986.23,1.464a2.639,2.639,0,0,0,2.126,1.837,3.742,3.742,0,0,0,3.053-1.085,4.314,4.314,0,0,1,2.9-1.171c1.621-.05,4.053.522,5.08,1.842a6.178,6.178,0,0,1,.874,3.86v3.711a6.817,6.817,0,0,0,.513,3.22,2.452,2.452,0,0,0,2.7,1.392c1.243-.4,1.8-2.045,3.058-2.342A2.275,2.275,0,0,1,890.859,277.85Z" transform="translate(-864.285 -257.3)"/><path d="M937.852,292.709a5.693,5.693,0,0,1-1.261,2.036l-4.891,5.877c-2.058,2.472-4.233,5.337-4.053,8.494.149-2.9,2.166-5.53,4.053-7.827l4.891-5.877a5.693,5.693,0,0,0,1.261-2.036,5.621,5.621,0,0,0,.131-1.626A4.283,4.283,0,0,1,937.852,292.709Z" transform="translate(-899.106 -276.235)"/><path d="M921.8,327.143a3.465,3.465,0,0,1-.149-.793,3.993,3.993,0,0,0,.148,1.459,2.09,2.09,0,0,0,2.585,1.5,6.3,6.3,0,0,1-.054-.648A2.093,2.093,0,0,1,921.8,327.143Z" transform="translate(-895.809 -295.253)"/></g><path class="d" d="M812.69,789.36s1.549,2.7,7.161.324" transform="translate(-468.943 -496.605)"/><path class="d" d="M918,790.82s4.837,5.7,10.935,1.869" transform="translate(-526.826 -497.408)"/><path class="d" d="M944.951,641.23s-3.418,2.135-3.526,3.355,1.765-.9,1.765-.9Z" transform="translate(-539.698 -415.187)"/><path class="d" d="M944.77,677.59a7.146,7.146,0,0,1-4.211,1.644c-2.558.113-2.342,3.445-.671,2.445A41.918,41.918,0,0,0,944.77,677.59Z" transform="translate(-538.167 -435.172)"/><path class="d" d="M950.072,682.34s-1.639,8.057-2.972,6.5" transform="translate(-542.82 -437.783)"/><path class="g" d="M291.805,473.47l-.036,1.644-.369-1.572Z" transform="translate(-168.389 -313.909)"/><path class="aa" d="M291.805,473.47l-.036,1.644-.369-1.572Z" transform="translate(-168.389 -313.909)"/><path class="d" d="M287.717,776.448s-6.215,1.7-7.417-.968" transform="translate(-176.321 -488.976)"/><path class="d" d="M373.552,773.558s-7.206,1.86-8.872-1.018" transform="translate(-222.699 -487.36)"/><ellipse class="b" cx="12.128" cy="2.049" rx="12.128" ry="2.049" transform="translate(66.388 266.764)"/><ellipse class="b" cx="12.128" cy="2.049" rx="12.128" ry="2.049" transform="translate(18.609 295.826)"/><ellipse class="h" cx="18.109" cy="3.062" rx="18.109" ry="3.062" transform="translate(0 268.814)"/><path class="h" d="M70.821,721.7a5.238,5.238,0,0,1-1.729-2.6,2.321,2.321,0,0,1,1.207-2.653c1.108-.423,2.292.342,3.189,1.117s1.928,1.662,3.1,1.5a4.724,4.724,0,0,1-1.459-4.423,1.8,1.8,0,0,1,.405-.9c.612-.658,1.729-.374,2.468.144,2.337,1.648,2.995,4.828,3,7.692a14.187,14.187,0,0,0,.045-3.153,3.243,3.243,0,0,1,1.189-2.8,3.6,3.6,0,0,1,1.8-.45,3.767,3.767,0,0,1,2.945.838,2.9,2.9,0,0,1-.117,3.6,11.776,11.776,0,0,1-3.044,2.441,6.718,6.718,0,0,0-2.18,2.076,2.123,2.123,0,0,0-.162.369h-6.58a18.213,18.213,0,0,1-4.085-2.8Z" transform="translate(-60.202 -454.827)"/><ellipse class="b" cx="12.128" cy="2.049" rx="12.128" ry="2.049" transform="translate(443.443 283.905)"/><path class="ab" d="M1042.91,748.549s6.917-.212,9.007-1.7,10.638-3.256,11.155-.874,10.4,11.84,2.585,11.9-18.145-1.216-20.226-2.486S1042.91,748.549,1042.91,748.549Z" transform="translate(-595.481 -472.119)"/><path class="ac" d="M1065.793,761.612c-7.809.063-18.145-1.216-20.226-2.486-1.585-.964-2.216-4.427-2.427-6.026h-.23s.45,5.58,2.518,6.846,12.416,2.549,20.226,2.486c2.252,0,3.035-.82,2.99-2.009C1068.333,761.161,1067.473,761.612,1065.793,761.612Z" transform="translate(-595.481 -476.675)"/><g transform="translate(86.957 59.588)"><path class="m" d="M671.134,412.951l7.748-.911,2.735,23.7,6.982,32.727a5.013,5.013,0,1,1-5.439.684l-7.012-19.282Z" transform="translate(-608.119 -344.472)"/><path class="m" d="M646.437,755.351h6.383l3.037-24.623h-9.422Z" transform="translate(-594.677 -517.914)"/><path class="ad" d="M642.866,788.45h20.583v-.26a8.012,8.012,0,0,0-8.01-8.011H642.866Z" transform="translate(-592.734 -544.827)"/><path class="m" d="M538.948,748.245l6.268,1.21,7.651-23.6-9.252-1.786Z" transform="translate(-536.178 -514.291)"/><path class="ad" d="M532.87,780.068l20.21,3.9.049-.256a8.012,8.012,0,0,0-6.347-9.385h0l-12.343-2.384Z" transform="translate(-532.87 -540.347)"/><path class="ad" d="M630.8,293.43l-3.709,7.116-27.779-6.127,3.043-13.8c2.409-10.921,12.065-18.808,22.986-16.4s16.016,13.083,13.608,24l-4.477,13.946-4.529-1Z" transform="translate(-569.03 -263.787)"/><path class="ad" d="M610.131,499.589s2.735,13.673-.911,33.726-4.558,28.713-4.558,28.713,2.734,3.19.911,5.013,0,5.469,0,5.469l-4.1,44.209-14.129-2.279,1.823-41.474s-1.823-3.646-.912-4.558-.911-6.381-.911-6.381l-2.279-43.3-14.129,47.4s1.367,1.823,0,3.19-4.1,8.2-4.1,8.2l-9.115,31.9-14.584-2.735,8.2-36.461s-.911-2.279.456-3.646a3.57,3.57,0,0,0,.912-3.19s-1.367-1.367.456-3.19,2.734-9.115,2.734-9.115,1.367-48.766,5.925-51.5S610.131,499.589,610.131,499.589Z" transform="translate(-538.456 -391.458)"/><circle class="m" cx="12.761" cy="12.761" r="12.761" transform="translate(38.305 7.197)"/><path class="h" d="M591.13,343.166s-9.263-1.085-12,1.649l2.735,55.147s-1.823,1.367-.911,4.558a13.02,13.02,0,0,1,0,6.381s-2.735,3.19-1.367,4.558,50.59.456,50.59.456,1.823-3.19-.911-5.013-1.367-6.836-1.367-6.836.911-1.367-1.367-3.646-4.1-20.965-4.1-20.965l5.925-22.788s-5.964-6.732-12.781-7.24Z" transform="translate(-558.048 -306.873)"/><path class="h" d="M669.186,373.352l7.061-.314s4.1,8.2,4.558,15.5l2.51,27.2-16.183,2.421Z" transform="translate(-605.941 -323.246)"/><path class="ad" d="M641.6,289.772l4.74-6.1a4.973,4.973,0,0,0-3.775-5.911l-17.908-3.95a4.973,4.973,0,0,0-5.911,3.775l-.01.046L620.023,285l.225-.04c11.114-1.982,14.279-1.284,21.174,4.661Z" transform="translate(-579.604 -269.181)"/><path class="m" d="M561.744,449.449l.855-35.887.912-25.523,10.938,1.367-5.874,61a5.013,5.013,0,1,1-7.045-.8q.105-.084.215-.162Z" transform="translate(-547.439 -331.411)"/><path class="h" d="M573.238,347.807l-7.979-.769s-1.367,0-2.735,4.558-8.884,52.726-8.884,52.726l16.632,1.509Z" transform="translate(-544.174 -309.096)"/></g></g></g></svg>