<svg xmlns="http://www.w3.org/2000/svg" width="27.028" height="25.1" viewBox="0 0 27.028 25.1"><defs><style>.a{fill:none;stroke:#649ae9;}</style></defs><path class="a" d="M28.6,29.885H6.427A1.928,1.928,0,0,1,4.5,27.956V16.388a49.089,49.089,0,0,0,9.64,3.648v1.172a.963.963,0,0,0,.964.964h4.82a.964.964,0,0,0,.964-.964V20.036a49.117,49.117,0,0,0,9.64-3.648V27.956A1.929,1.929,0,0,1,28.6,29.885Zm-9.64-11.568a.964.964,0,0,1,.964.964v.964a.964.964,0,0,1-.964.964H16.067a.963.963,0,0,1-.964-.964V19.28a.963.963,0,0,1,.964-.964Zm1.928,0a.964.964,0,0,0-.964-.964H15.1a.963.963,0,0,0-.964.964v.864A48.288,48.288,0,0,1,4.5,15.424V11.568A1.928,1.928,0,0,1,6.427,9.64h5.784V7.712a1.929,1.929,0,0,1,1.928-1.928h6.748a1.929,1.929,0,0,1,1.928,1.928V9.64H28.6a1.929,1.929,0,0,1,1.928,1.928v3.856a48.316,48.316,0,0,1-9.64,3.756v-.864Zm0-9.64a.964.964,0,0,0-.964-.964H15.1a.963.963,0,0,0-.964.964V9.64h6.748Z" transform="translate(-3.999 -5.284)"/></svg>