<svg xmlns="http://www.w3.org/2000/svg" width="579" height="111" viewBox="0 0 579 111"><defs><style>.a{fill:#f3f7fd;}.b{fill:#f0f0f0;}.c{fill:#f2f2f2;}.d{fill:#3f3d56;}.e{fill:#9e616a;}.f{fill:#2f2e41;}.g{fill:#e4e4e4;}.h{fill:#649ae9;}</style></defs><g transform="translate(-198 -115)"><rect class="a" width="579" height="111" rx="8" transform="translate(198 115)"/><g transform="translate(573.117 123.134)"><rect class="b" width="5.949" height="5.249" transform="translate(129.212 94.483)"/><path class="c" d="M646.93,209.092a44.086,44.086,0,0,1-22.937,38.7c-.394.215-.793.425-1.193.628a43.09,43.09,0,0,1-4.579,2.009q-.934.352-1.888.654c-.061.021-.124.042-.185.059a44.006,44.006,0,0,1-37.417-5.123q-1.1-.719-2.154-1.5c-.4-.3-.789-.6-1.176-.906q-1.64-1.3-3.149-2.759a44.092,44.092,0,1,1,74.679-31.757Z" transform="translate(-484.998 -165)"/><path class="d" d="M738.5,414.376l-.994,3.758,3.774,17.712a44.275,44.275,0,0,1-30.864-1.587l2.946-12.354.1-6.7.32-22.1.08-.042.016-.007,7.506-3.855,12.951-.324L744,393.587l-.073.275Z" transform="translate(-610.131 -349.708)"/><path class="e" d="M895.259,644.559a3.163,3.163,0,0,1,.844-4.776L894,628.741l5.391,2.247,1.17,10.141a3.18,3.18,0,0,1-5.3,3.43Z" transform="translate(-761.595 -547.601)"/><path class="d" d="M874.354,415.621l1.383-.45s4.388,2.816,3.971,9.625c0,0,.165,3.523.007,5.868-.18,2.69,2.234,29.417,2.234,29.417h-7.82l-3.351-24.2Z" transform="translate(-742.436 -371.399)"/><path class="e" d="M780.623,277.5a8.978,8.978,0,1,1-8.978-8.978h0a8.955,8.955,0,0,1,8.978,8.933Z" transform="translate(-653.24 -250.406)"/><path class="f" d="M762.1,283.143c-1.516-1.767-2.236-4.112-3.448-6.119s-3.32-3.8-5.547-3.336a4.976,4.976,0,0,0-3.323,3.188,15.684,15.684,0,0,0-.818,4.808,8.209,8.209,0,0,0-5.216-7.675,7.682,7.682,0,0,0-8.6,2.818,4.648,4.648,0,0,0-6.173-.13,5.177,5.177,0,0,0-.831,6.389,4.679,4.679,0,0,0,5.982,1.6l.707.65a3.064,3.064,0,0,0,1.671,3.559c1.052.425,2.537.354,2.93,1.458a2.313,2.313,0,0,1-.786,2.187,3.687,3.687,0,0,0-1.262,2.025c-.1,1.237,1.179,2.1,2.342,2.365a7.3,7.3,0,0,0,7.528-3.142q.047-.072.1-.143a10.823,10.823,0,0,0,2.177-8.276c-.091-.572,0-1,.395-1.132,1.7-.585,6.477.643,7.921,1.753s2.6,2.579,3.993,3.761a6.222,6.222,0,0,0,4.931,1.771,5.471,5.471,0,0,0,3.428-2.524,15.191,15.191,0,0,0,1.693-4.119A7.968,7.968,0,0,1,762.1,283.143Z" transform="translate(-618.536 -261.015)"/><path class="g" d="M773.783,561.635,759.452,558.8l3.675-18.554a39.934,39.934,0,0,0,14.331,2.838C773.539,548.827,771.759,555,773.783,561.635Z" transform="translate(-650.587 -474.587)"/><path class="h" d="M759.732,567.864,745.4,565.025c-1.176-8.405-.107-14.734,3.675-18.553a39.934,39.934,0,0,0,14.331,2.838A51.109,51.109,0,0,0,759.732,567.864Z" transform="translate(-638.62 -479.727)"/><path class="e" d="M715.042,584.068a3.163,3.163,0,0,0-4.073-2.633l-6.656-9.058-2.025,5.479,6.631,7.761a3.18,3.18,0,0,0,6.123-1.549Z" transform="translate(-603.425 -501.099)"/><path class="d" d="M669.945,411.932l-1.206-.814s-7.174.668-8.65,7.328c0,0-1.079,4-1.575,6.3-.255,1.182-3.654,12.6-3.654,12.6l11.528,12.6,3.149-4.724-3.149-7.874Z" transform="translate(-564.296 -368.055)"/><rect class="h" width="5.949" height="5.249" transform="translate(0 22.137)"/><rect class="h" width="5.949" height="5.249" transform="translate(12.773 43.133)"/><rect class="h" width="5.949" height="5.249" transform="translate(22.046 79.001)"/><path class="g" d="M260.366,222.649a.665.665,0,0,0,0,1.33h48.545a.665.665,0,1,0,0-1.33Z" transform="translate(-238.277 -212.562)"/><path class="g" d="M260.359,245.45a.665.665,0,1,0,0,1.33h30.691a.665.665,0,1,0,0-1.33Z" transform="translate(-238.27 -231.374)"/><path class="g" d="M224.366,495.649a.665.665,0,0,0,0,1.33h48.545a.665.665,0,1,0,0-1.33Z" transform="translate(-208.576 -437.796)"/><path class="g" d="M224.359,518.45a.665.665,0,1,0,0,1.33h30.691a.665.665,0,1,0,0-1.33Z" transform="translate(-208.569 -456.608)"/><path class="g" d="M382.366,690.649a.665.665,0,0,0,0,1.33h48.545a.665.665,0,1,0,0-1.33Z" transform="translate(-338.931 -598.677)"/><path class="g" d="M382.359,713.45a.665.665,0,0,0,0,1.33h30.691a.665.665,0,1,0,0-1.33Z" transform="translate(-338.924 -617.489)"/><path class="d" d="M151.815,271.365a10.945,10.945,0,0,0,6.941-4.9,10.489,10.489,0,0,0,1.052-2.245.263.263,0,0,0-.5-.169,10.416,10.416,0,0,1-5.376,6.047,9.861,9.861,0,0,1-2.218.751A.263.263,0,0,0,151.815,271.365Z" transform="translate(-149.018 -246.58)"/><path class="d" d="M180.76,261.053l2.839-1.6c.044-.025.167-.117.212-.106-.037-.009,0,.018,0,.052s.007.09.009.135c.01.276.015.553.023.829l.044,1.59c.009.335.533.374.524.036l-.052-1.866c-.012-.428.1-1.376-.6-1.294a2.026,2.026,0,0,0-.694.325l-.864.487-1.666.938c-.293.165-.069.64.226.474Z" transform="translate(-172.848 -242.408)"/><path class="d" d="M191.244,426.37a10.944,10.944,0,0,0-6.734,5.174,10.473,10.473,0,0,0-.96,2.284.263.263,0,0,0,.506.14,10.42,10.42,0,0,1,5.141-6.256,9.855,9.855,0,0,1,2.187-.836.263.263,0,0,0-.14-.506Z" transform="translate(-175.443 -380.631)"/><path class="d" d="M182.426,457.739l-2.743,1.691c-.047.029-.093.061-.142.086s-.1.025-.067.056c-.042-.042-.032-.2-.035-.243l-.053-.793-.107-1.587c-.023-.335-.548-.338-.525,0l.125,1.863c.029.424-.05,1.3.6,1.266a1.937,1.937,0,0,0,.8-.4l.784-.483,1.628-1C182.978,458.016,182.715,457.561,182.426,457.739Z" transform="translate(-171.492 -405.66)"/><path class="d" d="M278.268,627.876a10.419,10.419,0,0,1,6.421,4.933,9.849,9.849,0,0,1,.907,2.158.263.263,0,0,0,.506-.14,10.943,10.943,0,0,0-5.382-6.569,10.469,10.469,0,0,0-2.312-.889.263.263,0,0,0-.14.506Z" transform="translate(-253.441 -546.463)"/><path class="d" d="M305.664,659.192l1.628,1,.784.483a1.933,1.933,0,0,0,.8.4c.649.035.57-.842.6-1.266l.125-1.863c.023-.337-.5-.336-.525,0l-.107,1.587-.051.759c0,.058.011.229-.037.277.034-.034,0-.018-.04-.041-.056-.034-.113-.066-.169-.1l-2.743-1.691C305.641,658.561,305.377,659.015,305.664,659.192Z" transform="translate(-276.096 -571.491)"/><circle class="h" cx="2.45" cy="2.45" r="2.45" transform="translate(9.448 10.064)"/><circle class="h" cx="2.45" cy="2.45" r="2.45" transform="translate(5.249 58.063)"/><circle class="h" cx="2.45" cy="2.45" r="2.45" transform="translate(31.669 92.124)"/></g></g></svg>